<?xml version="1.0" encoding="utf-8"?>
<!-- Generator: Adobe Illustrator 23.0.4, SVG Export Plug-In . SVG Version: 6.00 Build 0)  -->
<svg version="1.1" id="Layer_1" xmlns="http://www.w3.org/2000/svg" xmlns:xlink="http://www.w3.org/1999/xlink" x="0px" y="0px"
	 viewBox="0 0 2000 768" style="enable-background:new 0 0 2000 768;" xml:space="preserve">
<style type="text/css">
	.st0{fill:#FFFFFF;}
</style>
<path class="st0" d="M337.85,254.42v76.02h-201.1v126.47h154.11v74.64H136.75v205.25H40V254.42H337.85z"/>
<path class="st0" d="M633.86,657.32h170.7v79.47H523.98V658.7l167.24-225.29H524.67v-79.47h277.81v78.09L633.86,657.32z"/>
<path class="st0" d="M992.86,365c21.87-11.51,46.87-17.28,74.98-17.28c32.71,0,62.31,8.07,88.81,24.19
	c26.48,16.13,47.44,39.05,62.88,68.76c15.43,29.72,23.15,64.16,23.15,103.32c0,39.16-7.72,73.84-23.15,104
	c-15.44,30.18-36.4,53.56-62.88,70.15c-26.5,16.58-56.1,24.88-88.81,24.88c-28.57,0-53.56-5.65-74.98-16.93
	c-21.42-11.28-38.59-25.92-51.49-43.88v54.59h-96.75V225.4h96.75v184.51C953.81,391.5,970.97,376.52,992.86,365z M1129.69,484.21
	c-9.45-16.81-21.89-29.6-37.32-38.36c-15.44-8.75-32.13-13.13-50.1-13.13c-17.51,0-33.98,4.49-49.41,13.47
	c-15.44,8.98-27.88,22.01-37.32,39.05c-9.45,17.05-14.17,37.09-14.17,60.12c0,23.04,4.72,43.08,14.17,60.12
	c9.44,17.05,21.87,30.06,37.32,39.04c15.43,8.98,31.9,13.48,49.41,13.48c17.97,0,34.66-4.6,50.1-13.82
	c15.43-9.21,27.87-22.34,37.32-39.39c9.44-17.04,14.17-37.32,14.17-60.81C1143.86,520.95,1139.13,501.03,1129.69,484.21z"/>
<path class="st0" d="M1640.04,353.94v382.85h-97.44v-48.37c-12.44,16.58-28.68,29.61-48.72,39.04
	c-20.04,9.44-41.81,14.17-65.31,14.17c-29.96,0-56.44-6.33-79.47-19c-23.04-12.67-41.12-31.32-54.25-55.97
	c-13.13-24.64-19.7-54.01-19.7-88.11v-224.6h96.75v210.78c0,30.41,7.6,53.79,22.81,70.14c15.2,16.36,35.93,24.53,62.2,24.53
	c26.72,0,47.69-8.17,62.89-24.53c15.2-16.35,22.81-39.74,22.81-70.14V353.94H1640.04z"/>
<path class="st0" d="M1789.31,657.32H1960v79.47h-280.57V658.7l167.24-225.29h-166.55v-79.47h277.81v78.09L1789.31,657.32z"/>
<path class="st0" d="M478.71,355.56c-11.3,2.55-25.46,3.82-42.5,3.82c-17.05,0-31.22-1.27-42.5-3.82c-2.19-0.49-4.11-1.02-5.87-1.56
	v382.79h96.75V354C482.82,354.54,480.91,355.07,478.71,355.56z"/>
<circle class="st0" cx="436.2" cy="257.13" r="57.59"/>
<circle class="st0" cx="334.35" cy="160.9" r="46.06"/>
<circle class="st0" cx="470.76" cy="94.1" r="69.1"/>
</svg>
