<?xml version="1.0" encoding="UTF-8"?>
<svg width="553px" height="648px" viewBox="0 0 553 648" version="1.1" xmlns="http://www.w3.org/2000/svg" xmlns:xlink="http://www.w3.org/1999/xlink">
    <!-- Generator: Sketch 41.2 (35397) - http://www.bohemiancoding.com/sketch -->
    <title>Germany</title>
    <desc>Created with Sketch.</desc>
    <defs></defs>
    <g id="Index-Designs" stroke="none" stroke-width="1" fill="none" fill-rule="evenodd">
        <g id="Offline-Camp-Index---Berlin" transform="translate(-199.000000, -1358.000000)">
            <g id="Page" transform="translate(-103.000000, 0.000000)">
                <g id="Body" transform="translate(191.000000, 1238.000000)">
                    <g id="Section" transform="translate(96.000000, 2.000000)">
                        <g id="Germany" transform="translate(15.000000, 118.000000)">
                            <polygon id="Path-2" fill="#432849" points="216.942349 0 233.089104 38.8619385 213.571845 42.6785889 227.225352 58.479126 236.143005 75.9012451 232.878036 83.2016602 251.211331 88.4421387 268.987273 114.740112 239.691597 90.1131592 215.38077 85.1742554 205.472084 110.806458 183.008108 100.307373 137.343064 106.912354 131.471067 128.690002 142.040992 136.057983 130.054598 188.904419 119.677603 198.411438 129.912786 224.511658 110.74511 236.610901 114.819725 247.881226 71.751816 255.590332 84.547856 287.730286 76.4151151 311.533264 62.9199099 323.299622 69.2173426 351.59491 89.4881828 385.252625 73.2507335 399.009705 90.2664987 429.666504 82.1782801 457.688232 127.724597 491.65741 180.879282 504.776733 145.216916 577.003052 141.452308 615.525513 199.107043 622.860535 205.040052 605.856995 294.406211 639.850891 298.841952 647.67041 313.270477 625.189087 341.433307 639.410889 379.887387 622.458435 409.057741 619.579468 411.445456 611.14032 440.091436 614.597717 455.342799 630.213684 461.892524 617.320129 438.86295 575.089783 473.013207 556.120239 480.855728 535.445068 496.243956 539.339172 497.454303 509.053162 436.856149 468.459229 415.948804 436.765869 424.361871 421.535522 398.614787 391.771912 520.711435 334.159607 516.730812 323.490784 539.607031 340.598145 546.402454 329.817261 552.449243 298.863831 534.562819 279.727844 526.367417 255.911682 532.424099 232.443237 529.002478 218.737244 522.980424 218.198364 520.033707 206.59845 525.376384 197.524841 525.447289 189.911316 497.742873 168.840637 496.870566 159.673096 507.470172 152.738525 510.797802 133.594299 496.090601 75.5782471 474.00424 59.7727661 460.208922 63.6602783 457.590351 66.5606689 446.461424 53.9324341 468.26581 41.1064453 465.203665 22.6016235 434.428859 33.1831055 409.979518 34.5541992 389.995599 58.4428711 365.143908 62.046936 355.085165 78.9005127 323.738165 75.4464111 338.763618 58.6521606 346.838645 37.8138428 327.788046 44.0579224 302.514218 39.428833 282.772698 33.9906006 282.418169 12.2459106"></polygon>
                            <polygon id="Path-3" fill="#FFFFFF" points="0 372.499146 419.528727 203.505249 386.621797 196.455322 389.243667 180.440552 453.50749 193.647217 441.667855 250.768433 427.2888 246.546387 427.2888 215.522095 10.0521469 393.998291"></polygon>
                            <ellipse id="Oval-2" fill="#00FFE6" cx="472.371756" cy="187.612427" rx="7.17633588" ry="7.171875"></ellipse>
                        </g>
                    </g>
                </g>
            </g>
        </g>
    </g>
</svg>