<?xml version="1.0" encoding="utf-8"?>
<!-- Generator: Adobe Illustrator 20.1.0, SVG Export Plug-In . SVG Version: 6.00 Build 0)  -->
<svg version="1.1" id="content" xmlns="http://www.w3.org/2000/svg" xmlns:xlink="http://www.w3.org/1999/xlink" x="0px" y="0px"
	 viewBox="0 0 1474 192" enable-background="new 0 0 1474 192" xml:space="preserve">
<symbol  id="logo_x5F_dark" viewBox="0 -136 416 136">
	<rect y="-136" fill="none" width="416" height="136"/>
</symbol>
<g>
	<g>
		<g opacity="0.54">
			<defs>
				<rect id="SVGID_1_" x="228" opacity="0.54" width="1246" height="192"/>
			</defs>
			<clipPath id="SVGID_2_">
				<use xlink:href="#SVGID_1_"  overflow="visible"/>
			</clipPath>
			<rect x="228" y="41" clip-path="url(#SVGID_2_)" fill="none" width="1246" height="136"/>
			<g clip-path="url(#SVGID_2_)">
				
					<use xlink:href="#logo_x5F_dark"  width="416" height="136" id="XMLID_1_" y="-136" transform="matrix(1 0 0 -1 227.9763 41)" overflow="visible"/>
			</g>
		</g>
	</g>
</g>
<g>
	<path fill="#FFFFFF" d="M114.2,96.7c0,13.3-10.8,24.1-24.1,24.1c-13.3,0-24.1-10.8-24.1-24.1c0-13.3,10.8-24.1,24.1-24.1
		C103.4,72.5,114.2,83.3,114.2,96.7z"/>
	<g>
		<path fill="#FFFFFF" d="M179.5,90.5l-18.1-31.6h-36.9l21.6,37.6v0l-5.8,10.1l-22,38.2l-6.8,11.8L99.8,177h30
			c4.3,0,8.3-2.3,10.5-6.1l39.2-68.4C181.6,98.8,181.6,94.2,179.5,90.5z"/>
	</g>
	<g>
		<path fill="#FFFFFF" d="M62.8,144.8L35,96.5v0l-18.4-32l-14.9,26c-2.1,3.7-2.1,8.3,0,12l39.2,68.4c2.2,3.8,6.1,6.1,10.5,6.1h36
			l18.6-32.2H62.8z"/>
	</g>
	<g>
		<path fill="#FFFFFF" d="M155.3,48.2l-15-26.1c-2.2-3.8-6.1-6.1-10.5-6.1H51.3c-4.3,0-8.3,2.3-10.5,6.1L22.7,53.8l18.5,32
			l21.6-37.6H155.3z"/>
	</g>
</g>
<path fill="#FFFFFF" d="M228.7,93.6c0-28.9,24.3-52.5,53.3-52.5c16,0,27.4,6.3,36,14.5l-10.1,10.1c-6.1-5.8-14.5-10.2-25.9-10.2
	c-21.1,0-37.6,17-37.6,38.1c0,21.1,16.5,38.1,37.6,38.1c13.7,0,21.5-5.5,26.5-10.5c4.1-4.1,6.8-10,7.8-18h-34.3V88.8h48.3
	c0.5,2.6,0.8,5.6,0.8,9c0,10.8-2.9,24.1-12.4,33.5c-9.2,9.6-21,14.7-36.6,14.7C253,146,228.7,122.5,228.7,93.6z"/>
<path fill="#FFFFFF" d="M370,78.5c-18.7,0-33.9,14.2-33.9,33.8c0,19.5,15.2,33.8,33.9,33.8c18.7,0,33.9-14.3,33.9-33.8
	C403.9,92.7,388.7,78.5,370,78.5z M370,132.7c-10.2,0-19.1-8.4-19.1-20.5c0-12.2,8.8-20.5,19.1-20.5c10.2,0,19.1,8.3,19.1,20.5
	C389,124.3,380.2,132.7,370,132.7z"/>
<path fill="#FFFFFF" d="M444,78.5c-18.7,0-33.9,14.2-33.9,33.8c0,19.5,15.2,33.8,33.9,33.8c18.7,0,33.9-14.3,33.9-33.8
	C477.9,92.7,462.7,78.5,444,78.5z M444,132.7c-10.2,0-19.1-8.4-19.1-20.5c0-12.2,8.8-20.5,19.1-20.5s19.1,8.3,19.1,20.5
	C463,124.3,454.2,132.7,444,132.7z"/>
<path fill="#FFFFFF" d="M534.8,80.5V86h-0.5c-3.3-4-9.7-7.6-17.8-7.6c-16.9,0-32.4,14.8-32.4,33.9c0,18.9,15.5,33.7,32.4,33.7
	c8.1,0,14.5-3.6,17.8-7.7h0.5v4.9c0,12.9-6.9,19.8-18,19.8c-9.1,0-14.7-6.5-17-12l-12.9,5.4c3.7,9,13.6,20,30,20
	c17.4,0,32.1-10.2,32.1-35.2V80.5H534.8z M517.8,132.7c-10.2,0-18.8-8.6-18.8-20.4c0-11.9,8.6-20.6,18.8-20.6c10.1,0,18,8.7,18,20.6
	C535.8,124.2,527.9,132.7,517.8,132.7z"/>
<rect x="559.1" y="44.7" fill="#FFFFFF" width="14.8" height="99.3"/>
<path fill="#FFFFFF" d="M614.7,132.7c-7.6,0-12.9-3.5-16.4-10.2l45.2-18.7l-1.5-3.8c-2.8-7.6-11.4-21.5-28.9-21.5
	c-17.4,0-31.9,13.7-31.9,33.8c0,18.9,14.3,33.8,33.5,33.8c15.5,0,24.4-9.5,28.2-15l-11.5-7.7C627.5,129,622.2,132.7,614.7,132.7z
	 M613.5,91.5c5.9,0,10.9,2.9,12.5,7.2l-30.2,12.5C595.5,98.2,606,91.5,613.5,91.5z"/>
<g>
	<path fill="#FFFFFF" d="M672.6,98.2c0-27.3,20.6-47.9,47.6-47.9c13.8,0,25.5,5.5,33.7,15l-8.2,7.9c-6.4-7.9-15-11.6-25.5-11.6
		c-19.3,0-35.6,14.1-35.6,36.6s16.3,36.6,35.6,36.6c11.5,0,21.2-5.4,28.2-13.3l8.2,8.2c-8.1,9.6-21,16.4-36.4,16.4
		C693.2,146,672.6,125.4,672.6,98.2z"/>
	<path fill="#FFFFFF" d="M765.8,144V52.3h11.8V144H765.8z"/>
	<path fill="#FFFFFF" d="M850.9,112.6c0,19.1-13.4,33.4-32.3,33.4c-18.8,0-32.3-14.3-32.3-33.4c0-19.1,13.4-33.4,32.3-33.4
		C837.5,79.2,850.9,93.6,850.9,112.6z M839.1,112.6c0-14.3-10-22.7-20.5-22.7c-10.5,0-20.5,8.3-20.5,22.7c0,14.3,10,22.7,20.5,22.7
		C829.2,135.3,839.1,127,839.1,112.6z"/>
	<path fill="#FFFFFF" d="M904.2,144v-8.7h-0.5c-3.5,5.8-11.3,10.8-19.8,10.8c-16.1,0-23.9-10.9-23.9-26.4V81.3h11.8v36.5
		c0,13.1,6.5,17.5,15.5,17.5c10.2,0,16.5-9.9,16.5-19.5V81.3h11.8V144H904.2z"/>
	<path fill="#FFFFFF" d="M924.9,112.6c0-19.2,14-33.4,29.8-33.4c10,0,17.8,5,21.4,10.8h0.5l-0.5-8.7V52.3h11.8V144h-11.3v-8.7h-0.5
		c-3.6,5.8-11.4,10.8-21.4,10.8C938.8,146,924.9,131.8,924.9,112.6z M976.6,112.6c0-14.3-9.5-22.7-20-22.7c-10.5,0-20,8.6-20,22.7
		c0,14.1,9.5,22.7,20,22.7C967.1,135.3,976.6,127,976.6,112.6z"/>
	<path fill="#FFFFFF" d="M1020,144V52.3h31.2c15.2,0,28.7,11.3,28.7,27.3s-13.4,27.3-28.7,27.3h-19.5V144H1020z M1051.5,95.6
		c10.5,0,16.4-8.7,16.4-16c0-7.3-5.9-16-16.4-16h-19.7v32H1051.5z"/>
	<path fill="#FFFFFF" d="M1088.2,144V52.3h11.8V144H1088.2z"/>
	<path fill="#FFFFFF" d="M1110.1,125.1c0-14.2,12.8-21.9,27.5-21.9c8.4,0,14.6,2.4,17,3.8v-1.8c0-9.5-7.6-15.2-16.4-15.2
		c-6.5,0-12.8,3.2-15,9.1l-10.8-4.6c2.2-5.8,9.7-15.2,25.5-15.2c15.4,0,27.9,9.2,27.9,26.9V144h-11.3v-8.7h-0.5
		c-3.5,5.2-9.9,10.8-20.6,10.8C1120.7,146,1110.1,138.1,1110.1,125.1z M1154.7,117c0,0-5-4.1-15-4.1c-12.4,0-17.3,6.7-17.3,12.4
		c0,6.7,6.9,10,13.1,10C1144.8,135.3,1154.7,127.2,1154.7,117z"/>
	<path fill="#FFFFFF" d="M1182.9,124.9V92h-11V81.3h11V62.1h11.8v19.2h15.4V92h-15.4v32c0,7,2.9,10.2,8.4,10.2c2.2,0,3.7-0.3,5.4-1
		l4.1,10.1c-2.7,1.2-5.5,1.7-9.5,1.7C1190,145,1182.9,137.7,1182.9,124.9z"/>
	<path fill="#FFFFFF" d="M1259.5,53.5l-4.1,10.1c-1.5-0.8-3.2-1-5.4-1c-5.9,0-10.5,3.5-10.5,10.8v7.9h16.4V92h-16.4v52h-11.8V92
		H1216V81.3h11.8V73c0-12.8,9.1-21.1,22.3-21.1C1254,51.8,1256.8,52.3,1259.5,53.5z"/>
	<path fill="#FFFFFF" d="M1323.6,112.6c0,19.1-13.4,33.4-32.3,33.4c-18.8,0-32.3-14.3-32.3-33.4c0-19.1,13.4-33.4,32.3-33.4
		C1310.2,79.2,1323.6,93.6,1323.6,112.6z M1311.8,112.6c0-14.3-10-22.7-20.5-22.7c-10.5,0-20.5,8.3-20.5,22.7
		c0,14.3,10,22.7,20.5,22.7C1301.8,135.3,1311.8,127,1311.8,112.6z"/>
	<path fill="#FFFFFF" d="M1333.1,144V81.3h11.3v10.2h0.5c2.6-7.2,11.6-11.8,18.2-11.8c3.8,0,6.4,0.5,8.8,1.5l-4.5,11
		c-1.7-0.6-3.7-0.9-6.3-0.9c-8.1,0-16.3,6.8-16.3,18.3V144H1333.1z"/>
	<path fill="#FFFFFF" d="M1378.3,81.3h11.3V90h0.5c3.6-6,11.9-10.8,19.3-10.8c10.1,0,16.6,4.6,19.8,12c4.5-7,12.2-12,21.9-12
		c15.4,0,22.4,10.9,22.4,26.4V144h-11.8v-36.6c0-13.1-5-17.4-14-17.4c-9.6,0-16,9.7-16,19.3V144H1420v-36.6c0-13.1-5-17.4-14-17.4
		c-9.6,0-16,9.7-16,19.3V144h-11.8V81.3z"/>
</g>
</svg>
