<?xml version="1.0" encoding="UTF-8"?>
<svg width="241px" height="97px" viewBox="0 0 241 97" version="1.1" xmlns="http://www.w3.org/2000/svg" xmlns:xlink="http://www.w3.org/1999/xlink">
    <!-- Generator: Sketch 41.2 (35397) - http://www.bohemiancoding.com/sketch -->
    <title>Group</title>
    <desc>Created with Sketch.</desc>
    <defs></defs>
    <g id="Symbols" stroke="none" stroke-width="1" fill="none" fill-rule="evenodd">
        <g id="IBM" fill="#FFFFFF">
            <g id="Group">
                <g>
                    <path d="M53.1731707,76.9741935 L127.112195,76.9741935 C127.112195,78.5515336 125.539024,82.6526177 124.909756,83.5990217 L53.1731707,83.5990217 L53.1731707,76.9741935 L53.1731707,76.9741935 Z" id="Shape"></path>
                    <path d="M53.1731707,12.9341883 L124.909756,12.9341883 C125.539024,14.1960603 126.797561,18.2971444 127.112195,19.5590164 L53.1731707,19.5590164 L53.1731707,12.9341883 L53.1731707,12.9341883 Z" id="Shape"></path>
                    <path d="M66.702439,51.105817 L117.987805,51.105817 C119.560976,52.3676891 122.707317,56.1533051 123.965854,57.7306452 L66.702439,57.7306452 L66.702439,51.105817 L66.702439,51.105817 Z" id="Shape"></path>
                    <path d="M106.660976,70.9803014 L128.056098,70.9803014 C128.056098,69.0874934 127.426829,65.6173453 126.797561,64.3554733 L106.660976,64.3554733 L106.660976,70.9803014 L106.660976,70.9803014 Z" id="Shape"></path>
                    <path d="M66.702439,45.1119249 L117.987805,45.1119249 C119.560976,43.8500529 122.707317,40.0644368 123.965854,38.4870968 L66.702439,38.4870968 L66.702439,45.1119249 L66.702439,45.1119249 Z" id="Shape"></path>
                    <path d="M106.660976,25.5529085 L128.056098,25.5529085 C128.056098,27.1302485 127.426829,30.9158646 126.797561,32.1777366 L106.660976,32.1777366 L106.660976,25.5529085 L106.660976,25.5529085 Z" id="Shape"></path>
                    <path d="M53.1731707,89.5929138 L119.87561,89.5929138 C113.897561,94.6404019 108.863415,96.2177419 99.4243902,96.2177419 L92.8170732,96.2177419 L53.1731707,96.2177419 L53.1731707,89.5929138 L53.1731707,89.5929138 Z" id="Shape"></path>
                    <path d="M53.1731707,6.62482813 L119.87561,6.62482813 C114.212195,1.57734003 109.178049,0 99.7390244,0 L93.1317073,0 L53.1731707,0 L53.1731707,6.62482813 L53.1731707,6.62482813 Z" id="Shape"></path>
                    <rect id="Rectangle-path" x="0" y="0" width="46.5658537" height="6.62482813"></rect>
                    <rect id="Rectangle-path" x="0" y="12.9341883" width="46.5658537" height="6.62482813"></rect>
                    <rect id="Rectangle-path" x="0" y="76.9741935" width="46.5658537" height="6.62482813"></rect>
                    <rect id="Rectangle-path" x="13.2146341" y="64.0400053" width="20.1365854" height="6.62482813"></rect>
                    <rect id="Rectangle-path" x="13.2146341" y="51.105817" width="20.1365854" height="6.62482813"></rect>
                    <rect id="Rectangle-path" x="13.2146341" y="38.4870968" width="20.1365854" height="6.62482813"></rect>
                    <rect id="Rectangle-path" x="13.2146341" y="25.5529085" width="20.1365854" height="6.62482813"></rect>
                    <rect id="Rectangle-path" x="66.702439" y="64.0400053" width="20.1365854" height="6.62482813"></rect>
                    <rect id="Rectangle-path" x="66.702439" y="25.5529085" width="20.1365854" height="6.62482813"></rect>
                    <polygon id="Shape" points="177.453659 70.9803014 196.017073 70.9803014 198.219512 64.0400053 174.936585 64.0400053"></polygon>
                    <polygon id="Shape" points="173.04878 58.0461132 200.421951 58.0461132 202.62439 51.105817 170.531707 51.105817"></polygon>
                    <rect id="Rectangle-path" x="0" y="89.5929138" width="46.5658537" height="6.62482813"></rect>
                    <polygon id="Shape" points="186.263415 96.5332099 186.892683 96.5332099 189.409756 89.5929138 184.060976 89.5929138"></polygon>
                    <rect id="Rectangle-path" x="146.619512" y="64.0400053" width="20.1365854" height="6.62482813"></rect>
                    <rect id="Rectangle-path" x="146.619512" y="51.105817" width="20.1365854" height="6.62482813"></rect>
                    <rect id="Rectangle-path" x="133.404878" y="89.5929138" width="33.3512195" height="6.62482813"></rect>
                    <rect id="Rectangle-path" x="133.404878" y="76.9741935" width="33.3512195" height="6.62482813"></rect>
                    <polygon id="Shape" points="181.858537 83.5990217 191.297561 83.5990217 193.814634 76.9741935 179.341463 76.9741935"></polygon>
                    <rect id="Rectangle-path" x="206.714634" y="64.0400053" width="20.1365854" height="6.62482813"></rect>
                    <rect id="Rectangle-path" x="206.714634" y="51.105817" width="20.1365854" height="6.62482813"></rect>
                    <rect id="Rectangle-path" x="206.714634" y="89.5929138" width="33.3512195" height="6.62482813"></rect>
                    <rect id="Rectangle-path" x="206.714634" y="76.9741935" width="33.3512195" height="6.62482813"></rect>
                    <polygon id="Shape" points="179.970732 25.5529085 146.619512 25.5529085 146.619512 32.4932047 182.487805 32.4932047"></polygon>
                    <polygon id="Shape" points="188.780488 38.4870968 186.578049 44.4809889 184.37561 38.4870968 146.619512 38.4870968 146.619512 45.1119249 166.756098 45.1119249 166.756098 39.7489688 168.643902 45.1119249 204.826829 45.1119249 206.714634 39.7489688 206.714634 40.0644368 206.714634 40.0644368 206.714634 45.1119249 226.536585 45.1119249 226.536585 38.4870968"></polygon>
                    <polygon id="Shape" points="170.846341 0 133.404878 0 133.404878 6.62482813 173.363415 6.62482813"></polygon>
                    <polygon id="Shape" points="175.565854 12.9341883 133.404878 12.9341883 133.404878 19.5590164 177.768293 19.5590164"></polygon>
                    <polygon id="Shape" points="193.185366 25.5529085 226.536585 25.5529085 226.536585 32.4932047 190.982927 32.4932047"></polygon>
                    <polygon id="Shape" points="202.309756 0 240.065854 0 240.065854 6.62482813 200.107317 6.62482813"></polygon>
                    <polygon id="Shape" points="197.904878 12.9341883 240.065854 12.9341883 240.065854 19.5590164 195.387805 19.5590164"></polygon>
                </g>
            </g>
        </g>
    </g>
</svg>