<?xml version="1.0" encoding="utf-8"?>
<!-- Generator: Adobe Illustrator 20.1.0, SVG Export Plug-In . SVG Version: 6.00 Build 0)  -->
<svg version="1.1" id="Layer_1" xmlns="http://www.w3.org/2000/svg" xmlns:xlink="http://www.w3.org/1999/xlink" x="0px" y="0px"
	 viewBox="0 0 258 96.8" enable-background="new 0 0 258 96.8" xml:space="preserve">
<g>
	<g>
		<defs>
			<path id="SVGID_1_" d="M53.2,77h73.9c0,1.6-1.6,5.7-2.2,6.6H53.2V77z"/>
		</defs>
		<use xlink:href="#SVGID_1_"  overflow="visible" fill-rule="evenodd" clip-rule="evenodd" fill="#FFFFFF"/>
		<clipPath id="SVGID_2_">
			<use xlink:href="#SVGID_1_"  overflow="visible"/>
		</clipPath>
		<rect x="48.2" y="72" clip-path="url(#SVGID_2_)" fill="#FFFFFF" width="83.9" height="16.6"/>
	</g>
	<g>
		<defs>
			<path id="SVGID_3_" d="M53.2,12.9h71.7c0.6,1.3,1.9,5.4,2.2,6.6H53.2V12.9z"/>
		</defs>
		<use xlink:href="#SVGID_3_"  overflow="visible" fill-rule="evenodd" clip-rule="evenodd" fill="#FFFFFF"/>
		<clipPath id="SVGID_4_">
			<use xlink:href="#SVGID_3_"  overflow="visible"/>
		</clipPath>
		<rect x="48.2" y="7.9" clip-path="url(#SVGID_4_)" fill="#FFFFFF" width="83.9" height="16.6"/>
	</g>
	<g>
		<defs>
			<path id="SVGID_5_" d="M66.7,51.1H118c1.6,1.3,4.7,5,6,6.6H66.7V51.1z"/>
		</defs>
		<use xlink:href="#SVGID_5_"  overflow="visible" fill-rule="evenodd" clip-rule="evenodd" fill="#FFFFFF"/>
		<clipPath id="SVGID_6_">
			<use xlink:href="#SVGID_5_"  overflow="visible"/>
		</clipPath>
		<rect x="61.7" y="46.1" clip-path="url(#SVGID_6_)" fill="#FFFFFF" width="67.3" height="16.6"/>
	</g>
	<g>
		<defs>
			<path id="SVGID_7_" d="M106.7,71h21.4c0-1.9-0.6-5.4-1.3-6.6h-20.1V71z"/>
		</defs>
		<use xlink:href="#SVGID_7_"  overflow="visible" fill-rule="evenodd" clip-rule="evenodd" fill="#FFFFFF"/>
		<clipPath id="SVGID_8_">
			<use xlink:href="#SVGID_7_"  overflow="visible"/>
		</clipPath>
		<rect x="101.7" y="59.4" clip-path="url(#SVGID_8_)" fill="#FFFFFF" width="31.4" height="16.6"/>
	</g>
	<g>
		<defs>
			<path id="SVGID_9_" d="M66.7,45.1H118c1.6-1.3,4.7-5,6-6.6H66.7V45.1z"/>
		</defs>
		<use xlink:href="#SVGID_9_"  overflow="visible" fill-rule="evenodd" clip-rule="evenodd" fill="#FFFFFF"/>
		<clipPath id="SVGID_10_">
			<use xlink:href="#SVGID_9_"  overflow="visible"/>
		</clipPath>
		<rect x="61.7" y="33.5" clip-path="url(#SVGID_10_)" fill="#FFFFFF" width="67.3" height="16.6"/>
	</g>
	<g>
		<defs>
			<path id="SVGID_11_" d="M106.7,25.6h21.4c0,1.6-0.6,5.4-1.3,6.6h-20.1V25.6z"/>
		</defs>
		<use xlink:href="#SVGID_11_"  overflow="visible" fill-rule="evenodd" clip-rule="evenodd" fill="#FFFFFF"/>
		<clipPath id="SVGID_12_">
			<use xlink:href="#SVGID_11_"  overflow="visible"/>
		</clipPath>
		<rect x="101.7" y="20.6" clip-path="url(#SVGID_12_)" fill="#FFFFFF" width="31.4" height="16.6"/>
	</g>
	<g>
		<defs>
			<path id="SVGID_13_" d="M53.2,89.6h66.7c-6,5-11,6.6-20.5,6.6h-6.6H53.2V89.6z"/>
		</defs>
		<use xlink:href="#SVGID_13_"  overflow="visible" fill-rule="evenodd" clip-rule="evenodd" fill="#FFFFFF"/>
		<clipPath id="SVGID_14_">
			<use xlink:href="#SVGID_13_"  overflow="visible"/>
		</clipPath>
		<rect x="48.2" y="84.6" clip-path="url(#SVGID_14_)" fill="#FFFFFF" width="76.7" height="16.6"/>
	</g>
	<g>
		<defs>
			<path id="SVGID_15_" d="M53.2,6.6h66.7c-5.7-5-10.7-6.6-20.1-6.6h-6.6h-40V6.6z"/>
		</defs>
		<use xlink:href="#SVGID_15_"  overflow="visible" fill-rule="evenodd" clip-rule="evenodd" fill="#FFFFFF"/>
		<clipPath id="SVGID_16_">
			<use xlink:href="#SVGID_15_"  overflow="visible"/>
		</clipPath>
		<rect x="48.2" y="-5" clip-path="url(#SVGID_16_)" fill="#FFFFFF" width="76.7" height="16.6"/>
	</g>
	<g>
		<defs>
			<rect id="SVGID_17_" width="46.6" height="6.6"/>
		</defs>
		<use xlink:href="#SVGID_17_"  overflow="visible" fill-rule="evenodd" clip-rule="evenodd" fill="#FFFFFF"/>
		<clipPath id="SVGID_18_">
			<use xlink:href="#SVGID_17_"  overflow="visible"/>
		</clipPath>
		<rect x="-5" y="-5" clip-path="url(#SVGID_18_)" fill="#FFFFFF" width="56.6" height="16.6"/>
	</g>
	<g>
		<defs>
			<rect id="SVGID_19_" y="12.9" width="46.6" height="6.6"/>
		</defs>
		<use xlink:href="#SVGID_19_"  overflow="visible" fill-rule="evenodd" clip-rule="evenodd" fill="#FFFFFF"/>
		<clipPath id="SVGID_20_">
			<use xlink:href="#SVGID_19_"  overflow="visible"/>
		</clipPath>
		<rect x="-5" y="7.9" clip-path="url(#SVGID_20_)" fill="#FFFFFF" width="56.6" height="16.6"/>
	</g>
	<g>
		<defs>
			<rect id="SVGID_21_" y="77" width="46.6" height="6.6"/>
		</defs>
		<use xlink:href="#SVGID_21_"  overflow="visible" fill-rule="evenodd" clip-rule="evenodd" fill="#FFFFFF"/>
		<clipPath id="SVGID_22_">
			<use xlink:href="#SVGID_21_"  overflow="visible"/>
		</clipPath>
		<rect x="-5" y="72" clip-path="url(#SVGID_22_)" fill="#FFFFFF" width="56.6" height="16.6"/>
	</g>
	<g>
		<defs>
			<rect id="SVGID_23_" x="13.2" y="64" width="20.1" height="6.6"/>
		</defs>
		<use xlink:href="#SVGID_23_"  overflow="visible" fill-rule="evenodd" clip-rule="evenodd" fill="#FFFFFF"/>
		<clipPath id="SVGID_24_">
			<use xlink:href="#SVGID_23_"  overflow="visible"/>
		</clipPath>
		<rect x="8.2" y="59" clip-path="url(#SVGID_24_)" fill="#FFFFFF" width="30.1" height="16.6"/>
	</g>
	<g>
		<defs>
			<rect id="SVGID_25_" x="13.2" y="51.1" width="20.1" height="6.6"/>
		</defs>
		<use xlink:href="#SVGID_25_"  overflow="visible" fill-rule="evenodd" clip-rule="evenodd" fill="#FFFFFF"/>
		<clipPath id="SVGID_26_">
			<use xlink:href="#SVGID_25_"  overflow="visible"/>
		</clipPath>
		<rect x="8.2" y="46.1" clip-path="url(#SVGID_26_)" fill="#FFFFFF" width="30.1" height="16.6"/>
	</g>
	<g>
		<defs>
			<rect id="SVGID_27_" x="13.2" y="38.5" width="20.1" height="6.6"/>
		</defs>
		<use xlink:href="#SVGID_27_"  overflow="visible" fill-rule="evenodd" clip-rule="evenodd" fill="#FFFFFF"/>
		<clipPath id="SVGID_28_">
			<use xlink:href="#SVGID_27_"  overflow="visible"/>
		</clipPath>
		<rect x="8.2" y="33.5" clip-path="url(#SVGID_28_)" fill="#FFFFFF" width="30.1" height="16.6"/>
	</g>
	<g>
		<defs>
			<rect id="SVGID_29_" x="13.2" y="25.6" width="20.1" height="6.6"/>
		</defs>
		<use xlink:href="#SVGID_29_"  overflow="visible" fill-rule="evenodd" clip-rule="evenodd" fill="#FFFFFF"/>
		<clipPath id="SVGID_30_">
			<use xlink:href="#SVGID_29_"  overflow="visible"/>
		</clipPath>
		<rect x="8.2" y="20.6" clip-path="url(#SVGID_30_)" fill="#FFFFFF" width="30.1" height="16.6"/>
	</g>
	<g>
		<defs>
			<rect id="SVGID_31_" x="66.7" y="64" width="20.1" height="6.6"/>
		</defs>
		<use xlink:href="#SVGID_31_"  overflow="visible" fill-rule="evenodd" clip-rule="evenodd" fill="#FFFFFF"/>
		<clipPath id="SVGID_32_">
			<use xlink:href="#SVGID_31_"  overflow="visible"/>
		</clipPath>
		<rect x="61.7" y="59" clip-path="url(#SVGID_32_)" fill="#FFFFFF" width="30.1" height="16.6"/>
	</g>
	<g>
		<defs>
			<rect id="SVGID_33_" x="66.7" y="25.6" width="20.1" height="6.6"/>
		</defs>
		<use xlink:href="#SVGID_33_"  overflow="visible" fill-rule="evenodd" clip-rule="evenodd" fill="#FFFFFF"/>
		<clipPath id="SVGID_34_">
			<use xlink:href="#SVGID_33_"  overflow="visible"/>
		</clipPath>
		<rect x="61.7" y="20.6" clip-path="url(#SVGID_34_)" fill="#FFFFFF" width="30.1" height="16.6"/>
	</g>
	<g>
		<defs>
			<polygon id="SVGID_35_" points="177.5,71 196,71 198.2,64 174.9,64 			"/>
		</defs>
		<use xlink:href="#SVGID_35_"  overflow="visible" fill-rule="evenodd" clip-rule="evenodd" fill="#FFFFFF"/>
		<clipPath id="SVGID_36_">
			<use xlink:href="#SVGID_35_"  overflow="visible"/>
		</clipPath>
		<rect x="169.9" y="59" clip-path="url(#SVGID_36_)" fill="#FFFFFF" width="33.3" height="16.9"/>
	</g>
	<g>
		<defs>
			<polygon id="SVGID_37_" points="173,58 200.4,58 202.6,51.1 170.5,51.1 			"/>
		</defs>
		<use xlink:href="#SVGID_37_"  overflow="visible" fill-rule="evenodd" clip-rule="evenodd" fill="#FFFFFF"/>
		<clipPath id="SVGID_38_">
			<use xlink:href="#SVGID_37_"  overflow="visible"/>
		</clipPath>
		<rect x="165.5" y="46.1" clip-path="url(#SVGID_38_)" fill="#FFFFFF" width="42.1" height="16.9"/>
	</g>
	<g>
		<defs>
			<rect id="SVGID_39_" y="89.6" width="46.6" height="6.6"/>
		</defs>
		<use xlink:href="#SVGID_39_"  overflow="visible" fill-rule="evenodd" clip-rule="evenodd" fill="#FFFFFF"/>
		<clipPath id="SVGID_40_">
			<use xlink:href="#SVGID_39_"  overflow="visible"/>
		</clipPath>
		<rect x="-5" y="84.6" clip-path="url(#SVGID_40_)" fill="#FFFFFF" width="56.6" height="16.6"/>
	</g>
	<g>
		<defs>
			<polygon id="SVGID_41_" points="186.3,96.5 186.9,96.5 189.4,89.6 184.1,89.6 			"/>
		</defs>
		<use xlink:href="#SVGID_41_"  overflow="visible" fill-rule="evenodd" clip-rule="evenodd" fill="#FFFFFF"/>
		<clipPath id="SVGID_42_">
			<use xlink:href="#SVGID_41_"  overflow="visible"/>
		</clipPath>
		<rect x="179.1" y="84.6" clip-path="url(#SVGID_42_)" fill="#FFFFFF" width="15.3" height="16.9"/>
	</g>
	<g>
		<defs>
			<rect id="SVGID_43_" x="146.6" y="64" width="20.1" height="6.6"/>
		</defs>
		<use xlink:href="#SVGID_43_"  overflow="visible" fill-rule="evenodd" clip-rule="evenodd" fill="#FFFFFF"/>
		<clipPath id="SVGID_44_">
			<use xlink:href="#SVGID_43_"  overflow="visible"/>
		</clipPath>
		<rect x="141.6" y="59" clip-path="url(#SVGID_44_)" fill="#FFFFFF" width="30.1" height="16.6"/>
	</g>
	<g>
		<defs>
			<rect id="SVGID_45_" x="146.6" y="51.1" width="20.1" height="6.6"/>
		</defs>
		<use xlink:href="#SVGID_45_"  overflow="visible" fill-rule="evenodd" clip-rule="evenodd" fill="#FFFFFF"/>
		<clipPath id="SVGID_46_">
			<use xlink:href="#SVGID_45_"  overflow="visible"/>
		</clipPath>
		<rect x="141.6" y="46.1" clip-path="url(#SVGID_46_)" fill="#FFFFFF" width="30.1" height="16.6"/>
	</g>
	<g>
		<defs>
			<rect id="SVGID_47_" x="133.4" y="89.6" width="33.4" height="6.6"/>
		</defs>
		<use xlink:href="#SVGID_47_"  overflow="visible" fill-rule="evenodd" clip-rule="evenodd" fill="#FFFFFF"/>
		<clipPath id="SVGID_48_">
			<use xlink:href="#SVGID_47_"  overflow="visible"/>
		</clipPath>
		<rect x="128.4" y="84.6" clip-path="url(#SVGID_48_)" fill="#FFFFFF" width="43.4" height="16.6"/>
	</g>
	<g>
		<defs>
			<rect id="SVGID_49_" x="133.4" y="77" width="33.4" height="6.6"/>
		</defs>
		<use xlink:href="#SVGID_49_"  overflow="visible" fill-rule="evenodd" clip-rule="evenodd" fill="#FFFFFF"/>
		<clipPath id="SVGID_50_">
			<use xlink:href="#SVGID_49_"  overflow="visible"/>
		</clipPath>
		<rect x="128.4" y="72" clip-path="url(#SVGID_50_)" fill="#FFFFFF" width="43.4" height="16.6"/>
	</g>
	<g>
		<defs>
			<polygon id="SVGID_51_" points="181.9,83.6 191.3,83.6 193.8,77 179.3,77 			"/>
		</defs>
		<use xlink:href="#SVGID_51_"  overflow="visible" fill-rule="evenodd" clip-rule="evenodd" fill="#FFFFFF"/>
		<clipPath id="SVGID_52_">
			<use xlink:href="#SVGID_51_"  overflow="visible"/>
		</clipPath>
		<rect x="174.3" y="72" clip-path="url(#SVGID_52_)" fill="#FFFFFF" width="24.5" height="16.6"/>
	</g>
	<g>
		<defs>
			<rect id="SVGID_53_" x="206.7" y="64" width="20.1" height="6.6"/>
		</defs>
		<use xlink:href="#SVGID_53_"  overflow="visible" fill-rule="evenodd" clip-rule="evenodd" fill="#FFFFFF"/>
		<clipPath id="SVGID_54_">
			<use xlink:href="#SVGID_53_"  overflow="visible"/>
		</clipPath>
		<rect x="201.7" y="59" clip-path="url(#SVGID_54_)" fill="#FFFFFF" width="30.1" height="16.6"/>
	</g>
	<g>
		<defs>
			<rect id="SVGID_55_" x="206.7" y="51.1" width="20.1" height="6.6"/>
		</defs>
		<use xlink:href="#SVGID_55_"  overflow="visible" fill-rule="evenodd" clip-rule="evenodd" fill="#FFFFFF"/>
		<clipPath id="SVGID_56_">
			<use xlink:href="#SVGID_55_"  overflow="visible"/>
		</clipPath>
		<rect x="201.7" y="46.1" clip-path="url(#SVGID_56_)" fill="#FFFFFF" width="30.1" height="16.6"/>
	</g>
	<g>
		<defs>
			<rect id="SVGID_57_" x="206.7" y="89.6" width="33.4" height="6.6"/>
		</defs>
		<use xlink:href="#SVGID_57_"  overflow="visible" fill-rule="evenodd" clip-rule="evenodd" fill="#FFFFFF"/>
		<clipPath id="SVGID_58_">
			<use xlink:href="#SVGID_57_"  overflow="visible"/>
		</clipPath>
		<rect x="201.7" y="84.6" clip-path="url(#SVGID_58_)" fill="#FFFFFF" width="43.4" height="16.6"/>
	</g>
	<g>
		<defs>
			<rect id="SVGID_59_" x="206.7" y="77" width="33.4" height="6.6"/>
		</defs>
		<use xlink:href="#SVGID_59_"  overflow="visible" fill-rule="evenodd" clip-rule="evenodd" fill="#FFFFFF"/>
		<clipPath id="SVGID_60_">
			<use xlink:href="#SVGID_59_"  overflow="visible"/>
		</clipPath>
		<rect x="201.7" y="72" clip-path="url(#SVGID_60_)" fill="#FFFFFF" width="43.4" height="16.6"/>
	</g>
	<g>
		<defs>
			<polygon id="SVGID_61_" points="180,25.6 146.6,25.6 146.6,32.5 182.5,32.5 			"/>
		</defs>
		<use xlink:href="#SVGID_61_"  overflow="visible" fill-rule="evenodd" clip-rule="evenodd" fill="#FFFFFF"/>
		<clipPath id="SVGID_62_">
			<use xlink:href="#SVGID_61_"  overflow="visible"/>
		</clipPath>
		<rect x="141.6" y="20.6" clip-path="url(#SVGID_62_)" fill="#FFFFFF" width="45.9" height="16.9"/>
	</g>
	<g>
		<defs>
			<polygon id="SVGID_63_" points="188.8,38.5 186.6,44.5 184.4,38.5 146.6,38.5 146.6,45.1 166.8,45.1 166.8,39.7 168.6,45.1 
				204.8,45.1 206.7,39.7 206.7,40.1 206.7,45.1 226.5,45.1 226.5,38.5 			"/>
		</defs>
		<use xlink:href="#SVGID_63_"  overflow="visible" fill-rule="evenodd" clip-rule="evenodd" fill="#FFFFFF"/>
		<clipPath id="SVGID_64_">
			<use xlink:href="#SVGID_63_"  overflow="visible"/>
		</clipPath>
		<rect x="141.6" y="33.5" clip-path="url(#SVGID_64_)" fill="#FFFFFF" width="89.9" height="16.6"/>
	</g>
	<g>
		<defs>
			<polygon id="SVGID_65_" points="170.8,0 133.4,0 133.4,6.6 173.4,6.6 			"/>
		</defs>
		<use xlink:href="#SVGID_65_"  overflow="visible" fill-rule="evenodd" clip-rule="evenodd" fill="#FFFFFF"/>
		<clipPath id="SVGID_66_">
			<use xlink:href="#SVGID_65_"  overflow="visible"/>
		</clipPath>
		<rect x="128.4" y="-5" clip-path="url(#SVGID_66_)" fill="#FFFFFF" width="50" height="16.6"/>
	</g>
	<g>
		<defs>
			<polygon id="SVGID_67_" points="175.6,12.9 133.4,12.9 133.4,19.6 177.8,19.6 			"/>
		</defs>
		<use xlink:href="#SVGID_67_"  overflow="visible" fill-rule="evenodd" clip-rule="evenodd" fill="#FFFFFF"/>
		<clipPath id="SVGID_68_">
			<use xlink:href="#SVGID_67_"  overflow="visible"/>
		</clipPath>
		<rect x="128.4" y="7.9" clip-path="url(#SVGID_68_)" fill="#FFFFFF" width="54.4" height="16.6"/>
	</g>
	<g>
		<defs>
			<polygon id="SVGID_69_" points="193.2,25.6 226.5,25.6 226.5,32.5 191,32.5 			"/>
		</defs>
		<use xlink:href="#SVGID_69_"  overflow="visible" fill-rule="evenodd" clip-rule="evenodd" fill="#FFFFFF"/>
		<clipPath id="SVGID_70_">
			<use xlink:href="#SVGID_69_"  overflow="visible"/>
		</clipPath>
		<rect x="186" y="20.6" clip-path="url(#SVGID_70_)" fill="#FFFFFF" width="45.6" height="16.9"/>
	</g>
	<g>
		<defs>
			<polygon id="SVGID_71_" points="202.3,0 240.1,0 240.1,6.6 200.1,6.6 			"/>
		</defs>
		<use xlink:href="#SVGID_71_"  overflow="visible" fill-rule="evenodd" clip-rule="evenodd" fill="#FFFFFF"/>
		<clipPath id="SVGID_72_">
			<use xlink:href="#SVGID_71_"  overflow="visible"/>
		</clipPath>
		<rect x="195.1" y="-5" clip-path="url(#SVGID_72_)" fill="#FFFFFF" width="50" height="16.6"/>
	</g>
	<g>
		<defs>
			<polygon id="SVGID_73_" points="197.9,12.9 240.1,12.9 240.1,19.6 195.4,19.6 			"/>
		</defs>
		<use xlink:href="#SVGID_73_"  overflow="visible" fill-rule="evenodd" clip-rule="evenodd" fill="#FFFFFF"/>
		<clipPath id="SVGID_74_">
			<use xlink:href="#SVGID_73_"  overflow="visible"/>
		</clipPath>
		<rect x="190.4" y="7.9" clip-path="url(#SVGID_74_)" fill="#FFFFFF" width="54.7" height="16.6"/>
	</g>
	<g>
		<defs>
			<path id="SVGID_75_" d="M252.3,91.2c0.9,0,2.2,0,2.2-0.9c0-0.9-0.6-0.9-1.6-0.9h-1.6v2.2h0.9V91.2z M255.2,94.3h-0.9l-1.6-2.8
				h-1.3v2.8h-0.6v-6h2.5c1.6,0,2.2,0.6,2.2,1.6c0,1.3-0.9,1.6-1.9,1.6L255.2,94.3z M257.1,91.5c0-2.5-1.9-4.7-4.4-4.7
				s-4.4,1.9-4.4,4.7c0,2.5,1.9,4.7,4.4,4.7C255.2,95.9,257.1,94,257.1,91.5z M247.3,91.5c0-2.8,2.5-5.4,5.3-5.4s5.3,2.5,5.3,5.4
				c0,2.8-2.2,5.4-5.3,5.4C249.5,96.8,247.3,94.3,247.3,91.5z"/>
		</defs>
		<use xlink:href="#SVGID_75_"  overflow="visible" fill-rule="evenodd" clip-rule="evenodd" fill="#FFFFFF"/>
		<clipPath id="SVGID_76_">
			<use xlink:href="#SVGID_75_"  overflow="visible"/>
		</clipPath>
		<rect x="242.3" y="81.1" clip-path="url(#SVGID_76_)" fill="#FFFFFF" width="20.7" height="20.7"/>
	</g>
</g>
</svg>
