<?xml version="1.0" encoding="utf-8"?>
<!-- Generator: Adobe Illustrator 21.1.0, SVG Export Plug-In . SVG Version: 6.00 Build 0)  -->
<svg version="1.1" id="Layer_1" xmlns="http://www.w3.org/2000/svg" xmlns:xlink="http://www.w3.org/1999/xlink" x="0px" y="0px"
	 viewBox="0 0 60 64" style="enable-background:new 0 0 60 64;" xml:space="preserve">
<style type="text/css">
	.st0{fill:#FFFFFF;}
</style>
<path class="st0" d="M18.9,38c0,1.5,0.2,2.9,0.7,4.2c0.5,1.2,1.1,2.3,2,3.3s1.8,1.8,2.9,2.5c1.1,0.7,2.3,1.3,3.6,1.7
	c1.3,0.5,2.6,0.8,3.9,1c1.4,0.2,2.7,0.3,4,0.3c1.7,0,3.3-0.1,4.8-0.4c1.5-0.3,3-0.7,4.4-1.1s2.8-1,4.2-1.7c1.4-0.6,2.8-1.3,4.3-2.1
	v13.6c-1.6,0.8-3.2,1.5-4.8,2c-1.6,0.6-3.2,1-4.8,1.4c-1.6,0.4-3.3,0.7-5,0.9S35.7,64,33.9,64c-2.4,0-4.7-0.3-7-0.8
	s-4.3-1.3-6.3-2.4s-3.8-2.3-5.4-3.8c-1.6-1.5-3-3.2-4.2-5S9,48.1,8.4,46c-0.6-2.2-0.9-4.5-0.9-7c0-2.6,0.4-5.1,1.1-7.5
	c0.7-2.4,1.8-4.6,3.1-6.6c1.4-2,3-3.8,4.9-5.3s4.1-2.8,6.6-3.8c-1.3,1.3-2.4,2.9-3.1,4.7c-0.8,1.8-1.2,3.6-1.4,5.5h22.8
	c0-2.3-0.2-4.3-0.7-6s-1.2-3.1-2.3-4.3c-1-1.1-2.4-2-4-2.6c-1.7-0.6-3.6-0.9-6-0.9c-2.8,0-5.5,0.4-8.2,1.2c-2.8,0.8-5.4,1.9-7.8,3.4
	c-2.5,1.5-4.8,3.2-6.8,5.2c-2.1,2-3.8,4.1-5.2,6.5c0.3-2.7,0.9-5.3,1.7-7.8s1.9-4.8,3.2-6.9c1.3-2.1,2.9-4,4.6-5.7s3.7-3.2,5.9-4.4
	s4.5-2.2,7-2.8c2.5-0.6,5.2-0.9,8-0.9c1.6,0,3.3,0.2,4.9,0.4c1.6,0.3,3.2,0.7,4.8,1.2c3.1,1.1,5.8,2.5,8.2,4.4
	c2.4,1.9,4.5,4.1,6.1,6.5s2.9,5.2,3.8,8.2s1.3,6.1,1.3,9.3V38C59.8,38,18.9,38,18.9,38z"/>
</svg>
