<?xml version="1.0" encoding="utf-8"?>
<!-- Generator: Adobe Illustrator 21.1.0, SVG Export Plug-In . SVG Version: 6.00 Build 0)  -->
<svg version="1.1" id="Layer_1" xmlns="http://www.w3.org/2000/svg" xmlns:xlink="http://www.w3.org/1999/xlink" x="0px" y="0px"
	 viewBox="0 0 629.924 78.74" enable-background="new 0 0 629.924 78.74" xml:space="preserve">
<g>
	<g>
		<defs>
			<path id="SVGID_1_" d="M629.924,59.767h-16.688v17.076h16.688V59.767z M607.014,2.003h-15.645v74.84h15.645V2.003z
				 M560.429,32.466c-6.78,0-10.639,4.427-12.099,10.435h23.259C570.963,36.471,567.209,32.466,560.429,32.466z M562.411,65.248
				c6.049,0,9.804-2.108,15.541-6.957l8.552,9.908c-8.135,7.906-15.854,10.435-24.511,10.435c-17.94,0-29.1-11.384-29.1-28.987
				c0-16.76,10.117-29.514,27.849-29.514c16.897,0,25.762,10.646,25.762,27.828c0,2.003-0.104,4.849-0.208,6.008h-38.279
				C549.477,60.821,554.275,65.248,562.411,65.248z M501.431,65.143c7.197,0,12.307-6.219,12.307-15.601
				c0-9.698-5.424-15.495-12.203-15.495c-7.197,0-12.412,5.903-12.412,15.495C489.124,58.924,493.817,65.143,501.431,65.143z
				 M513.217,2.003h15.645v74.84h-14.498v-6.641c-3.546,5.165-9.074,8.327-17.001,8.327c-13.872,0-23.989-11.173-23.989-28.987
				c0-18.025,10.221-29.093,24.094-29.093c7.092,0,12.203,2.424,15.749,6.535V2.003z M442.642,33.52
				c-7.614,0-12.829,6.219-12.829,15.811c0,9.908,5.215,15.917,12.829,15.917c7.51,0,12.725-6.008,12.725-15.917
				C455.367,39.739,450.152,33.52,442.642,33.52z M442.642,20.133c16.688,0,28.579,11.806,28.579,29.198
				c0,17.498-11.89,29.304-28.579,29.304c-16.793,0-28.683-11.806-28.683-29.304C413.959,31.939,425.85,20.133,442.642,20.133z
				 M382.289,2.003l-8.762,29.304c-2.294,7.8-4.485,15.706-6.258,23.085c-1.773-7.273-3.964-15.073-6.363-23.085l-8.866-29.304
				h-26.388v74.84h16.167V38.58c0-7.695-0.104-15.073-0.313-22.558c1.878,6.957,4.172,13.703,6.78,22.663l11.578,38.158h14.602
				l11.369-38.158c2.712-8.96,4.485-15.601,6.362-22.768c-0.208,7.484-0.313,14.968-0.313,22.768v38.158h16.375V2.003H382.289z
				 M277.398,65.248c4.902,0,8.344-2.003,12.308-5.797l-13.142-15.179c-6.675,4.006-9.909,6.957-9.909,12.122
				C266.655,61.348,270.723,65.248,277.398,65.248z M283.135,11.279c-3.963,0-6.78,2.846-6.78,6.852c0,2.951,2.19,6.008,5.528,9.908
				c6.154-3.479,8.24-6.114,8.24-10.014C290.123,14.019,287.098,11.279,283.135,11.279z M323.917,76.843h-19.192l-5.945-6.852
				c-6.049,5.481-12.829,8.538-22.633,8.538c-15.019,0-25.345-8.222-25.345-20.449c0-10.014,5.945-16.655,17.731-23.295
				c-3.859-5.06-6.571-10.119-6.571-15.917C261.962,7.695,271.349,0,283.031,0C295.755,0,304.1,7.589,304.1,17.92
				c0,8.644-4.172,13.387-13.976,19.711l9.074,10.541l9.804-11.911l10.952,8.538l-11.369,14.23L323.917,76.843z M221.843,32.466
				c-6.78,0-10.639,4.427-12.099,10.435h23.259C232.377,36.471,228.622,32.466,221.843,32.466z M223.824,65.248
				c6.049,0,9.804-2.108,15.541-6.957l8.553,9.908c-8.136,7.906-15.854,10.435-24.511,10.435c-17.94,0-29.1-11.384-29.1-28.987
				c0-16.76,10.117-29.514,27.849-29.514c16.897,0,25.763,10.646,25.763,27.828c0,2.003-0.104,4.849-0.209,6.008h-38.279
				C210.891,60.821,215.689,65.248,223.824,65.248z M182.141,76.843l-14.289-24.139l-6.78,7.062v17.076h-15.645V2.003h15.645V42.48
				l18.774-20.449h18.566L178.907,42.48l20.652,34.363H182.141z M111.148,66.408c5.945,0,13.142-2.741,13.142-11.911v-2.108
				l-8.97,1.687c-7.823,1.476-11.786,3.584-11.786,7.484C103.534,64.405,106.246,66.408,111.148,66.408z M115.008,20.133
				c16.167,0,24.094,8.222,24.094,20.133v36.577h-14.081v-5.481c-3.129,4.322-8.553,7.379-17.21,7.379
				c-10.534,0-19.296-4.743-19.296-15.917c0-12.333,10.013-17.076,23.364-19.29l12.412-2.108v-0.632c0-5.06-3.546-7.695-9.074-7.695
				c-7.405,0-11.473,4.006-16.584,8.749l-9.909-9.065C95.92,24.56,104.16,20.133,115.008,20.133z M56.636,2.003l-8.761,29.304
				c-2.295,7.8-4.485,15.706-6.258,23.085c-1.773-7.273-3.963-15.073-6.362-23.085L26.388,2.003H0v74.84h16.167V38.58
				c0-7.695-0.104-15.073-0.313-22.558c1.877,6.957,4.172,13.703,6.78,22.663l11.577,38.158h14.602l11.369-38.158
				c2.712-8.96,4.485-15.601,6.362-22.768c-0.209,7.484-0.313,14.968-0.313,22.768v38.158h16.375V2.003H56.636z"/>
		</defs>
		<clipPath id="SVGID_2_">
			<use xlink:href="#SVGID_1_"  overflow="visible"/>
		</clipPath>
		<g clip-path="url(#SVGID_2_)">
			<defs>
				<rect id="SVGID_3_" x="-554.333" y="-456.695" width="4535.452" height="12617.375"/>
			</defs>
			<clipPath id="SVGID_4_">
				<use xlink:href="#SVGID_3_"  overflow="visible"/>
			</clipPath>
		</g>
	</g>
	<g>
		<defs>
			<path id="SVGID_5_" d="M629.924,59.767h-16.688v17.076h16.688V59.767z M607.014,2.003h-15.645v74.84h15.645V2.003z
				 M560.429,32.466c-6.78,0-10.639,4.427-12.099,10.435h23.259C570.963,36.471,567.209,32.466,560.429,32.466z M562.411,65.248
				c6.049,0,9.804-2.108,15.541-6.957l8.552,9.908c-8.135,7.906-15.854,10.435-24.511,10.435c-17.94,0-29.1-11.384-29.1-28.987
				c0-16.76,10.117-29.514,27.849-29.514c16.897,0,25.762,10.646,25.762,27.828c0,2.003-0.104,4.849-0.208,6.008h-38.279
				C549.477,60.821,554.275,65.248,562.411,65.248z M501.431,65.143c7.197,0,12.307-6.219,12.307-15.601
				c0-9.698-5.424-15.495-12.203-15.495c-7.197,0-12.412,5.903-12.412,15.495C489.124,58.924,493.817,65.143,501.431,65.143z
				 M513.217,2.003h15.645v74.84h-14.498v-6.641c-3.546,5.165-9.074,8.327-17.001,8.327c-13.872,0-23.989-11.173-23.989-28.987
				c0-18.025,10.221-29.093,24.094-29.093c7.092,0,12.203,2.424,15.749,6.535V2.003z M442.642,33.52
				c-7.614,0-12.829,6.219-12.829,15.811c0,9.908,5.215,15.917,12.829,15.917c7.51,0,12.725-6.008,12.725-15.917
				C455.367,39.739,450.152,33.52,442.642,33.52z M442.642,20.133c16.688,0,28.579,11.806,28.579,29.198
				c0,17.498-11.89,29.304-28.579,29.304c-16.793,0-28.683-11.806-28.683-29.304C413.959,31.939,425.85,20.133,442.642,20.133z
				 M382.289,2.003l-8.762,29.304c-2.294,7.8-4.485,15.706-6.258,23.085c-1.773-7.273-3.964-15.073-6.363-23.085l-8.866-29.304
				h-26.388v74.84h16.167V38.58c0-7.695-0.104-15.073-0.313-22.558c1.878,6.957,4.172,13.703,6.78,22.663l11.578,38.158h14.602
				l11.369-38.158c2.712-8.96,4.485-15.601,6.362-22.768c-0.208,7.484-0.313,14.968-0.313,22.768v38.158h16.375V2.003H382.289z
				 M277.398,65.248c4.902,0,8.344-2.003,12.308-5.797l-13.142-15.179c-6.675,4.006-9.909,6.957-9.909,12.122
				C266.655,61.348,270.723,65.248,277.398,65.248z M283.135,11.279c-3.963,0-6.78,2.846-6.78,6.852c0,2.951,2.19,6.008,5.528,9.908
				c6.154-3.479,8.24-6.114,8.24-10.014C290.123,14.019,287.098,11.279,283.135,11.279z M323.917,76.843h-19.192l-5.945-6.852
				c-6.049,5.481-12.829,8.538-22.633,8.538c-15.019,0-25.345-8.222-25.345-20.449c0-10.014,5.945-16.655,17.731-23.295
				c-3.859-5.06-6.571-10.119-6.571-15.917C261.962,7.695,271.349,0,283.031,0C295.755,0,304.1,7.589,304.1,17.92
				c0,8.644-4.172,13.387-13.976,19.711l9.074,10.541l9.804-11.911l10.952,8.538l-11.369,14.23L323.917,76.843z M221.843,32.466
				c-6.78,0-10.639,4.427-12.099,10.435h23.259C232.377,36.471,228.622,32.466,221.843,32.466z M223.824,65.248
				c6.049,0,9.804-2.108,15.541-6.957l8.553,9.908c-8.136,7.906-15.854,10.435-24.511,10.435c-17.94,0-29.1-11.384-29.1-28.987
				c0-16.76,10.117-29.514,27.849-29.514c16.897,0,25.763,10.646,25.763,27.828c0,2.003-0.104,4.849-0.209,6.008h-38.279
				C210.891,60.821,215.689,65.248,223.824,65.248z M182.141,76.843l-14.289-24.139l-6.78,7.062v17.076h-15.645V2.003h15.645V42.48
				l18.774-20.449h18.566L178.907,42.48l20.652,34.363H182.141z M111.148,66.408c5.945,0,13.142-2.741,13.142-11.911v-2.108
				l-8.97,1.687c-7.823,1.476-11.786,3.584-11.786,7.484C103.534,64.405,106.246,66.408,111.148,66.408z M115.008,20.133
				c16.167,0,24.094,8.222,24.094,20.133v36.577h-14.081v-5.481c-3.129,4.322-8.553,7.379-17.21,7.379
				c-10.534,0-19.296-4.743-19.296-15.917c0-12.333,10.013-17.076,23.364-19.29l12.412-2.108v-0.632c0-5.06-3.546-7.695-9.074-7.695
				c-7.405,0-11.473,4.006-16.584,8.749l-9.909-9.065C95.92,24.56,104.16,20.133,115.008,20.133z M56.636,2.003l-8.761,29.304
				c-2.295,7.8-4.485,15.706-6.258,23.085c-1.773-7.273-3.963-15.073-6.362-23.085L26.388,2.003H0v74.84h16.167V38.58
				c0-7.695-0.104-15.073-0.313-22.558c1.877,6.957,4.172,13.703,6.78,22.663l11.577,38.158h14.602l11.369-38.158
				c2.712-8.96,4.485-15.601,6.362-22.768c-0.209,7.484-0.313,14.968-0.313,22.768v38.158h16.375V2.003H56.636z"/>
		</defs>
		<use xlink:href="#SVGID_5_"  overflow="visible" fill-rule="evenodd" clip-rule="evenodd" fill="#FFFFFF"/>
		<clipPath id="SVGID_6_">
			<use xlink:href="#SVGID_5_"  overflow="visible"/>
		</clipPath>
		<g clip-path="url(#SVGID_6_)">
			<defs>
				<rect id="SVGID_7_" x="-554.333" y="-456.695" width="4535.452" height="12617.375"/>
			</defs>
			<use xlink:href="#SVGID_7_"  overflow="visible" fill="#FFFFFF"/>
			<clipPath id="SVGID_8_">
				<use xlink:href="#SVGID_7_"  overflow="visible"/>
			</clipPath>
			<rect x="-15.748" y="-15.748" clip-path="url(#SVGID_8_)" fill="#FFFFFF" width="661.42" height="110.237"/>
		</g>
	</g>
	<g>
		<defs>
			<path id="SVGID_9_" d="M629.924,59.767h-16.688v17.076h16.688V59.767z M607.014,2.003h-15.645v74.84h15.645V2.003z
				 M560.429,32.466c-6.78,0-10.639,4.427-12.099,10.435h23.259C570.963,36.471,567.209,32.466,560.429,32.466z M562.411,65.248
				c6.049,0,9.804-2.108,15.541-6.957l8.552,9.908c-8.135,7.906-15.854,10.435-24.511,10.435c-17.94,0-29.1-11.384-29.1-28.987
				c0-16.76,10.117-29.514,27.849-29.514c16.897,0,25.762,10.646,25.762,27.828c0,2.003-0.104,4.849-0.208,6.008h-38.279
				C549.477,60.821,554.275,65.248,562.411,65.248z M501.431,65.143c7.197,0,12.307-6.219,12.307-15.601
				c0-9.698-5.424-15.495-12.203-15.495c-7.197,0-12.412,5.903-12.412,15.495C489.124,58.924,493.817,65.143,501.431,65.143z
				 M513.217,2.003h15.645v74.84h-14.498v-6.641c-3.546,5.165-9.074,8.327-17.001,8.327c-13.872,0-23.989-11.173-23.989-28.987
				c0-18.025,10.221-29.093,24.094-29.093c7.092,0,12.203,2.424,15.749,6.535V2.003z M442.642,33.52
				c-7.614,0-12.829,6.219-12.829,15.811c0,9.908,5.215,15.917,12.829,15.917c7.51,0,12.725-6.008,12.725-15.917
				C455.367,39.739,450.152,33.52,442.642,33.52z M442.642,20.133c16.688,0,28.579,11.806,28.579,29.198
				c0,17.498-11.89,29.304-28.579,29.304c-16.793,0-28.683-11.806-28.683-29.304C413.959,31.939,425.85,20.133,442.642,20.133z
				 M382.289,2.003l-8.762,29.304c-2.294,7.8-4.485,15.706-6.258,23.085c-1.773-7.273-3.964-15.073-6.363-23.085l-8.866-29.304
				h-26.388v74.84h16.167V38.58c0-7.695-0.104-15.073-0.313-22.558c1.878,6.957,4.172,13.703,6.78,22.663l11.578,38.158h14.602
				l11.369-38.158c2.712-8.96,4.485-15.601,6.362-22.768c-0.208,7.484-0.313,14.968-0.313,22.768v38.158h16.375V2.003H382.289z
				 M277.398,65.248c4.902,0,8.344-2.003,12.308-5.797l-13.142-15.179c-6.675,4.006-9.909,6.957-9.909,12.122
				C266.655,61.348,270.723,65.248,277.398,65.248z M283.135,11.279c-3.963,0-6.78,2.846-6.78,6.852c0,2.951,2.19,6.008,5.528,9.908
				c6.154-3.479,8.24-6.114,8.24-10.014C290.123,14.019,287.098,11.279,283.135,11.279z M323.917,76.843h-19.192l-5.945-6.852
				c-6.049,5.481-12.829,8.538-22.633,8.538c-15.019,0-25.345-8.222-25.345-20.449c0-10.014,5.945-16.655,17.731-23.295
				c-3.859-5.06-6.571-10.119-6.571-15.917C261.962,7.695,271.349,0,283.031,0C295.755,0,304.1,7.589,304.1,17.92
				c0,8.644-4.172,13.387-13.976,19.711l9.074,10.541l9.804-11.911l10.952,8.538l-11.369,14.23L323.917,76.843z M221.843,32.466
				c-6.78,0-10.639,4.427-12.099,10.435h23.259C232.377,36.471,228.622,32.466,221.843,32.466z M223.824,65.248
				c6.049,0,9.804-2.108,15.541-6.957l8.553,9.908c-8.136,7.906-15.854,10.435-24.511,10.435c-17.94,0-29.1-11.384-29.1-28.987
				c0-16.76,10.117-29.514,27.849-29.514c16.897,0,25.763,10.646,25.763,27.828c0,2.003-0.104,4.849-0.209,6.008h-38.279
				C210.891,60.821,215.689,65.248,223.824,65.248z M182.141,76.843l-14.289-24.139l-6.78,7.062v17.076h-15.645V2.003h15.645V42.48
				l18.774-20.449h18.566L178.907,42.48l20.652,34.363H182.141z M111.148,66.408c5.945,0,13.142-2.741,13.142-11.911v-2.108
				l-8.97,1.687c-7.823,1.476-11.786,3.584-11.786,7.484C103.534,64.405,106.246,66.408,111.148,66.408z M115.008,20.133
				c16.167,0,24.094,8.222,24.094,20.133v36.577h-14.081v-5.481c-3.129,4.322-8.553,7.379-17.21,7.379
				c-10.534,0-19.296-4.743-19.296-15.917c0-12.333,10.013-17.076,23.364-19.29l12.412-2.108v-0.632c0-5.06-3.546-7.695-9.074-7.695
				c-7.405,0-11.473,4.006-16.584,8.749l-9.909-9.065C95.92,24.56,104.16,20.133,115.008,20.133z M56.636,2.003l-8.761,29.304
				c-2.295,7.8-4.485,15.706-6.258,23.085c-1.773-7.273-3.963-15.073-6.362-23.085L26.388,2.003H0v74.84h16.167V38.58
				c0-7.695-0.104-15.073-0.313-22.558c1.877,6.957,4.172,13.703,6.78,22.663l11.577,38.158h14.602l11.369-38.158
				c2.712-8.96,4.485-15.601,6.362-22.768c-0.209,7.484-0.313,14.968-0.313,22.768v38.158h16.375V2.003H56.636z"/>
		</defs>
		<clipPath id="SVGID_10_">
			<use xlink:href="#SVGID_9_"  overflow="visible"/>
		</clipPath>
		<g clip-path="url(#SVGID_10_)">
			<defs>
				<rect id="SVGID_11_" x="-554.333" y="-456.695" width="4535.452" height="12617.375"/>
			</defs>
			<clipPath id="SVGID_12_">
				<use xlink:href="#SVGID_11_"  overflow="visible"/>
			</clipPath>
		</g>
	</g>
</g>
</svg>
