<svg id="Layer_1" data-name="Layer 1" xmlns="http://www.w3.org/2000/svg" viewBox="0 0 22.52 35.27"><defs><style>.cls-1{fill:none;}.cls-2{fill:#fff;}</style></defs><title>MM</title><polygon class="cls-1" points="10.88 29.16 8.16 24.97 5.94 24.97 9.91 31.07 10.88 29.16"/><rect class="cls-1" x="14.6" y="24.76" width="2.4" height="9.58"/><rect class="cls-1" x="14.6" y="0.92" width="2.4" height="9.58"/><polygon class="cls-1" points="5.94 1.13 9.91 7.24 10.88 5.32 8.16 1.13 5.94 1.13"/><path class="cls-2" d="M13.68,23.84h-1v.92h.68l-2,3.57L9.13,24.76h.72v-.92H3.68v.92h.94v9.58h-1v.92H6.53v-.92h-1V26.06L10,32.92l.36-.72,3.3-6v8.16h-1v.92h6.16v-.92h-1V24.76h1v-.92H13.68ZM8.16,25l2.72,4.19-1,1.92L5.94,25ZM17,34.34H14.6V24.76H17Z"/><path class="cls-2" d="M6.53,10.51h-1V2.23L10,9.09l.36-.72,3.29-6v8.17h-1v.92h6.16v-.92h-1V.92h1V0H12.72V.92h.68l-2,3.57L9.13.92h.72V0H3.68V.92h.94v9.58h-1v.92H6.53Zm10.47,0H14.6V.92H17ZM9.92,7.24l-4-6.11H8.16l2.72,4.19Z"/><rect class="cls-2" y="16.72" width="22.52" height="0.92"/></svg>