<?xml version="1.0" encoding="utf-8"?>
<!-- Generator: Adobe Illustrator 22.1.0, SVG Export Plug-In . SVG Version: 6.00 Build 0)  -->
<svg version="1.1" id="Layer_1" xmlns="http://www.w3.org/2000/svg" xmlns:xlink="http://www.w3.org/1999/xlink" x="0px" y="0px"
	 viewBox="0 0 181.4 21" style="enable-background:new 0 0 181.4 21;" xml:space="preserve">
<style type="text/css">
	.st0{fill:#FFFFFF;}
</style>
<desc>Created by HiQPdf</desc>
<g>
	<g transform="matrix(1,0,0,1,0,0)">
	</g>
	<g transform="matrix(1,0,0,1,0,0)">
	</g>
	<g transform="matrix(1,0,0,1,0,0)">
	</g>
	<g transform="matrix(1,0,0,1,0,0)">
	</g>
	<g transform="matrix(0.999948,0,0,0.999948,8,8.00054)">
	</g>
	<g transform="matrix(0.999948,0,0,0.999948,8,8.00054)">
		<path vector-effect="none" class="st0" d="M-8-3h4v2.4h0.1c0.8-1.8,2.7-3,4.7-2.8c2.1-0.1,4,1.1,4.7,3.1h0.1
			c0.9-1.9,2.9-3.1,5.1-3.1c3,0,5.4,2,5.4,6.2v9.8H12V3.7c0-2-0.9-3.2-2.8-3.2S6,1.5,6,4.6v7.8H2V3.5c0-2-0.9-3.2-2.8-3.2
			S-4,1.4-4,4.6v7.8h-4V-3"/>
	</g>
	<g transform="matrix(0.999948,0,0,0.999948,8,8.00054)">
	</g>
	<g transform="matrix(0.999948,0,0,0.999948,8,8.00054)">
		<path vector-effect="none" class="st0" d="M18.3,4.8c0-5.3,3.4-8.2,7.4-8.2c2.1-0.1,4.1,0.9,5.1,2.7h0.1V-3H35v15.5h-4.1v-2.2
			h-0.1c-1.1,1.8-3.1,2.8-5.1,2.7C21.7,13,18.3,10,18.3,4.8 M30.9,4.8c0.1-2.3-1.7-4.3-4-4.4c-2.3-0.1-4.3,1.7-4.4,4
			c0,0.1,0,0.3,0,0.4c-0.1,2.3,1.7,4.3,4,4.4c2.3,0.1,4.3-1.7,4.4-4C30.9,5,30.9,4.9,30.9,4.8"/>
	</g>
	<g transform="matrix(0.999948,0,0,0.999948,8,8.00054)">
	</g>
	<g transform="matrix(0.999948,0,0,0.999948,8,8.00054)">
		<path vector-effect="none" class="st0" d="M47.8,12.5L42,5.1v7.3h-4.1V-8H42V3.4L47.1-3h5.2L46,4l7.1,8.4L47.8,12.5"/>
	</g>
	<g transform="matrix(0.999948,0,0,0.999948,8,8.00054)">
	</g>
	<g transform="matrix(0.999948,0,0,0.999948,8,8.00054)">
		<path vector-effect="none" class="st0" d="M67.9,4.8v0.8H56.4c0.1,2.2,2,3.9,4.2,3.7h0.1c1.8,0,3.4-0.8,4.6-2.1l2.1,3
			C65.7,12,63.3,13,60.8,13c-5,0-8.3-3.3-8.3-8.2s3.2-8.2,8-8.2C65.1-3.5,67.9-0.5,67.9,4.8 M56.5,2.9h7.3c-0.1-1.8-1.5-3.2-3.3-3.1
			c-0.1,0-0.1,0-0.2,0C58.4-0.3,56.7,1.1,56.5,2.9"/>
	</g>
	<g transform="matrix(0.999948,0,0,0.999948,8,8.00054)">
	</g>
	<g transform="matrix(0.999948,0,0,0.999948,8,8.00054)">
		<path vector-effect="none" class="st0" d="M80.8-3.3C79.6-3.8,78.3-4,77-4c-2.6,0-4.2,1.6-4.2,3.7c0,0.9,0.3,1.8,0.7,2.5
			c-2.1,0.8-3.4,2.8-3.3,5c0,3.3,2.3,5.4,5.9,5.4c1.5,0,2.9-0.4,4.1-1.2l0.7,0.9H85l-2.4-3.4c0.8-1.2,1.5-2.4,2.1-3.7l0.2-0.3
			l-3-1.5l-0.2,0.4c-0.4,0.8-0.8,1.6-1.2,2.3l-3.6-4.9c-0.3-0.4-0.5-0.8-0.6-1.2c0-0.2,0.1-0.7,0.9-0.7c0.9,0,1.8,0.2,2.7,0.5
			L80.8-3.3 M73.7,7c-0.1-1.1,0.5-2.1,1.5-2.6l3.2,4.4c-0.6,0.4-1.3,0.6-2.1,0.6C74.9,9.5,73.7,8.4,73.7,7"/>
	</g>
	<g transform="matrix(0.999948,0,0,0.999948,8,8.00054)">
	</g>
	<g transform="matrix(0.999948,0,0,0.999948,8,8.00054)">
		<path vector-effect="none" class="st0" d="M87.4-3h4v2.4h0.1c0.8-1.8,2.7-3,4.7-2.8c2.1-0.1,4,1.1,4.8,3.1h0.1
			c0.9-1.9,2.9-3.1,5-3.1c3,0,5.4,2,5.4,6.2v9.8h-4.1V3.7c0-2-0.9-3.2-2.8-3.2s-3.1,1.1-3.1,4.3v7.9h-4V3.8c0-2-0.9-3.2-2.8-3.2
			c-1.9,0-3.1,1.1-3.1,4.3v7.8h-4.1L87.4-3L87.4-3"/>
	</g>
	<g transform="matrix(0.999948,0,0,0.999948,8,8.00054)">
	</g>
	<g transform="matrix(0.999948,0,0,0.999948,8,8.00054)">
		<path vector-effect="none" class="st0" d="M130.9,4.8c0,4.8-3.6,8.2-8.6,8.2s-8.6-3.4-8.6-8.2s3.6-8.2,8.6-8.2
			S130.9-0.1,130.9,4.8 M118,4.8c0,2.4,1.9,4.3,4.3,4.3c2.4,0,4.3-1.9,4.3-4.3s-1.9-4.3-4.3-4.3C119.9,0.4,118,2.4,118,4.8
			C118,4.7,118,4.7,118,4.8"/>
	</g>
	<g transform="matrix(0.999948,0,0,0.999948,8,8.00054)">
	</g>
	<g transform="matrix(0.999948,0,0,0.999948,8,8.00054)">
		<path vector-effect="none" class="st0" d="M132.6,4.8c0-5.3,3.4-8.2,7.4-8.2c2.1-0.1,4.1,0.9,5.1,2.7h0.1V-8h4.1v20.5h-4.1v-2.2
			h-0.1c-1.1,1.8-3.1,2.8-5.1,2.7C136,13,132.6,10,132.6,4.8 M145.3,4.8c0.1-2.3-1.7-4.3-4-4.4c-2.3-0.1-4.3,1.7-4.4,4
			c0,0.1,0,0.3,0,0.4c-0.1,2.3,1.7,4.3,4,4.4c2.3,0.1,4.3-1.7,4.4-4C145.3,5,145.3,4.9,145.3,4.8"/>
	</g>
	<g transform="matrix(0.999948,0,0,0.999948,8,8.00054)">
	</g>
	<g transform="matrix(0.999948,0,0,0.999948,8,8.00054)">
		<path vector-effect="none" class="st0" d="M167,4.8v0.8h-11.5c0.1,2.2,2,3.9,4.2,3.7h0.1c1.8,0,3.4-0.8,4.6-2.1l2.1,3
			c-1.8,1.8-4.2,2.8-6.7,2.8c-5,0-8.3-3.3-8.3-8.2s3.2-8.2,8-8.2C164.2-3.5,167-0.5,167,4.8 M155.6,2.9h7.3
			c-0.1-1.8-1.5-3.2-3.3-3.1c-0.1,0-0.1,0-0.2,0C157.5-0.3,155.8,1.1,155.6,2.9"/>
	</g>
	<g transform="matrix(0.999948,0,0,0.999948,8,8.00054)">
	</g>
	<g transform="matrix(0.999948,0,0,0.999948,8,8.00054)">
		<path vector-effect="none" class="st0" d="M173.4,12.5h-4.1V-8h4.1V12.5"/>
	</g>
	<g transform="matrix(0.999948,0,0,0.999948,8,8.00054)">
	</g>
	<g transform="matrix(0.999948,0,0,0.999948,8,8.00054)">
	</g>
	<g transform="matrix(1,0,0,1,0,0)">
	</g>
	<g transform="matrix(1,0,0,1,0,0)">
	</g>
	<g transform="matrix(1,0,0,1,0,0)">
	</g>
	<g transform="matrix(1,0,0,1,0,0)">
	</g>
	<g transform="matrix(1,0,0,1,0,0)">
	</g>
	<g transform="matrix(1,0,0,1,0,0)">
	</g>
</g>
</svg>
