<?xml version="1.0" encoding="utf-8"?>
<!-- Generator: Adobe Illustrator 20.1.0, SVG Export Plug-In . SVG Version: 6.00 Build 0)  -->
<svg version="1.1" id="Layer_1" xmlns="http://www.w3.org/2000/svg" xmlns:xlink="http://www.w3.org/1999/xlink" x="0px" y="0px"
	 viewBox="0 0 629.6 97.9" enable-background="new 0 0 629.6 97.9" xml:space="preserve">
<g>
	<path fill="#FFFFFF" d="M0,96.5V1.3h17.2l19.9,40.1L55.4,1.3h17.1v95.2H53.6V44L37,79.1h-0.7L19,44v52.5H0z"/>
	<path fill="#FFFFFF" d="M96.5,96.5H76.7l23.4-95.2h18.1l25.5,95.2h-21.3L120,86.5H98.5L96.5,96.5z M108.7,35.8l-6.8,33.6h14.3
		l-7.4-33.6H108.7z"/>
	<path fill="#FFFFFF" d="M205.3,1.3L183,51.5l23,45h-22.4l-18.1-40.9v40.9h-19V1.3h19v45.4L185,1.3H205.3z"/>
	<path fill="#FFFFFF" d="M210,1.3h42.7v17.1H229v20.3h24v17.1h-24v23.7h25.7v17.1H210V1.3z"/>
	<path fill="#FFFFFF" d="M297.2,34.7c3.2-1.9,3.8-3.9,3.8-5.9c0-3.6-2.1-6.7-6.2-6.7c-3.3,0-6.4,2.1-6.4,7.8c0,4.4,1.3,7.6,4.2,11.9
		l16,24.7c1.1-3.8,1.6-8.4,1.6-13.8h15.8c0,9.8-2.7,19.8-8.1,27.9l10.4,16h-20.5l-2.7-3.8c-5.6,3.3-12.3,5.1-20.1,5.1
		c-15.6,0-26.7-10.6-26.7-26c0-12.5,7.3-20.7,16-26c-2.7-5.8-4.1-11.6-4.1-17.1c0-11,7.3-22.4,24.1-22.4c17.5,0,23.2,12,23.2,21
		c0,8.2-4.9,14.2-14.2,18L297.2,34.7z M288.8,82.2c2.9,0,5.7-0.4,8.2-1.3l-14.4-21.2c-3.4,2.8-5.7,6.5-5.7,11
		C276.9,76.8,281.5,82.2,288.8,82.2z"/>
	<path fill="#FFFFFF" d="M333.9,96.5V1.3h17.2L371,41.5l18.3-40.1h17.1v95.2h-18.9V44l-16.6,35.1h-0.7L353,44v52.5H333.9z"/>
	<path fill="#FFFFFF" d="M471.6,48.9c0,33.4-11.9,49-30.8,49c-18.9,0-29.6-15.8-29.6-48.2c0-32.1,10.7-49.7,30.1-49.7
		C459.8,0,471.6,15.8,471.6,48.9z M430.7,48.8c0,25.1,4.5,32,10.6,32c6.2,0,10.8-7,10.8-32.1c0-25.6-4.9-31.5-10.8-31.5
		C435.4,17.1,430.7,23,430.7,48.8z"/>
	<path fill="#FFFFFF" d="M476.2,1.3h21.1c23.4,0,38.1,16.7,38.1,47.2c0,29.4-13.5,48-37.5,48h-21.7V1.3z M495.2,17.3v63.1
		c14.2,0,20.6-12.9,20.6-31.5C515.9,30.7,509.8,17.3,495.2,17.3z"/>
	<path fill="#FFFFFF" d="M541,1.3h42.7v17.1H560v20.3h24v17.1h-24v23.7h25.7v17.1H541V1.3z"/>
	<path fill="#FFFFFF" d="M591.8,1.3h19v78.1h18.8v17.1h-37.8V1.3z"/>
</g>
</svg>
