<?xml version="1.0" encoding="utf-8"?>
<!-- Generator: Adobe Illustrator 20.1.0, SVG Export Plug-In . SVG Version: 6.00 Build 0)  -->
<svg version="1.1" id="svg-nh-logo" xmlns="http://www.w3.org/2000/svg" xmlns:xlink="http://www.w3.org/1999/xlink" x="0px"
	 y="0px" viewBox="0 0 304 58" style="enable-background:new 0 0 304 58;" xml:space="preserve">
<style type="text/css">
	.st0{fill:#FFFFFF;}
</style>
<title>Neighbourhoodie Software</title>
<g>
	<path class="st0" d="M16.2,20.2L4.6,8v11.9H1.5V1.1L2,1l11.4,12V1.3h3.2v18.8L16.2,20.2z"/>
	<path class="st0" d="M24.7,19.9V1.3H36v2.9h-8.1v4.9h7.4v2.8h-7.4V17H36v2.9H24.7z"/>
	<path class="st0" d="M43.6,19.9V1.3h3.2v18.5h-3.2V19.9z"/>
	<path class="st0" d="M69.6,10.1v8.1c-2,1.3-4.1,2-6.9,2c-5.3,0-9.8-3.8-9.8-9.6S57.5,1,62.7,1c2.7,0,4.7,0.8,6.6,1.9l-1.4,2.5
		c-1.5-1-3.3-1.5-5-1.5c-4.2,0-6.6,3-6.6,6.7c0,3.9,2.9,6.8,6.6,6.8c1.6,0,2.7-0.3,3.7-0.9v-3.6h-4.3v-2.8
		C62.3,10.1,69.6,10.1,69.6,10.1z"/>
	<path class="st0" d="M88.9,19.9v-8h-8.5v8h-3.2V1.3h3.2V9h8.5V1.3h3.2v18.5h-3.2V19.9z"/>
	<path class="st0" d="M105.2,20c-1.6,0-3.4-0.2-5-0.4V1.5c1.4-0.2,3.2-0.4,4.8-0.4c4.9,0,7.3,2.4,7.3,4.9c0,1.9-0.9,3.4-3.2,4.2
		c2.7,0.8,3.7,2.4,3.7,4.5C112.7,17.5,110.2,20,105.2,20z M105.5,3.9c-0.8,0-1.6,0.1-2.2,0.2v5.1c0.5,0.1,1.1,0.1,1.9,0.1
		c2.7,0,3.8-1.2,3.8-2.7C108.9,5,107.8,3.9,105.5,3.9z M105.2,11.5c-0.7,0-1.5,0-1.9,0.1v5.6c0.6,0.1,1.4,0.1,2.3,0.1
		c2.5,0,3.8-1.2,3.8-2.9C109.3,12.8,107.9,11.5,105.2,11.5z"/>
	<path class="st0" d="M127.4,20.2c-5.4,0-9.3-4.1-9.3-9.6s4.1-9.6,9.5-9.6s9.3,4.1,9.3,9.6S132.8,20.2,127.4,20.2z M127.5,3.9
		c-3.5,0-6,2.9-6,6.8c0,3.8,2.5,6.8,6,6.8s6-2.9,6-6.8C133.5,6.7,131.1,3.9,127.5,3.9z"/>
	<path class="st0" d="M150.5,20.2c-4.6,0-7.4-2.6-7.4-7.4V1.3h3.2v11.2c0,3.2,1.6,4.8,4.3,4.8s4.2-1.6,4.2-4.8V1.3h3.2v11.4
		C158,17.5,155.1,20.2,150.5,20.2z"/>
	<path class="st0" d="M175.9,19.9l-4-6.7c-0.3,0-0.6,0-1,0c-0.6,0-1.2,0-1.8-0.1v6.7h-3.2V1.5c1.5-0.2,3-0.3,4.9-0.3
		c5.3,0,7.6,2.6,7.6,5.8c0,2.4-1.3,4.4-3.6,5.4l4.9,7.5H175.9z M171.2,4c-0.8,0-1.5,0-2.1,0.2v6.3c0.6,0.1,1.2,0.1,1.8,0.1
		c2.8,0,4.1-1.3,4.1-3.4C175,5.3,173.6,4,171.2,4z"/>
	<path class="st0" d="M197.6,19.9v-8H189v8h-3.2V1.3h3.2V9h8.5V1.3h3.2v18.5h-3.1V19.9z"/>
	<path class="st0" d="M216.7,20.2c-5.4,0-9.3-4.1-9.3-9.6s4.1-9.6,9.5-9.6s9.3,4.1,9.3,9.6S222.1,20.2,216.7,20.2z M216.8,3.9
		c-3.5,0-6,2.9-6,6.8c0,3.8,2.5,6.8,6,6.8s6-2.9,6-6.8C222.8,6.7,220.3,3.9,216.8,3.9z"/>
	<path class="st0" d="M241.3,20.2c-5.4,0-9.3-4.1-9.3-9.6s4.1-9.6,9.5-9.6s9.3,4.1,9.3,9.6C250.7,16.1,246.6,20.2,241.3,20.2z
		 M241.4,3.9c-3.5,0-6,2.9-6,6.8c0,3.8,2.5,6.8,6,6.8s6-2.9,6-6.8C247.4,6.7,244.9,3.9,241.4,3.9z"/>
	<path class="st0" d="M263.3,20c-2,0-3.5-0.1-5.3-0.3V1.5c1.8-0.2,3.3-0.3,5.2-0.3c7.3,0,11,4.2,11,9.2
		C274.1,15.6,270.7,20,263.3,20z M263.5,4c-0.9,0-1.7,0.1-2.4,0.2v12.9c0.8,0.1,1.4,0.2,2.7,0.2c4.8,0,6.9-2.9,6.9-6.8
		S268.3,4,263.5,4z"/>
	<path class="st0" d="M281.4,19.9V1.3h3.2v18.5h-3.2V19.9z"/>
	<path class="st0" d="M292.7,19.9V1.3H304v2.9h-8.1v4.9h7.4v2.8h-7.4V17h8.1v2.9H292.7z"/>
	<path class="st0" d="M149.8,57c-2.1,0-4.2-0.8-5.8-1.8l1.1-2.8c1.5,1.1,3.2,1.7,4.8,1.7c1.9,0,2.8-1.1,2.8-2.4s-0.6-2.1-3.5-3.3
		c-3.2-1.4-4.4-3-4.4-5.3c0-2.7,2.2-5.2,6.1-5.2c1.8,0,3.6,0.6,4.7,1.3l-1,2.8c-1-0.7-2.5-1.3-3.7-1.3c-1.9,0-2.9,1.1-2.9,2.3
		s0.9,2,3.2,3c3.7,1.6,4.7,3.1,4.7,5.5C156,54.4,153.7,57,149.8,57z"/>
	<path class="st0" d="M171.1,57c-5.4,0-9.3-4.1-9.3-9.6s4.1-9.6,9.5-9.6s9.3,4.1,9.3,9.6C180.5,52.9,176.4,57,171.1,57z M171.2,40.7
		c-3.5,0-6,2.9-6,6.8c0,3.8,2.5,6.8,6,6.8s6-2.9,6-6.8C177.1,43.5,174.7,40.7,171.2,40.7z"/>
	<path class="st0" d="M190.7,41v5.4h7.2v2.8h-7.2v7.4h-3.2V38.1h11.3V41H190.7z"/>
	<path class="st0" d="M212.5,41v15.7h-3.2V41h-5.9v-2.9h14.9V41H212.5z"/>
	<path class="st0" d="M241.4,57l-0.5,0.1l-5.8-12.9L229.4,57l-0.5-0.1L223,38.1h3.5l3.3,11.7L235,38h0.4l5.2,11.8l3.3-11.6h3.4
		L241.4,57z"/>
	<path class="st0" d="M263.8,56.7l-1.8-4.2h-7.3l-1.8,4.2h-3.3l8.6-18.8h0.5l8.5,18.8H263.8z M258.4,43.7l-2.6,6.2h5.3L258.4,43.7z"
		/>
	<path class="st0" d="M283,56.7l-4-6.7c-0.3,0-0.6,0-1,0c-0.6,0-1.2,0-1.8-0.1v6.7H273V38.3c1.5-0.2,3-0.3,4.9-0.3
		c5.3,0,7.6,2.6,7.6,5.8c0,2.4-1.3,4.4-3.6,5.4l4.9,7.5H283z M278.3,40.8c-0.8,0-1.5,0-2.1,0.2v6.3c0.6,0.1,1.2,0.1,1.8,0.1
		c2.8,0,4.1-1.3,4.1-3.4C282.1,42.1,280.7,40.8,278.3,40.8z"/>
	<path class="st0" d="M292.7,56.7V38.1H304V41h-8.1v4.9h7.4v2.8h-7.4v5.1h8.1v2.9H292.7z"/>
</g>
</svg>
