<?xml version="1.0" encoding="utf-8"?>
<!-- Generator: Adobe Illustrator 20.1.0, SVG Export Plug-In . SVG Version: 6.00 Build 0)  -->
<svg version="1.1" id="Layer_1" xmlns="http://www.w3.org/2000/svg" xmlns:xlink="http://www.w3.org/1999/xlink" x="0px" y="0px"
	 viewBox="0 0 286 76" style="enable-background:new 0 0 286 76;" xml:space="preserve">
<style type="text/css">
	.st0{fill:#FFFFFF;}
	.st1{enable-background:new    ;}
</style>
<title>Event Mark</title>
<desc>Created with Sketch.</desc>
<g id="Index-Designs">
	<g id="Offline-Camp-Index---Berlin" transform="translate(-265.000000, -124.000000)">
		<g id="Masthead">
			<g id="Event-Mark" transform="translate(223.000000, 94.000000)">
				<g id="_x33_0:40" transform="translate(42.000000, 30.000000)">
					<path id="Offline-Camp" class="st0" d="M1,19.2c-1.4,10.1,5.8,17.3,14.8,17.3s18.3-7.2,19.7-17.3C36.9,9.1,29.7,1.9,20.6,1.9
						S2.3,9.1,1,19.2L1,19.2z M9.1,19.2c1.2-9.1,4.9-14.9,11.2-14.9s8.3,5.8,7.1,14.9c-1.3,9.1-5,14.9-11.2,14.9S7.8,28.3,9.1,19.2
						L9.1,19.2z M80.4,1h-1.9l-3.2,0.9C73.8,1.3,72.2,1,70.3,1c-8.4,0-12.9,5.3-13.9,10.6L56.3,12h-7.2l0-0.5
						c0.7-4.8,1.6-8.4,3.4-8.4H53c-2,5.5,4.8,5.1,5.3,1.2C58.6,2.4,57.1,1,54,1c-5.7,0-11.8,5.3-12.5,10.6l0,0.5l-2.9,0.2l-0.4,2.6
						H41L38,36c-0.7,4.8-1.5,8.9-3.5,8.9h-0.4c2-5.5-4.7-5.5-5.2-1.8c-0.2,1.9,0.8,4,3.9,4c5.7,0,11.9-4.8,13.1-13l2.8-19.2h7.2
						l-3,21.1c-0.7,4.8-1.5,8.9-3.5,8.9H49c2-5.5-4.7-5.5-5.2-1.8c-0.2,1.9,0.8,4,3.9,4c5.7,0,11.9-4.8,13.1-13l2.8-19.2h2.9
						l0.4-2.9H64l0-0.5c0.8-5.6,2.8-8.2,5.7-8.2c1.5,0,2.5,1,2.3,2.6l-3.5,25.7c-0.4,3.1,0.4,4.8,3.7,4.8c1.4,0,5-0.6,8.2-1.9v-2.2
						c-4.3,0.5-4.2-0.4-3.9-2.8L80.4,1z M86.6,4.3c-0.3,2.4,1.3,4.3,3.7,4.3s4.6-1.9,4.9-4.3C95.6,1.9,93.9,0,91.5,0
						C89.1,0,86.9,1.9,86.6,4.3L86.6,4.3z M83.4,31.7c-0.4,3.1,0.4,4.8,3.7,4.8c1.4,0,5-0.6,8.2-1.9v-2.2c-4.3,0.5-4.2-0.4-3.9-2.8
						l1.9-13.3c0.4-3.1-0.4-4.8-3.7-4.8c-1.4,0-5,0.6-8.2,1.9v2.2c4.3-0.5,4.2,0.4,3.9,2.8L83.4,31.7z M107.8,16.3
						c0.8-3,0-4.8-3.4-4.8c-1.4,0-5,0.6-8.2,1.9v2.2c4.3-0.5,4.2,0.4,3.9,2.8L97.7,36h7.7l0.7-5.3c1.4-10.4,4.3-14.4,6.2-14.4
						c1.2,0,1.4,0.7,1.2,2.9l-1.8,12.5c-0.4,3.1,0.4,4.8,3.7,4.8c1.4,0,5-0.6,8.2-1.9v-2.2c-4.3,0.5-4.2-0.4-3.9-2.8l1.5-10.9
						c0.7-5.3-1.3-7.2-4.5-7.2c-3.5,0-6.5,1.9-8.9,6.7h-0.5L107.8,16.3z M139.7,11.5c-5.6,0-12.9,4.6-14,12.7
						c-0.9,6.5,1.5,12.2,9.4,12.2c6,0,10-4.8,11.5-8.6h-1.4c-1.2,1.7-3.3,3.1-6.7,3.1c-2.8,0-4.9-1.5-5.1-5.6
						C149.6,26.9,152.2,11.5,139.7,11.5L139.7,11.5z M139.1,13.9c4.8,0,2.8,9.4-5.7,9.6C133.9,17.5,136.7,13.9,139.1,13.9
						L139.1,13.9z M190.4,4.8c-1.8-1.2-5.9-2.9-10.7-2.9c-10.1,0-17.8,7.2-19.2,17.3c-1.4,10.1,4.3,17.3,14.4,17.3
						c4.8,0,9.4-1.7,11.5-2.9l1.6-8.2h-2.4c-2.4,7-5.8,8.6-9.4,8.6c-6.2,0-8.8-5.8-7.5-14.9c1.2-9.1,5.4-14.9,11.7-14.9
						c2.9,0,6.3,1.7,6.7,8.6h2.4L190.4,4.8z M201.2,32.4c-1.9,0-3.2-2.2-2.2-8.4c1.1-7.1,3.3-10.6,6-10.6c1,0,1.6,0.3,2.5,1
						l-1.2,8.6C205.4,29.6,203.1,32.4,201.2,32.4L201.2,32.4z M215.6,11.5h-1.9l-4,0.8c-1.2-0.5-3.2-0.8-4.2-0.8
						c-6,0-12.9,3.9-14.4,12.5c-1.2,7.2,1.9,12.5,7.2,12.5c3.4,0,5.5-2.2,6.9-5.7h0.5l-0.2,0.9c-0.7,3,0,4.8,3.4,4.8
						c1.4,0,5-0.6,8.2-1.9v-2.2c-4.3,0.5-4.2-0.4-3.9-2.8L215.6,11.5z M229.4,16.3c0.8-3,0-4.8-3.4-4.8c-1.4,0-5,0.6-8.2,1.9v2.2
						c4.3-0.5,4.2,0.4,3.9,2.8L219.4,36h7.7l0.7-5.3c1.4-10.4,4.3-14.4,6.2-14.4c1.2,0,1.4,0.7,1.2,2.9L232.8,36h7.7l0.7-5.3
						c1.4-10.4,4.3-14.4,6.2-14.4c1.2,0,1.4,0.7,1.2,2.9l-1.8,12.5c-0.4,3.1,0.4,4.8,3.7,4.8c1.4,0,5-0.6,8.2-1.9v-2.2
						c-4.3,0.5-4.2-0.4-3.9-2.8l1.5-10.9c0.7-5.3-1.3-7.2-4.5-7.2c-3.5,0-6.3,1.9-8.4,6h-0.5c0.5-3.9-1.3-6-4.6-6
						c-3.5,0-6.5,1.9-8.9,6.7H229L229.4,16.3z M275.5,15.6c1.9,0,2.9,2.2,2,8.4c-1.2,8.3-4,11.5-8.4,10.1l1.2-8.2
						C271.2,18.7,273.6,15.6,275.5,15.6L275.5,15.6z M268.8,36c6.5,1.9,15-1.9,16.7-12c1.2-7.2-1.3-12.5-6.6-12.5
						c-3.4,0-5.9,2.2-7.4,5.7H271l0.2-0.9c0.7-3,0-4.8-3.4-4.8c-1.4,0-5,0.6-8.2,1.9v2.2c4.3-0.5,4.2,0.4,3.9,2.8l-3.2,22.9
						c-0.3,2.4-0.8,2.4-3.2,2.9l-0.3,2.4h13.4l0.3-2.4c-2.4-0.5-2.9-0.5-2.5-2.9L268.8,36z"/>
					<g class="st1">
						<path class="st0" d="M59.9,76V59h4.9c3.9,0,5.6,1.6,5.6,4.3c0,1.8-1.3,3.4-3.5,4c2.7,0.4,4.2,1.8,4.2,4.1
							c0,2.9-2.1,4.6-5.7,4.6H59.9z M61.1,67h3.7c3.1,0,4.4-1.7,4.4-3.5c0-2.3-1.4-3.5-4.4-3.5h-3.7V67z M61.1,67.9V75h4.3
							c3,0,4.5-1.3,4.5-3.7c0-2.1-1.7-3.5-4.5-3.5H61.1z"/>
						<path class="st0" d="M100.4,59v1h-8.9v6.9h7.4v1h-7.4V75h8.9v1H90.2V59H100.4z"/>
						<path class="st0" d="M121,68.3V76h-1.2V59h4.3c3.9,0,5.8,1.5,5.8,4.5c0,2.6-1.9,4.4-4.8,4.7c0.2,0.1,0.4,0.3,0.5,0.5l5.8,7.3
							h-1.1c-0.3,0-0.4-0.1-0.6-0.3l-5.4-6.9c-0.3-0.3-0.5-0.5-1.2-0.5H121z M121,67.4h3c3,0,4.8-1.5,4.8-3.9c0-2.4-1.6-3.6-4.6-3.6
							H121V67.4z"/>
						<path class="st0" d="M150.8,75h8v1h-9.3V59h1.2V75z"/>
						<path class="st0" d="M178.5,76h-1.2V59h1.2V76z"/>
						<path class="st0" d="M200.1,59.3l11,14.7c0-0.2,0-0.5,0-0.7V59h1.1v17h-0.6c-0.2,0-0.3-0.1-0.4-0.2l-11-14.7
							c0,0.2,0,0.5,0,0.7V76H199V59h0.6C199.9,59,200,59.1,200.1,59.3z"/>
					</g>
				</g>
			</g>
		</g>
	</g>
</g>
</svg>
