<?xml version="1.0" encoding="utf-8"?>
<!-- Generator: Adobe Illustrator 20.1.0, SVG Export Plug-In . SVG Version: 6.00 Build 0)  -->
<svg version="1.1" id="Layer_1" xmlns="http://www.w3.org/2000/svg" xmlns:xlink="http://www.w3.org/1999/xlink" x="0px" y="0px"
	 viewBox="0 0 285 77" enable-background="new 0 0 285 77" xml:space="preserve">
<g>
	<defs>
		<path id="SVGID_1_" d="M268.1,36.5c6.5,1.9,15-1.9,16.7-12c1.2-7.2-1.3-12.5-6.6-12.5c-3.4,0-5.9,2.2-7.4,5.7h-0.5l0.2-0.9
			c0.7-3,0-4.8-3.4-4.8c-1.4,0-5,0.6-8.2,1.9v2.2c4.3-0.5,4.2,0.4,3.9,2.8l-3.2,22.9c-0.3,2.4-0.8,2.4-3.2,2.9l-0.3,2.4h13.4
			l0.3-2.4c-2.4-0.5-2.9-0.5-2.5-2.9L268.1,36.5z M274.7,16.1c1.9,0,2.9,2.2,2,8.4c-1.2,8.3-4,11.5-8.4,10.1l1.2-8.2
			C270.5,19.2,272.8,16.1,274.7,16.1z M228.7,16.8c0.8-3,0-4.8-3.4-4.8c-1.4,0-5,0.6-8.2,1.9v2.2c4.3-0.5,4.2,0.4,3.9,2.8l-2.4,17.6
			h7.7l0.7-5.3c1.4-10.4,4.3-14.4,6.2-14.4c1.2,0,1.4,0.7,1.2,2.9L232,36.5h7.7l0.7-5.3c1.4-10.4,4.3-14.4,6.2-14.4
			c1.2,0,1.4,0.7,1.2,2.9L246,32.2c-0.4,3.1,0.4,4.8,3.7,4.8c1.4,0,5-0.6,8.2-1.9v-2.2c-4.3,0.5-4.2-0.4-3.9-2.8l1.5-10.9
			c0.7-5.3-1.3-7.2-4.5-7.2c-3.5,0-6.3,1.9-8.4,6h-0.5c0.5-3.9-1.3-6-4.6-6c-3.5,0-6.5,1.9-8.9,6.7h-0.5L228.7,16.8z M214.8,12h-1.9
			l-4,0.8c-1.2-0.5-3.2-0.8-4.2-0.8c-6,0-12.9,3.9-14.4,12.5c-1.2,7.2,1.9,12.5,7.2,12.5c3.4,0,5.5-2.2,6.9-5.7h0.5l-0.2,0.9
			c-0.7,3,0,4.8,3.4,4.8c1.4,0,5-0.6,8.2-1.9v-2.2c-4.3,0.5-4.2-0.4-3.9-2.8L214.8,12z M200.4,32.9c-1.9,0-3.2-2.2-2.2-8.4
			c1.1-7.1,3.3-10.6,6-10.6c1,0,1.6,0.3,2.5,1l-1.2,8.6C204.6,30.1,202.3,32.9,200.4,32.9z M189.6,5.3c-1.8-1.2-5.9-2.9-10.7-2.9
			c-10.1,0-17.8,7.2-19.2,17.3C158.3,29.8,164,37,174.1,37c4.8,0,9.4-1.7,11.5-2.9l1.6-8.2h-2.4c-2.4,7-5.8,8.6-9.4,8.6
			c-6.2,0-8.8-5.8-7.5-14.9c1.2-9.1,5.4-14.9,11.7-14.9c2.9,0,6.3,1.7,6.7,8.6h2.4L189.6,5.3z M138.4,14.4c4.8,0,2.8,9.4-5.7,9.6
			C133.1,18,135.9,14.4,138.4,14.4z M139,12c-5.6,0-12.9,4.6-14,12.7c-0.9,6.5,1.5,12.2,9.4,12.2c6,0,10-4.8,11.5-8.6h-1.4
			c-1.2,1.7-3.3,3.1-6.7,3.1c-2.8,0-4.9-1.5-5.1-5.6C148.8,27.4,151.4,12,139,12z M107,16.8c0.8-3,0-4.8-3.4-4.8
			c-1.4,0-5,0.6-8.2,1.9v2.2c4.3-0.5,4.2,0.4,3.9,2.8l-2.4,17.6h7.7l0.7-5.3c1.4-10.4,4.3-14.4,6.2-14.4c1.2,0,1.4,0.7,1.2,2.9
			l-1.8,12.5c-0.4,3.1,0.4,4.8,3.7,4.8c1.4,0,5-0.6,8.2-1.9v-2.2c-4.3,0.5-4.2-0.4-3.9-2.8l1.5-10.9c0.7-5.3-1.3-7.2-4.5-7.2
			c-3.5,0-6.5,1.9-8.9,6.7h-0.5L107,16.8z M82.6,32.2C82.2,35.3,83,37,86.3,37c1.4,0,5-0.6,8.2-1.9v-2.2c-4.3,0.5-4.2-0.4-3.9-2.8
			l1.9-13.3c0.4-3.1-0.4-4.8-3.7-4.8c-1.4,0-5,0.6-8.2,1.9v2.2c4.3-0.5,4.2,0.4,3.9,2.8L82.6,32.2z M85.8,4.8
			c-0.3,2.4,1.3,4.3,3.7,4.3s4.6-1.9,4.9-4.3c0.3-2.4-1.3-4.3-3.7-4.3C88.4,0.5,86.2,2.4,85.8,4.8z M79.6,1.5h-1.9l-3.2,0.9
			c-1.4-0.5-3.1-0.9-4.9-0.9c-8.4,0-12.9,5.3-13.9,10.6l-0.1,0.5h-7.2l0-0.5C49,7.2,50,3.6,51.7,3.6h0.5c-2,5.5,4.8,5.1,5.3,1.2
			c0.3-1.9-1.2-3.4-4.3-3.4c-5.7,0-11.8,5.3-12.5,10.6l0,0.5l-2.9,0.2l-0.4,2.6h2.9l-3,21.1c-0.7,4.8-1.5,8.9-3.5,8.9h-0.4
			c2-5.5-4.7-5.5-5.2-1.8c-0.2,1.9,0.8,4,3.9,4c5.7,0,11.9-4.8,13.1-13l2.8-19.2h7.2l-3,21.1c-0.7,4.8-1.5,8.9-3.5,8.9h-0.4
			c2-5.5-4.7-5.5-5.2-1.8c-0.2,1.9,0.8,4,3.9,4c5.7,0,11.9-4.8,13.1-13l2.8-19.2h2.9l0.4-2.9h-2.9l0-0.5C64,6.5,66.1,3.9,69,3.9
			c1.5,0,2.5,1,2.3,2.6l-3.5,25.7c-0.4,3.1,0.4,4.8,3.7,4.8c1.4,0,5-0.6,8.2-1.9v-2.2c-4.3,0.5-4.2-0.4-3.9-2.8L79.6,1.5z M8.3,19.7
			c1.2-9.1,4.9-14.9,11.2-14.9s8.3,5.8,7.1,14.9c-1.3,9.1-5,14.9-11.2,14.9S7,28.8,8.3,19.7z M0.2,19.7C-1.3,29.8,6,37,15,37
			s18.3-7.2,19.7-17.3C36.1,9.6,28.9,2.4,19.9,2.4S1.6,9.6,0.2,19.7z"/>
	</defs>
	<clipPath id="SVGID_2_">
		<use xlink:href="#SVGID_1_"  overflow="visible"/>
	</clipPath>
	<g clip-path="url(#SVGID_2_)">
		<defs>
			<rect id="SVGID_3_" x="-266" y="-123.5" width="1959" height="5048"/>
		</defs>
		<clipPath id="SVGID_4_">
			<use xlink:href="#SVGID_3_"  overflow="visible"/>
		</clipPath>
		<rect x="-5" y="-4.5" clip-path="url(#SVGID_4_)" fill="#FFFFFF" width="295" height="57"/>
	</g>
</g>
<g>
	<g>
		<path fill="#FFFFFF" d="M58.2,76.5V59.3h5.5c1.1,0,2,0.1,2.7,0.3c0.8,0.2,1.4,0.5,1.9,0.9s0.9,0.9,1.1,1.4s0.4,1.2,0.4,1.9
			c0,0.4-0.1,0.8-0.2,1.2c-0.1,0.4-0.3,0.8-0.6,1.1s-0.6,0.6-1,0.9c-0.4,0.3-0.9,0.5-1.4,0.6c1.3,0.2,2.2,0.7,2.8,1.4
			c0.6,0.7,1,1.5,1,2.6c0,0.7-0.1,1.4-0.4,2c-0.3,0.6-0.7,1.1-1.2,1.5c-0.5,0.4-1.1,0.8-1.9,1c-0.7,0.2-1.6,0.4-2.6,0.4H58.2z
			 M60.5,67h3.1c0.7,0,1.2-0.1,1.7-0.2s0.9-0.3,1.2-0.6c0.3-0.3,0.5-0.6,0.7-0.9c0.2-0.4,0.2-0.8,0.2-1.2c0-1-0.3-1.7-0.9-2.2
			c-0.6-0.5-1.6-0.7-2.8-0.7h-3.2V67z M60.5,68.7v6h3.7c0.7,0,1.2-0.1,1.7-0.2c0.5-0.2,0.9-0.4,1.2-0.6c0.3-0.3,0.5-0.6,0.7-1
			S68,72,68,71.5c0-0.9-0.3-1.6-0.9-2.1c-0.6-0.5-1.6-0.8-2.9-0.8H60.5z"/>
		<path fill="#FFFFFF" d="M99.3,59.3v1.9h-8.3v5.7h6.7v1.8h-6.7v5.9h8.3v1.9H88.7V59.3H99.3z"/>
		<path fill="#FFFFFF" d="M120.2,69.3v7.2h-2.3V59.3h4.9c1.1,0,2,0.1,2.8,0.3c0.8,0.2,1.4,0.5,2,1c0.5,0.4,0.9,0.9,1.1,1.5
			c0.2,0.6,0.4,1.2,0.4,2c0,0.6-0.1,1.2-0.3,1.7c-0.2,0.5-0.5,1-0.8,1.4c-0.4,0.4-0.8,0.8-1.3,1.1c-0.5,0.3-1.1,0.5-1.8,0.7
			c0.3,0.2,0.5,0.4,0.8,0.7l5,6.8h-2.1c-0.4,0-0.7-0.2-0.9-0.5l-4.5-6.1c-0.1-0.2-0.3-0.3-0.4-0.4s-0.4-0.1-0.7-0.1H120.2z
			 M120.2,67.6h2.4c0.7,0,1.3-0.1,1.8-0.2s0.9-0.4,1.3-0.7c0.3-0.3,0.6-0.7,0.8-1.1c0.2-0.4,0.3-0.9,0.3-1.4c0-1-0.3-1.8-1-2.3
			c-0.7-0.5-1.7-0.8-3-0.8h-2.5V67.6z"/>
		<path fill="#FFFFFF" d="M150.5,74.5h7.4v2h-9.8V59.3h2.3V74.5z"/>
		<path fill="#FFFFFF" d="M178.2,76.5h-2.3V59.3h2.3V76.5z"/>
		<path fill="#FFFFFF" d="M199.5,59.4c0.1,0.1,0.2,0.2,0.3,0.3l10,13c0-0.2,0-0.4,0-0.6c0-0.2,0-0.4,0-0.6V59.3h2v17.2h-1.2
			c-0.2,0-0.3,0-0.5-0.1c-0.1-0.1-0.2-0.2-0.4-0.3l-9.9-12.9c0,0.2,0,0.4,0,0.6c0,0.2,0,0.4,0,0.5v12.3h-2V59.3h1.2
			C199.2,59.3,199.4,59.3,199.5,59.4z"/>
	</g>
</g>
</svg>
