<?xml version="1.0" encoding="UTF-8"?>
<svg width="286px" height="76px" viewBox="0 0 286 76" version="1.1" xmlns="http://www.w3.org/2000/svg" xmlns:xlink="http://www.w3.org/1999/xlink">
    <!-- Generator: Sketch 41.2 (35397) - http://www.bohemiancoding.com/sketch -->
    <title>Event Mark</title>
    <desc>Created with Sketch.</desc>
    <defs></defs>
    <g id="Index-Designs" stroke="none" stroke-width="1" fill="none" fill-rule="evenodd">
        <g id="Offline-Camp-Index---Berlin" transform="translate(-265.000000, -124.000000)" fill="#FFFFFF">
            <g id="Masthead">
                <g id="Event-Mark" transform="translate(223.000000, 94.000000)">
                    <g id="30:40" transform="translate(42.000000, 30.000000)">
                        <path d="M0.956,19.2 C-0.484,29.28 6.764,36.48 15.788,36.48 C24.812,36.48 34.076,29.28 35.516,19.2 C36.908,9.12 29.66,1.92 20.636,1.92 C11.612,1.92 2.348,9.12 0.956,19.2 L0.956,19.2 Z M9.116,19.2 C10.364,10.08 14.06,4.32 20.3,4.32 C26.54,4.32 28.604,10.08 27.356,19.2 C26.06,28.32 22.364,34.08 16.124,34.08 C9.884,34.08 7.82,28.32 9.116,19.2 L9.116,19.2 Z M80.396,0.96 L78.476,0.96 L75.26,1.872 C73.82,1.344 72.188,0.96 70.316,0.96 C61.916,0.96 57.452,6.288 56.396,11.52 L56.3,12 L49.1,12 L49.148,11.52 C49.82,6.72 50.732,3.12 52.508,3.12 L52.988,3.12 C51.02,8.64 57.788,8.256 58.316,4.32 C58.604,2.4 57.116,0.96 53.996,0.96 C48.284,0.96 42.236,6.24 41.468,11.52 L41.42,12 L38.492,12.24 L38.108,14.88 L40.988,14.88 L37.964,36 C37.292,40.8 36.428,44.88 34.508,44.88 L34.076,44.88 C36.044,39.36 29.372,39.408 28.892,43.056 C28.652,44.928 29.66,47.04 32.78,47.04 C38.492,47.04 44.684,42.24 45.884,34.08 L48.668,14.88 L55.868,14.88 L52.844,36 C52.172,40.8 51.308,44.88 49.388,44.88 L48.956,44.88 C50.924,39.36 44.252,39.408 43.772,43.056 C43.532,44.928 44.54,47.04 47.66,47.04 C53.372,47.04 59.564,42.24 60.764,34.08 L63.548,14.88 L66.428,14.88 L66.86,12 L63.98,12 L64.028,11.52 C64.796,5.952 66.86,3.36 69.74,3.36 C71.228,3.36 72.236,4.32 71.996,6 L68.492,31.68 C68.06,34.752 68.876,36.48 72.236,36.48 C73.676,36.48 77.228,35.904 80.396,34.56 L80.396,32.4 C76.124,32.88 76.172,32.016 76.508,29.616 L80.396,0.96 Z M86.588,4.32 C86.252,6.72 87.932,8.64 90.332,8.64 C92.732,8.64 94.892,6.72 95.228,4.32 C95.564,1.92 93.932,0 91.532,0 C89.132,0 86.924,1.92 86.588,4.32 L86.588,4.32 Z M83.372,31.68 C82.94,34.752 83.756,36.48 87.116,36.48 C88.556,36.48 92.108,35.904 95.276,34.56 L95.276,32.4 C91.004,32.88 91.052,32.016 91.388,29.616 L93.26,16.32 C93.692,13.248 92.876,11.52 89.516,11.52 C88.076,11.52 84.524,12.096 81.356,13.44 L81.356,15.6 C85.628,15.12 85.58,15.984 85.244,18.384 L83.372,31.68 Z M107.756,16.32 C108.524,13.296 107.756,11.52 104.396,11.52 C102.956,11.52 99.404,12.096 96.236,13.44 L96.236,15.6 C100.508,15.12 100.46,15.984 100.124,18.384 L97.676,36 L105.356,36 L106.076,30.72 C107.516,20.304 110.348,16.32 112.316,16.32 C113.516,16.32 113.756,17.04 113.468,19.2 L111.692,31.68 C111.26,34.752 112.076,36.48 115.436,36.48 C116.876,36.48 120.428,35.904 123.596,34.56 L123.596,32.4 C119.324,32.88 119.372,32.016 119.708,29.616 L121.196,18.72 C121.916,13.44 119.9,11.52 116.684,11.52 C113.18,11.52 110.156,13.44 107.756,18.24 L107.276,18.24 L107.756,16.32 Z M139.724,11.52 C134.156,11.52 126.86,16.08 125.708,24.24 C124.796,30.72 127.196,36.48 135.116,36.48 C141.116,36.48 145.1,31.68 146.588,27.84 L145.148,27.84 C143.948,29.52 141.836,30.96 138.476,30.96 C135.692,30.96 133.532,29.472 133.34,25.392 C149.612,26.928 152.156,11.52 139.724,11.52 L139.724,11.52 Z M139.148,13.92 C143.9,13.92 141.932,23.28 133.436,23.472 C133.868,17.52 136.652,13.92 139.148,13.92 L139.148,13.92 Z M190.364,4.8 C188.588,3.6 184.508,1.92 179.708,1.92 C169.628,1.92 161.9,9.12 160.508,19.2 C159.068,29.28 164.78,36.48 174.86,36.48 C179.66,36.48 184.22,34.8 186.332,33.6 L187.916,25.44 L185.516,25.44 C183.116,32.4 179.756,34.08 176.156,34.08 C169.916,34.08 167.372,28.32 168.668,19.2 C169.916,10.08 174.092,4.32 180.332,4.32 C183.212,4.32 186.62,6 187.052,12.96 L189.452,12.96 L190.364,4.8 Z M201.164,32.4 C199.244,32.4 197.996,30.24 198.956,24 C200.012,16.896 202.22,13.44 204.956,13.44 C205.964,13.44 206.588,13.728 207.5,14.4 L206.3,23.04 C205.388,29.568 203.084,32.4 201.164,32.4 L201.164,32.4 Z M215.564,11.52 L213.644,11.52 L209.612,12.288 C208.412,11.76 206.396,11.52 205.436,11.52 C199.436,11.52 192.524,15.456 191.084,24 C189.884,31.2 193.004,36.48 198.284,36.48 C201.644,36.48 203.804,34.32 205.148,30.816 L205.628,30.816 L205.436,31.68 C204.764,34.704 205.436,36.48 208.796,36.48 C210.236,36.48 213.788,35.904 216.956,34.56 L216.956,32.4 C212.684,32.88 212.732,32.016 213.068,29.616 L215.564,11.52 Z M229.436,16.32 C230.204,13.296 229.436,11.52 226.076,11.52 C224.636,11.52 221.084,12.096 217.916,13.44 L217.916,15.6 C222.188,15.12 222.14,15.984 221.804,18.384 L219.356,36 L227.036,36 L227.756,30.72 C229.196,20.304 232.028,16.32 233.996,16.32 C235.196,16.32 235.436,17.04 235.148,19.2 L232.796,36 L240.476,36 L241.196,30.72 C242.636,20.304 245.468,16.32 247.436,16.32 C248.636,16.32 248.876,17.04 248.588,19.2 L246.812,31.68 C246.38,34.752 247.196,36.48 250.556,36.48 C251.996,36.48 255.548,35.904 258.716,34.56 L258.716,32.4 C254.444,32.88 254.492,32.016 254.828,29.616 L256.316,18.72 C257.036,13.44 255.02,11.52 251.804,11.52 C248.3,11.52 245.516,13.392 243.404,17.52 L242.924,17.52 C243.404,13.584 241.58,11.52 238.364,11.52 C234.86,11.52 231.836,13.44 229.436,18.24 L228.956,18.24 L229.436,16.32 Z M275.516,15.6 C277.436,15.6 278.444,17.76 277.484,24 C276.236,32.256 273.5,35.52 269.084,34.08 L270.236,25.92 C271.244,18.72 273.596,15.6 275.516,15.6 L275.516,15.6 Z M268.844,36 C275.324,37.92 283.82,34.08 285.5,24 C286.7,16.8 284.156,11.52 278.876,11.52 C275.516,11.52 272.972,13.68 271.484,17.184 L271.004,17.184 L271.196,16.32 C271.868,13.296 271.196,11.52 267.836,11.52 C266.396,11.52 262.844,12.096 259.676,13.44 L259.676,15.6 C263.948,15.12 263.9,15.984 263.564,18.384 L260.348,41.28 C260.012,43.68 259.58,43.68 257.132,44.16 L256.796,46.56 L270.188,46.56 L270.524,44.16 C268.172,43.68 267.644,43.68 268.028,41.28 L268.844,36 Z" id="Offline-Camp"></path>
                        <text id="BERLIN" font-family="Lato-Light, Lato" font-size="24" font-weight="300" letter-spacing="15">
                            <tspan x="57.346" y="76">BERLIN</tspan>
                        </text>
                    </g>
                </g>
            </g>
        </g>
    </g>
</svg>