<?xml version="1.0" encoding="utf-8"?>
<!-- Generator: Adobe Illustrator 21.1.0, SVG Export Plug-In . SVG Version: 6.00 Build 0)  -->
<svg version="1.1" id="Layer_1" xmlns="http://www.w3.org/2000/svg" xmlns:xlink="http://www.w3.org/1999/xlink" x="0px" y="0px"
	 viewBox="0 0 285 77" style="enable-background:new 0 0 285 77;" xml:space="preserve">
<style type="text/css">
	.st0{fill:#FFFFFF;}
	.st1{enable-background:new    ;}
</style>
<title>Event Mark</title>
<desc>Created with Sketch.</desc>
<g id="Index-Designs">
	<g id="Offline-Camp-Index---Berlin" transform="translate(-266.000000, -124.000000)">
		<g id="Page" transform="translate(-103.000000, 0.000000)">
			<g id="Masthead" transform="translate(103.000000, 0.000000)">
				<g id="Event-Mark" transform="translate(223.000000, 94.000000)">
					<g id="_x33_0:40" transform="translate(43.000000, 30.000000)">
						<path id="Offline-Camp" class="st0" d="M0.2,19.2C-1.3,29.3,6,36.5,15,36.5s18.3-7.2,19.7-17.3C36.1,9.1,28.9,1.9,19.9,1.9
							S1.6,9.1,0.2,19.2L0.2,19.2z M8.3,19.2c1.2-9.1,4.9-14.9,11.2-14.9s8.3,5.8,7.1,14.9c-1.3,9.1-5,14.9-11.2,14.9
							S7,28.3,8.3,19.2L8.3,19.2z M79.6,1h-1.9l-3.2,0.9C73,1.3,71.4,1,69.5,1c-8.4,0-12.9,5.3-13.9,10.6L55.5,12h-7.2l0-0.5
							C49,6.7,50,3.1,51.7,3.1h0.5c-2,5.5,4.8,5.1,5.3,1.2C57.8,2.4,56.3,1,53.2,1c-5.7,0-11.8,5.3-12.5,10.6l0,0.5l-2.9,0.2
							l-0.4,2.6h2.9l-3,21.1c-0.7,4.8-1.5,8.9-3.5,8.9h-0.4c2-5.5-4.7-5.5-5.2-1.8c-0.2,1.9,0.8,4,3.9,4c5.7,0,11.9-4.8,13.1-13
							l2.8-19.2h7.2l-3,21.1c-0.7,4.8-1.5,8.9-3.5,8.9h-0.4c2-5.5-4.7-5.5-5.2-1.8c-0.2,1.9,0.8,4,3.9,4c5.7,0,11.9-4.8,13.1-13
							l2.8-19.2h2.9l0.4-2.9h-2.9l0-0.5C64,6,66.1,3.4,69,3.4c1.5,0,2.5,1,2.3,2.6l-3.5,25.7c-0.4,3.1,0.4,4.8,3.7,4.8
							c1.4,0,5-0.6,8.2-1.9v-2.2c-4.3,0.5-4.2-0.4-3.9-2.8L79.6,1z M85.8,4.3c-0.3,2.4,1.3,4.3,3.7,4.3c2.4,0,4.6-1.9,4.9-4.3
							S93.2,0,90.8,0S86.2,1.9,85.8,4.3L85.8,4.3z M82.6,31.7c-0.4,3.1,0.4,4.8,3.7,4.8c1.4,0,5-0.6,8.2-1.9v-2.2
							c-4.3,0.5-4.2-0.4-3.9-2.8l1.9-13.3c0.4-3.1-0.4-4.8-3.7-4.8c-1.4,0-5,0.6-8.2,1.9v2.2c4.3-0.5,4.2,0.4,3.9,2.8L82.6,31.7z
							 M107,16.3c0.8-3,0-4.8-3.4-4.8c-1.4,0-5,0.6-8.2,1.9v2.2c4.3-0.5,4.2,0.4,3.9,2.8L96.9,36h7.7l0.7-5.3
							c1.4-10.4,4.3-14.4,6.2-14.4c1.2,0,1.4,0.7,1.2,2.9l-1.8,12.5c-0.4,3.1,0.4,4.8,3.7,4.8c1.4,0,5-0.6,8.2-1.9v-2.2
							c-4.3,0.5-4.2-0.4-3.9-2.8l1.5-10.9c0.7-5.3-1.3-7.2-4.5-7.2c-3.5,0-6.5,1.9-8.9,6.7h-0.5L107,16.3z M139,11.5
							c-5.6,0-12.9,4.6-14,12.7c-0.9,6.5,1.5,12.2,9.4,12.2c6,0,10-4.8,11.5-8.6h-1.4c-1.2,1.7-3.3,3.1-6.7,3.1
							c-2.8,0-4.9-1.5-5.1-5.6C148.8,26.9,151.4,11.5,139,11.5L139,11.5z M138.4,13.9c4.8,0,2.8,9.4-5.7,9.6
							C133.1,17.5,135.9,13.9,138.4,13.9L138.4,13.9z M189.6,4.8c-1.8-1.2-5.9-2.9-10.7-2.9c-10.1,0-17.8,7.2-19.2,17.3
							c-1.4,10.1,4.3,17.3,14.4,17.3c4.8,0,9.4-1.7,11.5-2.9l1.6-8.2h-2.4c-2.4,7-5.8,8.6-9.4,8.6c-6.2,0-8.8-5.8-7.5-14.9
							c1.2-9.1,5.4-14.9,11.7-14.9c2.9,0,6.3,1.7,6.7,8.6h2.4L189.6,4.8z M200.4,32.4c-1.9,0-3.2-2.2-2.2-8.4
							c1.1-7.1,3.3-10.6,6-10.6c1,0,1.6,0.3,2.5,1l-1.2,8.6C204.6,29.6,202.3,32.4,200.4,32.4L200.4,32.4z M214.8,11.5h-1.9l-4,0.8
							c-1.2-0.5-3.2-0.8-4.2-0.8c-6,0-12.9,3.9-14.4,12.5c-1.2,7.2,1.9,12.5,7.2,12.5c3.4,0,5.5-2.2,6.9-5.7h0.5l-0.2,0.9
							c-0.7,3,0,4.8,3.4,4.8c1.4,0,5-0.6,8.2-1.9v-2.2c-4.3,0.5-4.2-0.4-3.9-2.8L214.8,11.5z M228.7,16.3c0.8-3,0-4.8-3.4-4.8
							c-1.4,0-5,0.6-8.2,1.9v2.2c4.3-0.5,4.2,0.4,3.9,2.8L218.6,36h7.7l0.7-5.3c1.4-10.4,4.3-14.4,6.2-14.4c1.2,0,1.4,0.7,1.2,2.9
							L232,36h7.7l0.7-5.3c1.4-10.4,4.3-14.4,6.2-14.4c1.2,0,1.4,0.7,1.2,2.9L246,31.7c-0.4,3.1,0.4,4.8,3.7,4.8
							c1.4,0,5-0.6,8.2-1.9v-2.2c-4.3,0.5-4.2-0.4-3.9-2.8l1.5-10.9c0.7-5.3-1.3-7.2-4.5-7.2c-3.5,0-6.3,1.9-8.4,6h-0.5
							c0.5-3.9-1.3-6-4.6-6c-3.5,0-6.5,1.9-8.9,6.7h-0.5L228.7,16.3z M274.7,15.6c1.9,0,2.9,2.2,2,8.4c-1.2,8.3-4,11.5-8.4,10.1
							l1.2-8.2C270.5,18.7,272.8,15.6,274.7,15.6L274.7,15.6z M268.1,36c6.5,1.9,15-1.9,16.7-12c1.2-7.2-1.3-12.5-6.6-12.5
							c-3.4,0-5.9,2.2-7.4,5.7h-0.5l0.2-0.9c0.7-3,0-4.8-3.4-4.8c-1.4,0-5,0.6-8.2,1.9v2.2c4.3-0.5,4.2,0.4,3.9,2.8l-3.2,22.9
							c-0.3,2.4-0.8,2.4-3.2,2.9l-0.3,2.4h13.4l0.3-2.4c-2.4-0.5-2.9-0.5-2.5-2.9L268.1,36z"/>
						<g class="st1">
							<path class="st0" d="M63.8,67.4c0,1.3-0.2,2.5-0.6,3.5c-0.4,1.1-1,2-1.7,2.8c-0.7,0.8-1.6,1.4-2.7,1.8s-2.2,0.6-3.5,0.6
								c-1.3,0-2.4-0.2-3.5-0.6c-1-0.4-1.9-1-2.7-1.8C48.5,73,47.9,72,47.5,71c-0.4-1.1-0.6-2.3-0.6-3.5s0.2-2.5,0.6-3.5
								c0.4-1.1,1-2,1.7-2.8c0.7-0.8,1.6-1.4,2.7-1.8c1-0.4,2.2-0.6,3.5-0.6c1.3,0,2.4,0.2,3.5,0.6c1,0.4,1.9,1,2.7,1.8
								c0.7,0.8,1.3,1.7,1.7,2.8C63.6,64.9,63.8,66.1,63.8,67.4z M61.4,67.4c0-1.1-0.1-2-0.4-2.8c-0.3-0.8-0.7-1.6-1.2-2.1
								c-0.5-0.6-1.2-1-1.9-1.3c-0.8-0.3-1.6-0.5-2.5-0.5c-0.9,0-1.8,0.2-2.5,0.5c-0.8,0.3-1.4,0.8-1.9,1.3
								c-0.5,0.6-0.9,1.3-1.2,2.1c-0.3,0.8-0.4,1.8-0.4,2.8c0,1.1,0.1,2,0.4,2.8s0.7,1.5,1.2,2.1c0.5,0.6,1.2,1,1.9,1.3
								s1.6,0.5,2.5,0.5c0.9,0,1.8-0.2,2.5-0.5c0.8-0.3,1.4-0.8,1.9-1.3c0.5-0.6,0.9-1.3,1.2-2.1C61.3,69.4,61.4,68.5,61.4,67.4z"/>
							<path class="st0" d="M84.6,68.8V76h-2.3V58.8h4.9c1.1,0,2,0.1,2.8,0.3c0.8,0.2,1.4,0.5,2,1c0.5,0.4,0.9,0.9,1.1,1.5
								c0.2,0.6,0.4,1.2,0.4,2c0,0.6-0.1,1.2-0.3,1.7c-0.2,0.5-0.5,1-0.8,1.4c-0.4,0.4-0.8,0.8-1.3,1.1c-0.5,0.3-1.1,0.5-1.8,0.7
								c0.3,0.2,0.5,0.4,0.8,0.7l5,6.8h-2.1c-0.4,0-0.7-0.2-0.9-0.5l-4.5-6.1C87.4,69.2,87.2,69,87,69s-0.4-0.1-0.7-0.1H84.6z
								 M84.6,67.1H87c0.7,0,1.3-0.1,1.8-0.2s0.9-0.4,1.3-0.7c0.3-0.3,0.6-0.7,0.8-1.1c0.2-0.4,0.3-0.9,0.3-1.4c0-1-0.3-1.8-1-2.3
								c-0.7-0.5-1.7-0.8-3-0.8h-2.5V67.1z"/>
							<path class="st0" d="M123.1,58.8v1.9h-8.3v5.7h6.7v1.8h-6.7v5.9h8.3V76h-10.6V58.8H123.1z"/>
							<path class="st0" d="M149.1,74.3c0.5,0,0.9,0,1.3-0.1s0.8-0.1,1.1-0.2c0.3-0.1,0.7-0.2,1-0.3c0.3-0.1,0.6-0.3,0.9-0.4v-3.8
								h-2.7c-0.2,0-0.3,0-0.4-0.1s-0.1-0.2-0.1-0.3v-1.3h5.3v6.6c-0.4,0.3-0.9,0.6-1.3,0.8c-0.5,0.2-1,0.4-1.5,0.6
								c-0.5,0.2-1.1,0.3-1.7,0.3c-0.6,0.1-1.3,0.1-2,0.1c-1.2,0-2.4-0.2-3.4-0.6c-1-0.4-1.9-1-2.7-1.8c-0.8-0.8-1.3-1.7-1.8-2.8
								s-0.6-2.3-0.6-3.6c0-1.3,0.2-2.5,0.6-3.6c0.4-1.1,1-2,1.8-2.8c0.8-0.8,1.7-1.4,2.8-1.8s2.3-0.6,3.6-0.6c0.7,0,1.3,0,1.9,0.1
								c0.6,0.1,1.1,0.2,1.6,0.4c0.5,0.2,1,0.4,1.4,0.7c0.4,0.3,0.8,0.6,1.2,0.9l-0.7,1.1c-0.1,0.2-0.3,0.3-0.5,0.3
								c-0.1,0-0.3,0-0.4-0.1c-0.2-0.1-0.4-0.2-0.7-0.4s-0.5-0.3-0.9-0.5c-0.4-0.1-0.8-0.3-1.3-0.4c-0.5-0.1-1.1-0.2-1.7-0.2
								c-1,0-1.8,0.2-2.6,0.5c-0.8,0.3-1.5,0.8-2,1.4c-0.6,0.6-1,1.3-1.3,2.1s-0.4,1.8-0.4,2.8c0,1.1,0.2,2.1,0.5,2.9
								c0.3,0.9,0.7,1.6,1.3,2.2c0.6,0.6,1.2,1,2,1.4C147.3,74.2,148.1,74.3,149.1,74.3z"/>
							<path class="st0" d="M190,67.4c0,1.3-0.2,2.5-0.6,3.5c-0.4,1.1-1,2-1.7,2.8c-0.7,0.8-1.6,1.4-2.7,1.8s-2.2,0.6-3.5,0.6
								c-1.3,0-2.4-0.2-3.5-0.6c-1-0.4-1.9-1-2.7-1.8c-0.7-0.8-1.3-1.7-1.7-2.8s-0.6-2.3-0.6-3.5s0.2-2.5,0.6-3.5s1-2,1.7-2.8
								c0.7-0.8,1.6-1.4,2.7-1.8c1-0.4,2.2-0.6,3.5-0.6c1.3,0,2.4,0.2,3.5,0.6c1,0.4,1.9,1,2.7,1.8s1.3,1.7,1.7,2.8
								C189.8,64.9,190,66.1,190,67.4z M187.6,67.4c0-1.1-0.1-2-0.4-2.8c-0.3-0.8-0.7-1.6-1.2-2.1c-0.5-0.6-1.2-1-1.9-1.3
								c-0.8-0.3-1.6-0.5-2.5-0.5c-0.9,0-1.8,0.2-2.5,0.5c-0.8,0.3-1.4,0.8-1.9,1.3c-0.5,0.6-0.9,1.3-1.2,2.1
								c-0.3,0.8-0.4,1.8-0.4,2.8c0,1.1,0.1,2,0.4,2.8s0.7,1.5,1.2,2.1s1.2,1,1.9,1.3s1.6,0.5,2.5,0.5c0.9,0,1.8-0.2,2.5-0.5
								s1.4-0.8,1.9-1.3s0.9-1.3,1.2-2.1C187.5,69.4,187.6,68.5,187.6,67.4z"/>
							<path class="st0" d="M209.8,58.9c0.1,0.1,0.2,0.2,0.3,0.3l10,13c0-0.2,0-0.4,0-0.6c0-0.2,0-0.4,0-0.6V58.8h2V76h-1.2
								c-0.2,0-0.3,0-0.5-0.1c-0.1-0.1-0.2-0.2-0.4-0.3l-9.9-12.9c0,0.2,0,0.4,0,0.6c0,0.2,0,0.4,0,0.5V76h-2V58.8h1.2
								C209.6,58.8,209.7,58.8,209.8,58.9z"/>
						</g>
					</g>
				</g>
			</g>
		</g>
	</g>
</g>
</svg>
