<?xml version="1.0" encoding="UTF-8"?>
<svg width="114px" height="113px" viewBox="0 0 114 113" version="1.1" xmlns="http://www.w3.org/2000/svg" xmlns:xlink="http://www.w3.org/1999/xlink">
    <!-- Generator: Sketch 41.2 (35397) - http://www.bohemiancoding.com/sketch -->
    <title>white_mark</title>
    <desc>Created with Sketch.</desc>
    <defs></defs>
    <g id="Page-1" stroke="none" stroke-width="1" fill="none" fill-rule="evenodd">
        <g id="white_mark" fill="#FFFFFF">
            <path d="M54.1843393,73.5274127 C54.9026455,73.9421317 55.4849476,74.9459136 55.4849476,75.781617 L55.4849476,91.5324382 C55.4849476,92.3626819 54.9073691,92.7022957 54.1843393,92.2848961 L40.5571214,84.4180075 C39.8388153,84.0033348 39.2565131,82.9995532 39.2565131,82.1638033 L39.2565131,66.4121039 C39.2565131,65.5818139 39.8340917,65.2421999 40.5571214,65.659646 L54.1843393,73.5274127 Z M74.749641,59.923179 C74.7495947,60.7532453 74.1717626,61.7597234 73.4484624,62.1773041 L59.8161472,70.0476062 C59.0975724,70.4624588 58.5150524,70.1313573 58.5150524,69.295879 L58.5150524,53.5492999 C58.5150524,52.7192798 59.0928842,51.712802 59.816231,51.2951748 L73.4494243,43.4239945 C74.1680454,43.0090957 74.7505657,43.3401969 74.7505191,44.1757218 L74.749641,59.923179 Z M71.933764,39.3043166 C72.6546455,39.7205967 72.6609532,40.391815 71.9372931,40.8096212 L58.2981946,48.6841744 C57.5792622,49.0992511 56.4100006,49.0971384 55.6911059,48.6820712 L22.8077597,29.6962615 C22.0868368,29.2800233 22.0805681,28.6087655 22.8043192,28.1908674 L36.4451327,20.3145818 C37.1641554,19.8994138 38.3334566,19.9014866 39.0523099,20.3165955 L71.933764,39.3043166 Z M36.2264084,80.4199927 C36.2264084,81.2446765 35.6489019,81.5797817 34.9259624,81.1623805 L21.3004459,73.2954602 C20.5822295,72.8807859 20,71.867378 20,71.0371819 L20,33.0627397 C20,32.2302013 20.5863015,31.8937941 21.3050121,32.3087382 L54.1799355,51.2889196 C54.9006738,51.7050345 55.4849476,52.7099117 55.4849476,53.5455698 L55.4849476,69.295536 C55.4849476,70.1257347 54.9085778,70.4660196 54.1914363,70.0520317 L37.5199197,60.42798 C36.8055331,60.0155824 36.2264084,60.3466261 36.2264084,61.1744901 L36.2264084,80.4199927 Z M77.7663773,42.4242477 C77.7664525,41.5995276 78.3442718,40.5973829 79.0675266,40.1798015 L92.6989868,32.309486 C93.4175165,31.8946328 94,32.2355925 94,33.0658094 L94,71.0411993 C94,71.8737584 93.4136985,72.8871793 92.6949879,73.3021235 L59.8200645,92.2823049 C59.0993262,92.6984197 58.5150524,92.3681611 58.5150524,91.532457 L58.5150524,75.7816225 C58.5150524,74.9513781 59.0911497,73.9456988 59.8079522,73.5318238 L76.4715875,63.9103963 C77.1856363,63.4981112 77.7645479,62.4985007 77.7646234,61.6706001 L77.7663773,42.4242477 Z M61.3191202,29.6881293 C60.6002318,29.2730051 60.5954685,28.6027964 61.3190395,28.185081 L74.9564579,20.31224 C75.6753017,19.8972536 76.8360493,19.8945611 77.5596186,20.312322 L91.1970046,28.1860224 C91.9158467,28.6010541 91.9206097,29.2712622 91.1970853,29.6890707 L77.560545,37.5636679 C76.8417474,37.9787469 75.6810001,37.98144 74.9573843,37.5635859 L61.3191202,29.6881293 Z" id="Shape"></path>
        </g>
    </g>
</svg>