<?xml version="1.0" encoding="UTF-8"?>
<svg width="178px" height="85px" viewBox="0 0 178 85" version="1.1" xmlns="http://www.w3.org/2000/svg" xmlns:xlink="http://www.w3.org/1999/xlink">
    <!-- Generator: Sketch 41.2 (35397) - http://www.bohemiancoding.com/sketch -->
    <title>white_horizontal_alt</title>
    <desc>Created with Sketch.</desc>
    <defs></defs>
    <g id="Page-1" stroke="none" stroke-width="1" fill="none" fill-rule="evenodd">
        <g id="white_horizontal_alt" fill="#FFFFFF">
            <g id="Logo" transform="translate(20.000000, 20.000000)">
                <path d="M70.5,8.9 C70.5,6.04 68.34,4.5 65.78,4.5 L59.6,4.5 L59.6,18.5 L62.76,18.5 L62.76,13.74 L65.44,13.74 C68.72,13.74 70.5,11.54 70.5,8.9 Z M67.2,9.1 C67.2,10.3 66.42,11.1 65.36,11.1 L62.74,11.1 L62.74,7.14 L65.36,7.14 C66.42,7.14 67.2,7.82 67.2,9.1 Z M78.74,10.52 L78.74,7.44 L77.78,7.44 C76.68,7.44 75.62,7.92 75.08,8.84 L75.08,7.44 L72.1,7.44 L72.1,18.5 L75.18,18.5 L75.18,12.62 C75.18,11.08 76.08,10.5 77.6,10.5 C78.02,10.5 78.74,10.52 78.74,10.52 Z M85,18.64 C88.2,18.64 90.48,16.72 90.48,12.98 C90.48,9.22 88.2,7.3 85,7.3 C81.82,7.3 79.54,9.22 79.54,12.98 C79.54,16.72 81.82,18.64 85,18.64 Z M85,9.8 C86.34,9.8 87.34,10.7 87.34,12.98 C87.34,15.24 86.34,16.14 85,16.14 C83.7,16.14 82.68,15.24 82.68,12.98 C82.68,10.7 83.7,9.8 85,9.8 Z M98.08,18.46 L98.08,15.9 C98.08,15.9 97.38,15.96 96.74,15.96 C96.08,15.96 95.88,15.78 95.88,15.1 L95.88,9.92 L98.22,9.92 L98.22,7.44 L95.88,7.44 L95.88,4.5 L92.78,4.5 L92.78,7.44 L91.18,7.44 L91.18,9.92 L92.78,9.92 L92.78,15.26 C92.78,17.32 93.08,18.58 95.66,18.58 C97.06,18.58 98.08,18.46 98.08,18.46 Z M104.48,18.64 C107.68,18.64 109.96,16.72 109.96,12.98 C109.96,9.22 107.68,7.3 104.48,7.3 C101.3,7.3 99.02,9.22 99.02,12.98 C99.02,16.72 101.3,18.64 104.48,18.64 Z M104.48,9.8 C105.82,9.8 106.82,10.7 106.82,12.98 C106.82,15.24 105.82,16.14 104.48,16.14 C103.18,16.14 102.16,15.24 102.16,12.98 C102.16,10.7 103.18,9.8 104.48,9.8 Z M118.48,14.32 C118.28,15.64 117.38,16.14 116.4,16.14 C115.14,16.14 114.14,15.24 114.14,12.98 C114.14,10.7 115.12,9.8 116.44,9.8 C117.48,9.8 118.28,10.32 118.44,11.68 L121.54,11.68 C121.28,8.76 119.2,7.3 116.42,7.3 C113.24,7.3 110.96,9.28 110.96,13.02 C110.96,16.78 113.3,18.64 116.48,18.64 C119.32,18.64 121.24,17.18 121.56,14.32 L118.48,14.32 Z M127.92,18.64 C131.12,18.64 133.4,16.72 133.4,12.98 C133.4,9.22 131.12,7.3 127.92,7.3 C124.74,7.3 122.46,9.22 122.46,12.98 C122.46,16.72 124.74,18.64 127.92,18.64 Z M127.92,9.8 C129.26,9.8 130.26,10.7 130.26,12.98 C130.26,15.24 129.26,16.14 127.92,16.14 C126.62,16.14 125.6,15.24 125.6,12.98 C125.6,10.7 126.62,9.8 127.92,9.8 Z M137.98,18.5 L137.98,3.7 L134.9,3.7 L134.9,18.5 L137.98,18.5 Z M69.52,40.5 L69.52,37.74 L62.76,37.74 L62.76,26.5 L59.6,26.5 L59.6,40.5 L69.52,40.5 Z M77.86,36.26 C77.86,37.2 77.22,38.4 75.4,38.4 C74.22,38.4 73.9,37.66 73.9,37.16 C73.9,36.46 74.44,36.02 75.18,35.88 C75.94,35.72 77.86,35.48 77.86,35.48 L77.86,36.26 Z M71.1,33.06 L74.08,33.06 C74.08,32.62 74.2,31.7 76.02,31.7 C77.5,31.7 77.86,32.22 77.86,32.98 L77.86,33.36 L74.22,33.88 C73.2,34.02 70.74,34.64 70.74,37.16 C70.74,39.38 72.44,40.64 74.72,40.64 C76.62,40.64 77.46,40 77.94,39.5 L77.94,40.5 L81.2,40.5 C81.2,40.5 80.96,39.66 80.96,38.86 L80.96,32.9 C80.96,31.3 80.08,29.3 76.02,29.3 C71.82,29.3 71.14,31.44 71.1,33.06 Z M86.04,40.5 L86.04,39.42 C86.6,40.12 87.58,40.64 88.8,40.64 C91.8,40.64 93.86,38.72 93.86,34.98 C93.86,31.22 91.76,29.3 88.98,29.3 C87.76,29.3 86.6,29.82 86.04,30.52 L86.04,25.7 L82.96,25.7 L82.96,40.5 L86.04,40.5 Z M88.38,31.8 C89.72,31.8 90.72,32.7 90.72,34.98 C90.72,37.24 89.72,38.14 88.38,38.14 C86.88,38.14 86.06,37.44 86.06,34.98 C86.06,32.5 86.88,31.8 88.38,31.8 Z M101.56,32.72 L104.58,32.72 C104.58,31.86 104.14,29.3 99.82,29.3 C97.18,29.3 95.08,30.48 95.08,32.76 C95.08,35.34 97.16,35.88 99.54,36.2 L100.14,36.28 C101,36.4 101.8,36.58 101.8,37.26 C101.8,38.06 100.94,38.38 99.96,38.38 C98.9,38.38 97.96,38.06 97.96,37 L94.86,37 C94.86,37.58 95.12,40.64 99.78,40.64 C103.92,40.64 104.92,38.62 104.92,36.92 C104.92,32.46 98.16,34.24 98.16,32.54 C98.16,31.78 99,31.54 99.78,31.54 C100.84,31.54 101.56,31.96 101.56,32.72 Z" id="Protocol-Labs"></path>
                <path d="M20.9458194,32.8376173 C21.4199634,33.1113024 21.804333,33.7802112 21.804333,34.3252328 L21.804333,43.7449194 C21.804333,44.2928216 21.4174705,44.5137044 20.9458194,44.2414885 L12.7942041,39.5367417 C12.3200601,39.263087 11.9356904,38.5941781 11.9356904,38.0491261 L11.9356904,28.6289144 C11.9356904,28.0809817 12.3225529,27.860099 12.7942041,28.1323453 L20.9458194,32.8376173 Z M33.5193536,24.5276575 C33.5193231,25.0754426 33.1322911,25.7428868 32.6604635,26.0152208 L24.5057991,30.722009 C24.0314777,30.9957824 23.6469643,30.7707969 23.6469643,30.2259221 L23.6469643,20.8087725 C23.6469643,20.2610179 24.0339964,19.5935736 24.5058544,19.3212092 L32.6610441,14.6138958 C33.135396,14.3400919 33.5199093,14.5650776 33.5198789,15.1099827 L33.5193536,24.5276575 Z M31.7279283,12.0245978 C32.2099676,12.30289 32.213538,12.7519876 31.7414756,13.0244688 L23.5827534,17.7337993 C23.1081961,18.0077206 22.3304317,18.0028913 21.8506317,17.7259357 L2.01213796,6.27453567 C1.53007089,5.99627146 1.52652677,5.54714736 1.99864849,5.2746063 L10.1583965,0.564239708 C10.6330136,0.290258177 11.4108037,0.295061443 11.8905761,0.572044911 L31.7279283,12.0245978 Z M10.0930591,36.9810219 C10.0930591,37.5299264 9.70624496,37.7516208 9.23465269,37.4794038 L1.08405511,32.7746381 C0.609970313,32.5009823 0.225648649,31.8253341 0.225648649,31.2713818 L0.225648649,8.36687905 C0.225648649,7.81030926 0.618607612,7.58593937 1.09828471,7.86281285 L20.931697,19.3108182 C21.4136405,19.5889999 21.804333,20.2615296 21.804333,20.8065216 L21.804333,30.2256968 C21.804333,30.7735693 21.414678,30.992823 20.9431751,30.7207008 L10.9542171,24.9556943 C10.4786127,24.6812049 10.0930591,24.908396 10.0930591,25.4525669 L10.0930591,36.9810219 Z M35.3538432,14.0531061 C35.3538933,13.5041773 35.7409168,12.8358057 36.2127148,12.5634713 L44.3668677,7.8566751 C44.8411593,7.58290124 45.2256486,7.81478142 45.2256486,8.36874759 L45.2256486,31.2738219 C45.2256486,31.8304056 44.8326897,32.5084249 44.3530126,32.7852984 L24.5196003,44.2333037 C24.0376567,44.5114854 23.6469643,44.2899528 23.6469643,43.7449308 L23.6469643,34.3252362 C23.6469643,33.7773336 24.0364351,33.1083474 24.5077151,32.8362994 L34.4919509,27.0728649 C34.9673305,26.7984504 35.3527427,26.126265 35.3527923,25.5820701 L35.3538432,14.0531061 Z M25.4197986,6.26301118 C24.9452703,5.98905849 24.9477411,5.54352733 25.4197454,5.27110547 L33.5774625,0.562798906 C34.0519614,0.288937198 34.8237699,0.290401429 35.295773,0.562853033 L43.4534708,5.27167354 C43.9279686,5.54556514 43.9254979,5.99109661 43.4535241,6.26357925 L35.2963322,10.9729361 C34.8218638,11.2468589 34.0500551,11.2453943 33.5780217,10.9728819 L25.4197986,6.26301118 Z" id="Shape"></path>
            </g>
        </g>
    </g>
</svg>