<?xml version="1.0" encoding="utf-8"?>
<!-- Generator: Adobe Illustrator 20.1.0, SVG Export Plug-In . SVG Version: 6.00 Build 0)  -->
<svg version="1.1" id="Layer_1" xmlns="http://www.w3.org/2000/svg" xmlns:xlink="http://www.w3.org/1999/xlink" x="0px" y="0px"
	 viewBox="0 0 212.9 36.9" enable-background="new 0 0 212.9 36.9" xml:space="preserve">
<path fill="#FFFFFF" d="M144.9,2.5v22.8c0,1.8,0.5,3.1,1.4,3.9c0.9,0.8,2.4,1.3,4.5,1.4l0.5-2.8c-0.5-0.1-1-0.2-1.3-0.3
	c-0.4-0.1-0.7-0.3-0.9-0.5c-0.2-0.2-0.4-0.5-0.5-0.8c-0.1-0.4-0.2-0.8-0.2-1.4V2.5H144.9L144.9,2.5z M177.5,2.5v27.2
	c0.8,0.2,1.8,0.4,3,0.7c1.2,0.2,2.6,0.3,4.2,0.3c1.5,0,2.8-0.2,4-0.7c1.2-0.5,2.2-1.1,3-1.9c0.8-0.8,1.5-1.9,1.9-3.1
	c0.5-1.2,0.7-2.6,0.7-4.1c0-1.4-0.2-2.8-0.6-4c-0.4-1.2-0.9-2.3-1.7-3.1c-0.7-0.9-1.7-1.5-2.7-2c-1.1-0.5-2.3-0.7-3.7-0.7
	c-1.1,0-2.1,0.2-2.9,0.5c-0.9,0.3-1.5,0.6-1.9,0.8V2.5H177.5L177.5,2.5z M79,3.6c-0.6,0-1.1,0.2-1.6,0.6c-0.4,0.4-0.6,0.9-0.6,1.6
	c0,0.7,0.2,1.2,0.6,1.6C77.8,7.8,78.4,8,79,8c0.6,0,1.1-0.2,1.6-0.6c0.4-0.4,0.6-1,0.6-1.6c0-0.7-0.2-1.2-0.6-1.6
	C80.1,3.8,79.6,3.6,79,3.6L79,3.6z M65.1,11c-2.2,0-3.9,0.5-5.1,1.4c-1.3,1-1.9,2.3-1.9,4c0,0.8,0.1,1.5,0.4,2.1
	c0.3,0.6,0.7,1.1,1.2,1.5c0.5,0.4,1.1,0.8,1.7,1.1c0.7,0.3,1.4,0.6,2.1,0.9c1.5,0.6,2.6,1.1,3.3,1.6c0.7,0.5,1,1.1,1,1.9
	c0,0.8-0.3,1.4-1,1.7c-0.7,0.4-1.7,0.6-3.1,0.6c-1.4,0-2.6-0.1-3.4-0.4c-0.8-0.3-1.4-0.5-1.8-0.6v3.1c0.3,0.1,0.7,0.2,1.3,0.4
	c1,0.3,2.3,0.4,4,0.4c2.4,0,4.3-0.4,5.6-1.3c1.3-0.9,2-2.2,2-4c0-0.9-0.1-1.6-0.4-2.2c-0.3-0.6-0.6-1.1-1.1-1.6
	c-0.5-0.4-1.1-0.8-1.9-1.1c-0.7-0.3-1.5-0.7-2.4-1c-0.7-0.2-1.3-0.5-1.8-0.7c-0.5-0.2-0.9-0.4-1.3-0.7c-0.3-0.3-0.6-0.5-0.7-0.9
	c-0.2-0.3-0.2-0.7-0.2-1.1c0-0.8,0.4-1.4,1.1-1.8c0.7-0.4,1.6-0.6,2.5-0.6c1.1,0,2,0.1,2.8,0.3c0.8,0.2,1.4,0.4,1.7,0.6v-3.1
	c-0.1,0-0.1,0-0.2-0.1c-0.4-0.1-0.8-0.2-1.2-0.3c-0.5-0.1-1-0.2-1.5-0.2C66.2,11,65.7,11,65.1,11L65.1,11z M162.8,11
	c-1.2,0-2.3,0.1-3.4,0.3c-0.8,0.1-1.3,0.3-1.8,0.4v2.9c0.4-0.2,1-0.3,1.9-0.5c0.9-0.2,1.8-0.2,3-0.2c0.9,0,1.6,0.1,2.2,0.4
	c0.6,0.3,1,0.6,1.3,1c0.3,0.4,0.6,0.9,0.7,1.5c0.1,0.5,0.2,1.1,0.2,1.7v0.9c-0.1,0-0.3-0.1-0.5-0.1c-0.2-0.1-0.5-0.1-0.8-0.2
	c-0.3-0.1-0.7-0.1-1.1-0.1c-0.4,0-0.7,0-1.1,0c-1.1,0-2.1,0.1-3.1,0.3c-1,0.2-1.8,0.5-2.6,1c-0.7,0.5-1.3,1.1-1.7,1.8
	c-0.4,0.7-0.7,1.6-0.7,2.7c0,1.1,0.2,2,0.5,2.8c0.4,0.8,0.9,1.4,1.6,1.9c0.7,0.5,1.5,0.8,2.4,1c0.9,0.2,1.9,0.3,3,0.3
	c0.8,0,1.5,0,2.3-0.1c0.8-0.1,1.5-0.1,2.1-0.2c0.7-0.1,1.3-0.1,1.8-0.2c0.5-0.1,1-0.2,1.3-0.2V18.2c0-1.1-0.1-2-0.4-2.9
	c-0.2-0.9-0.7-1.6-1.3-2.3c-0.6-0.6-1.3-1.1-2.3-1.5C165.4,11.1,164.2,11,162.8,11L162.8,11z M206.6,11c-2.2,0-3.9,0.5-5.1,1.4
	c-1.3,1-1.9,2.3-1.9,4c0,0.8,0.2,1.5,0.4,2.1c0.3,0.6,0.7,1.1,1.2,1.5c0.5,0.4,1.1,0.8,1.8,1.1c0.7,0.3,1.4,0.6,2.1,0.9
	c1.5,0.6,2.6,1.1,3.3,1.6c0.7,0.5,1,1.1,1,1.9c0,0.8-0.3,1.4-1,1.7c-0.7,0.4-1.7,0.6-3.1,0.6c-1.4,0-2.6-0.1-3.5-0.4
	c-0.9-0.3-1.5-0.5-1.8-0.6v3.1c0.3,0.1,0.8,0.2,1.3,0.4c1,0.3,2.3,0.4,4,0.4c2.4,0,4.3-0.4,5.6-1.3c1.3-0.9,2-2.2,2-4
	c0-0.9-0.1-1.6-0.4-2.2c-0.3-0.6-0.7-1.1-1.2-1.6c-0.5-0.4-1.1-0.8-1.8-1.1c-0.7-0.3-1.5-0.7-2.4-1c-0.7-0.2-1.3-0.5-1.8-0.7
	c-0.5-0.2-0.9-0.4-1.2-0.7c-0.3-0.3-0.6-0.5-0.7-0.9c-0.2-0.3-0.2-0.7-0.2-1.1c0-0.8,0.4-1.4,1.1-1.8c0.7-0.4,1.5-0.6,2.5-0.6
	c1.1,0,2.1,0.1,2.9,0.3c0.8,0.2,1.3,0.4,1.7,0.6v-3.1c-0.1,0-0.1,0-0.1-0.1c-0.4-0.1-0.8-0.2-1.2-0.3c-0.5-0.1-1-0.2-1.5-0.2
	C207.7,11,207.2,11,206.6,11L206.6,11z M94.6,11c-1.2,0-2.3,0.2-3.2,0.3c-1.3,0.2-2.3,0.4-3.1,0.6v18.3h3.4V14.4
	c0.1,0,0.3-0.1,0.6-0.1c0.3,0,0.6-0.1,1-0.1c0.4,0,0.7,0,1.1-0.1c0.4,0,0.8-0.1,1.1-0.1c0.8,0,1.5,0.1,2,0.4
	c0.5,0.3,0.9,0.6,1.2,1.2c0.3,0.5,0.5,1.2,0.6,2c0.1,0.8,0.2,1.7,0.2,2.9v9.8h3.4V19.7c0-0.8-0.1-1.6-0.1-2.4
	c-0.1-0.7-0.3-1.4-0.4-2c0.3-0.2,0.8-0.5,1.5-0.8c0.8-0.3,1.7-0.5,2.9-0.5c0.8,0,1.5,0.1,2.1,0.4c0.5,0.3,0.9,0.6,1.2,1.2
	c0.3,0.5,0.5,1.2,0.6,2c0.1,0.8,0.2,1.7,0.2,2.9v9.8h3.4V19.7c0-1.3-0.1-2.4-0.3-3.4c-0.2-1.1-0.5-2-1.1-2.8
	c-0.5-0.8-1.3-1.4-2.2-1.8c-0.9-0.4-2.1-0.6-3.6-0.6c-0.8,0-1.5,0.1-2.1,0.2c-0.7,0.2-1.3,0.3-1.8,0.5c-0.5,0.2-1,0.4-1.4,0.6
	c-0.4,0.2-0.6,0.4-0.8,0.5c-0.6-0.6-1.3-1.1-2.1-1.4c-0.8-0.3-1.9-0.5-3.1-0.5C95.4,11,95,11,94.6,11L94.6,11z M127.7,11
	c-1.1,0-2.2,0.2-3.1,0.3c-1.2,0.2-2.2,0.5-3.1,0.7v24.9h3.4v-7.5c0.4,0.3,1.1,0.5,1.9,0.8c0.9,0.3,1.8,0.4,2.9,0.4
	c1.4,0,2.6-0.2,3.7-0.7c1.1-0.5,2-1.2,2.7-2c0.7-0.9,1.3-1.9,1.7-3.1c0.4-1.2,0.6-2.5,0.6-4c0-1.5-0.2-2.9-0.7-4.1
	c-0.5-1.2-1.1-2.3-1.9-3.1c-0.8-0.8-1.9-1.5-3-1.9c-1.2-0.5-2.5-0.7-4-0.7C128.5,11,128.1,11,127.7,11L127.7,11z M77.3,11.4v18.8
	h3.4V11.4H77.3L77.3,11.4z M185.3,14c1,0,1.8,0.2,2.5,0.5c0.7,0.4,1.3,0.8,1.7,1.5c0.4,0.6,0.8,1.3,1,2.2c0.2,0.8,0.3,1.8,0.3,2.7
	c0,2.2-0.5,3.9-1.7,5.1c-1.1,1.2-2.6,1.8-4.5,1.8c-0.9,0-1.7,0-2.3-0.1c-0.6-0.1-1.1-0.2-1.5-0.3V15.4c0.4-0.3,1-0.7,1.8-1
	C183.5,14.1,184.3,14,185.3,14L185.3,14z M128.9,14c1.8,0,3.3,0.6,4.4,1.8c1.1,1.2,1.6,2.9,1.6,5c0,1-0.1,1.9-0.3,2.7
	c-0.2,0.8-0.5,1.6-1,2.2c-0.4,0.6-1,1.1-1.7,1.5c-0.7,0.4-1.5,0.5-2.5,0.5c-0.9,0-1.8-0.2-2.6-0.5c-0.8-0.3-1.4-0.6-1.8-1V14.4
	c0.3-0.1,0.8-0.2,1.4-0.2C127,14.1,127.8,14,128.9,14L128.9,14z M163.7,21.5c0.8,0,1.4,0,2,0.1c0.6,0.1,1,0.2,1.2,0.3v5.6
	c-0.4,0.1-0.9,0.2-1.6,0.2c-0.6,0-1.3,0-2.2,0c-1.4,0-2.4-0.2-3.2-0.7c-0.8-0.5-1.2-1.3-1.2-2.5c0-0.7,0.2-1.2,0.5-1.6
	c0.3-0.4,0.7-0.7,1.2-0.9c0.5-0.2,1-0.4,1.6-0.5C162.6,21.6,163.1,21.5,163.7,21.5L163.7,21.5L163.7,21.5z"/>
<path fill="#7F7F7F" d="M3,8.3c-1.9,2.9-3,6.3-3,10c0,3.2,0.8,6.1,2.2,8.7c0,0.1,0.1,0.1,0.1,0.2c3.1,5.6,9,9.4,15.9,9.4h0.3
	l1.1-21.5h-1.1l-2,1.4L3,8.3L3,8.3z"/>
<path fill="#7F7F7F" d="M18.4,0l-0.1,15.4l-5.5,2.5L34,27c1.4-2.6,2.2-5.5,2.2-8.7c0-3.5-1-6.7-2.7-9.4l0,0
	C30.5,3.6,24.9,0.1,18.4,0L18.4,0z"/>
<path fill="#AAAAAA" d="M18.5,17.8v18.8c6.9-0.1,12.9-4.2,15.8-10L18.5,17.8L18.5,17.8z"/>
<path fill="#606060" d="M18.1,0C11.6,0,6,3.5,2.8,8.6l15.8,9.2L18.4,0H18.1L18.1,0z"/>
</svg>
