<?xml version="1.0" encoding="UTF-8"?>
<svg width="393px" height="50px" viewBox="0 0 393 50" version="1.1" xmlns="http://www.w3.org/2000/svg" xmlns:xlink="http://www.w3.org/1999/xlink">
    <!-- Generator: Sketch 41.2 (35397) - http://www.bohemiancoding.com/sketch -->
    <title>Zig</title>
    <desc>Created with Sketch.</desc>
    <defs></defs>
    <g id="Index-Designs" stroke="none" stroke-width="1" fill="none" fill-rule="evenodd">
        <g id="Offline-Camp-Index---Berlin" transform="translate(-712.000000, -4256.000000)" fill="#FF99C6">
            <g id="Page" transform="translate(-103.000000, 0.000000)">
                <g id="Zig" transform="translate(815.000000, 4256.000000)">
                    <path d="M49.4766594,12.7487373 L49.4974747,12.7279221 L36.7695526,-3.69482223e-13 L36.7487373,0.0208152802 L36.7279221,-3.71258579e-13 L24,12.7279221 L24.0208153,12.7487373 L5.40012479e-13,36.7695526 L12.7279221,49.4974747 L36.7487373,25.4766594 L60.7695526,49.4974747 L61.2487373,49.01829 L61.7279221,49.4974747 L98.4974747,12.7279221 L85.7695526,-3.69482223e-13 L61.2487373,24.5208153 L49.4766594,12.7487373 Z" id="Combined-Shape"></path>
                    <path d="M98.4766594,12.7487373 L98.4974747,12.7279221 L85.7695526,-3.69482223e-13 L85.7487373,0.0208152802 L85.7279221,-3.71258579e-13 L73,12.7279221 L73.0208153,12.7487373 L49,36.7695526 L61.7279221,49.4974747 L85.7487373,25.4766594 L109.769553,49.4974747 L110.248737,49.01829 L110.727922,49.4974747 L147.497475,12.7279221 L134.769553,-3.69482223e-13 L110.248737,24.5208153 L98.4766594,12.7487373 Z" id="Combined-Shape-Copy"></path>
                    <path d="M147.476659,12.7487373 L147.497475,12.7279221 L134.769553,-3.69482223e-13 L134.748737,0.0208152802 L134.727922,-3.71258579e-13 L122,12.7279221 L122.020815,12.7487373 L98,36.7695526 L110.727922,49.4974747 L134.748737,25.4766594 L158.769553,49.4974747 L159.248737,49.01829 L159.727922,49.4974747 L196.497475,12.7279221 L183.769553,-3.69482223e-13 L159.248737,24.5208153 L147.476659,12.7487373 Z" id="Combined-Shape-Copy-2"></path>
                    <path d="M196.476659,12.7487373 L196.497475,12.7279221 L183.769553,4.54747351e-13 L183.748737,0.0208152802 L183.727922,4.52970994e-13 L171,12.7279221 L171.020815,12.7487373 L147,36.7695526 L159.727922,49.4974747 L183.748737,25.4766594 L207.769553,49.4974747 L208.248737,49.01829 L208.727922,49.4974747 L245.497475,12.7279221 L232.769553,4.54747351e-13 L208.248737,24.5208153 L196.476659,12.7487373 Z" id="Combined-Shape-Copy-3"></path>
                    <path d="M245.476659,12.7487373 L245.497475,12.7279221 L232.769553,-3.69482223e-13 L232.748737,0.0208152802 L232.727922,-3.71258579e-13 L220,12.7279221 L220.020815,12.7487373 L196,36.7695526 L208.727922,49.4974747 L232.748737,25.4766594 L256.769553,49.4974747 L257.248737,49.01829 L257.727922,49.4974747 L294.497475,12.7279221 L281.769553,-3.69482223e-13 L257.248737,24.5208153 L245.476659,12.7487373 Z" id="Combined-Shape-Copy-4"></path>
                    <path d="M294.476659,12.7487373 L294.497475,12.7279221 L281.769553,-3.69482223e-13 L281.748737,0.0208152802 L281.727922,-3.71258579e-13 L269,12.7279221 L269.020815,12.7487373 L245,36.7695526 L257.727922,49.4974747 L281.748737,25.4766594 L305.769553,49.4974747 L306.248737,49.01829 L306.727922,49.4974747 L343.497475,12.7279221 L330.769553,-3.69482223e-13 L306.248737,24.5208153 L294.476659,12.7487373 Z" id="Combined-Shape-Copy-5"></path>
                    <path d="M343.476659,12.7487373 L343.497475,12.7279221 L330.769553,0 L330.748737,0.0208152802 L330.727922,-1.77635684e-15 L318,12.7279221 L318.020815,12.7487373 L294,36.7695526 L306.727922,49.4974747 L330.748737,25.4766594 L354.769553,49.4974747 L355.248737,49.01829 L355.727922,49.4974747 L392.497475,12.7279221 L379.769553,0 L355.248737,24.5208153 L343.476659,12.7487373 Z" id="Combined-Shape-Copy-6"></path>
                </g>
            </g>
        </g>
    </g>
</svg>