<?xml version="1.0" encoding="utf-8"?>
<!-- Generator: Adobe Illustrator 18.1.1, SVG Export Plug-In . SVG Version: 6.00 Build 0)  -->
<svg version="1.1" id="Ebene_1" xmlns="http://www.w3.org/2000/svg" xmlns:xlink="http://www.w3.org/1999/xlink" x="0px" y="0px"
	 viewBox="4.3 138.9 953.1 219.7" enable-background="new 4.3 138.9 953.1 219.7" xml:space="preserve">
<g id="Layer_1" display="none">
	<g id="Subline_white_1_" display="inline">
		<path fill="#21409A" d="M33.3,374.8c-2.2,0-3.6,1.7-3.6,3.6v14.4H11.5v-14.4c0-2.2-1.7-3.6-3.6-3.6s-3.6,1.7-3.6,3.6v36.4
			c0,1.9,1.7,3.6,3.6,3.6s3.6-1.7,3.6-3.6v-15.3h18.2v15.3c0,1.9,1.7,3.6,3.6,3.6c2.2,0,3.6-1.7,3.6-3.6v-36.4
			C37.1,376.5,35.4,374.8,33.3,374.8z"/>
		<path fill="#21409A" d="M63.2,374.3c-12.9,0-20.1,7.2-20.1,22.3c0,14.8,7.4,22.3,20.1,22.3s20.1-7.4,20.1-22.3
			C83.3,381.5,76.1,374.3,63.2,374.3z M63.2,412.4c-8.4,0-12.5-5.3-12.5-15.6c0-10.5,4.1-15.8,12.5-15.8s12.5,5.3,12.5,15.8
			C75.7,407.2,71.6,412.4,63.2,412.4z"/>
		<path fill="#21409A" d="M108,374.3c-12.9,0-20.1,7.2-20.1,22.3c0,14.8,7.4,22.3,20.1,22.3s20.1-7.4,20.1-22.3
			C128.1,381.5,120.7,374.3,108,374.3z M108,412.4c-8.4,0-12.5-5.3-12.5-15.6c0-10.5,4.1-15.8,12.5-15.8s12.5,5.3,12.5,15.8
			C120.4,407.2,116.4,412.4,108,412.4z"/>
		<path fill="#21409A" d="M146.3,375.3h-8.6c-1.9,0-3.6,1.7-3.6,3.6v35.4c0,1.9,1.7,3.6,3.6,3.6h8.6c12.7,0,20.6-5.7,20.6-21.3
			S159,375.3,146.3,375.3z M146.3,411.5h-4.8v-29.7h4.8c8.1,0,12.9,3.8,12.9,14.8C159.5,407.9,154.5,411.5,146.3,411.5z"/>
		<path fill="#21409A" d="M172.9,410.3c-2.6,0-4.3,1.4-4.3,4.3s1.4,4.1,4.3,4.1c2.9,0,4.1-1.4,4.1-4.1
			C177.2,411.7,175.8,410.3,172.9,410.3z"/>
		<path fill="#21409A" d="M184.6,374.8c-2.2,0-3.6,1.7-3.6,3.6v36.4c0,1.9,1.7,3.6,3.6,3.6s3.6-1.7,3.6-3.6v-36.4
			C188.2,376.5,186.5,374.8,184.6,374.8z"/>
		<path fill="#21409A" d="M220.8,411.5H204v-11.7h12c1.7,0,3.4-1.4,3.4-3.4c0-1.7-1.4-3.4-3.4-3.4h-12v-11.5h16
			c1.9,0,3.4-1.4,3.4-3.4c0-1.9-1.4-3.4-3.4-3.4h-19.9c-2.2,0-3.6,1.7-3.6,3.6v35.4c0,1.9,1.7,3.6,3.6,3.6h20.6
			c1.9,0,3.4-1.4,3.4-3.4C224.1,412.9,222.7,411.5,220.8,411.5z"/>
	</g>
	<path display="inline" fill="#21409A" d="M214.1,322.4c3.1,2.9,6.2,5.3,9.6,7.7V167.5c-3.4,2.4-6.5,5-9.6,7.7V322.4z"/>
	<path display="inline" fill="#21409A" d="M30.2,148.8h41.9c8.9,0,16.3,7.2,16.3,16.3c0,14.1,11.5,25.9,25.9,25.9
		s25.9-11.5,25.9-25.9c0-8.9,7.2-16.3,16.3-16.3h41.9c8.1,0,14.8,6.2,16,14.1c2.6-2.2,5.5-4.1,8.4-6c-3.8-10.3-13.4-17.7-24.9-17.7
		H156c-14.1,0-25.9,11.5-25.9,25.9c0,8.9-7.2,16.3-16.3,16.3s-16.3-7.2-16.3-16.3c0.5-14.4-11.3-25.9-25.4-25.9H30.2
		c-14.1,0-25.9,11.5-25.9,25.9v167.6c0,14.1,11.5,25.9,25.9,25.9h41.9c14.1,0,25.9-11.5,25.9-25.9c0-8.9,7.2-16.3,16.3-16.3
		s16.3,7.2,16.3,16.3c0,14.1,11.5,25.9,25.9,25.9h41.9c11.3,0,21.1-7.4,24.4-17.5c-2.9-1.9-5.7-3.8-8.4-6c-1,7.9-7.9,14.1-16,14.1
		H156c-8.9,0-16.3-7.2-16.3-16.3c0-14.1-11.5-25.9-25.9-25.9s-25.9,11.5-25.9,25.9c0,8.9-7.2,16.3-16.3,16.3H30.2
		c-8.9,0-16.3-7.2-16.3-16.3V165.3C13.9,156,21.3,148.8,30.2,148.8z"/>
	<path display="inline" fill="#009444" d="M214.1,175.1c3.1-2.9,6.2-5.3,9.6-7.7c16.3-11.7,36.4-18.7,58.2-18.7
		c31.4,0,59.6,14.6,77.8,37.4c1.9-2.6,3.8-5.3,6-7.9c-20.1-23.9-50.3-39-83.8-39c-21.8,0-42.4,6.5-59.4,17.5c-2.9,1.9-5.7,3.8-8.4,6
		c-25.4,20.1-41.7,51.2-41.7,86s16.3,65.9,41.7,86c2.6,2.2,5.5,4.1,8.4,6c17.2,11,37.6,17.5,59.4,17.5c33.5,0,63.7-15.3,83.8-39
		c-2.2-2.4-4.1-5-6-7.9c-18.4,22.7-46.5,37.4-77.8,37.4c-21.6,0-41.7-6.9-58.2-18.7c-3.4-2.4-6.5-5-9.6-7.7
		c-19.9-18.2-32.3-44.5-32.3-73.5S194.2,193.6,214.1,175.1z"/>
	<path display="inline" fill="#009444" d="M365.4,194.3c10.3,15.6,16.3,34.5,16.3,54.4s-6,38.8-16.3,54.4c1.9,2.9,3.8,5.5,6,8.1
		c12.5-17.7,19.9-39.3,19.9-62.7s-7.4-44.8-19.9-62.7C369.2,188.8,367.3,191.4,365.4,194.3z"/>
	<path display="inline" fill="#FBB040" d="M371.4,186.1c18.4-22.7,46.5-37.4,78.1-37.4c21.6,0,41.7,6.9,58.2,18.7V165
		c0-2.9,0.7-5.5,1.7-7.9c-17.2-11.3-37.8-17.7-59.9-17.7c-33.5,0-63.7,15.3-83.8,39c-2.2,2.4-4.1,5-6,7.9
		c-12.5,17.7-19.9,39.3-19.9,62.7s7.4,44.8,19.9,62.7c1.9,2.6,3.8,5.3,6,7.9c20.1,23.9,50.3,39,83.8,39c22,0,42.6-6.5,59.9-17.7
		c-1.2-2.4-1.7-5.3-1.7-7.9v-2.4c-16.3,11.7-36.4,18.7-58.2,18.7c-31.4,0-59.6-14.6-77.8-37.4c-2.2-2.6-4.1-5.5-6-8.1
		c-10.3-15.6-16.3-34.2-16.3-54.4s6-38.8,16.3-54.4C367.3,191.4,369.2,188.8,371.4,186.1z"/>
	<path display="inline" fill="#FBB040" d="M517.2,162.9c-0.2,0.7-0.2,1.4-0.2,2.2v10.1c19.9,18.2,32.3,44.5,32.3,73.5
		S536.8,304,517,322.2v10.3c0,0.7,0,1.4,0.2,2.2c25.4-20.1,41.7-51,41.7-86C558.9,213.9,542.6,183,517.2,162.9z"/>
	<path display="inline" fill="#F15A29" d="M517,175.1v-10.3c0-0.7,0-1.4,0.2-2.2c1.7-7.9,13.2-14.1,26.3-14.1h73.3
		c21.6,0,41.7,6.9,58.2,18.7v-2.4c0-2.9,0.5-5.5,1.7-8.1c-17.2-11-37.6-17.5-59.6-17.5h-73.5c-16.5,0-29.9,7.4-34.5,17.7
		c-1.2,2.4-1.7,5.3-1.7,7.9v2.4v162.6v2.4c0,2.9,0.7,5.5,1.7,7.9c4.5,10.5,18.2,17.7,34.5,17.7h73.3c22,0,42.4-6.5,59.6-17.7
		c-1-2.6-1.7-5.3-1.7-7.9v-2.4c-16.3,11.7-36.4,18.7-58.2,18.7h-73c-13.4,0-24.7-6.2-26.3-14.1c-0.2-0.7-0.2-1.4-0.2-2.2v-10.3
		L517,175.1L517,175.1z"/>
	<path display="inline" fill="#F15A29" d="M684.9,162.9c0,0.7-0.2,1.4-0.2,2.2v10.1c19.9,18.2,32.3,44.5,32.3,73.5
		s-12.5,55.3-32.3,73.5v10.3c0,0.7,0,1.4,0.2,2.2c25.4-20.1,41.7-51.2,41.7-86S710.2,183,684.9,162.9z"/>
	<path display="inline" fill="#603913" d="M779.9,322.4c3.1,2.9,6.2,5.3,9.6,7.7V167.5c-3.4,2.4-6.5,5-9.6,7.7V322.4z"/>
	<path display="inline" fill="#392315" d="M684.6,175.1v-10.3c0-0.7,0-1.4,0.2-2.2c1.4-7.9,10.3-14.1,21.3-14.1h52.4
		c10.8,0,19.9,6.2,21.3,14.1c2.6-2.2,5.3-4.1,8.1-6c-4.1-10.3-15.8-17.7-29.5-17.7H706c-13.6,0-25.4,7.4-29.5,17.7
		c-1,2.6-1.7,5.3-1.7,8.1v2.4v162.6v2.4c0,2.9,0.5,5.5,1.7,7.9c4.1,10.3,15.8,17.7,29.5,17.7h52.4c13.6,0,25.4-7.4,29.5-17.7
		c-2.9-1.9-5.5-3.8-8.1-6c-1.4,7.9-10.3,14.1-21.3,14.1h-52.4c-10.8,0-19.9-6.2-21.3-14.1c0-0.7-0.2-1.4-0.2-2.2v-10.3V175.1
		L684.6,175.1z"/>
	<path display="inline" fill="#BE1E2D" d="M931.5,139.2h-83.8c-22,0-42.4,6.5-59.6,17.7c-2.9,1.9-5.5,3.8-8.1,6
		c-25.4,20.1-41.7,51.2-41.7,86s16.3,65.9,41.7,86c2.6,2.2,5.3,4.1,8.1,6c17.2,11.3,37.6,17.7,59.6,17.7h83.8
		c14.1,0,25.9-11.5,25.9-25.9v-31.6c0-8.6-4.3-16.3-10.8-20.8c6.5-4.5,10.8-12.2,10.8-21.1v-21.1c0-9.1-4.5-16.3-11-20.8
		c6.7-4.5,11-12.5,11-21.1v-31.1C957.1,150.7,945.6,139.2,931.5,139.2z M947.5,196.4c0,8.9-7.2,16.3-16.3,16.3v9.6
		c7.7,0,16.3,6.7,16.3,16.3v21.1c0,9.1-7.2,16.3-16.3,16.3v9.6c8.9,0,16.3,7.2,16.3,16.3v31.4c0,8.9-7.2,16.3-16.3,16.3h-83.8
		c-21.6,0-41.7-6.9-58.2-18.7c-3.4-2.4-6.5-5-9.6-7.7c-19.9-18.2-32.3-44.5-32.3-73.5s12.5-55.3,32.3-73.5c3.1-2.9,6.2-5.3,9.6-7.7
		c16.5-12.7,36.6-19.6,58.4-19.6h83.8c8.9,0,16.3,7.2,16.3,16.3v31.4h-0.2V196.4z"/>
</g>
<path fill="#293641" d="M214.1,175.1v147c3.1,2.9,6.2,5.3,9.6,7.7V167.5C220.3,169.8,217,172.5,214.1,175.1z"/>
<path fill="#293641" d="M197.8,348.7h-41.9c-8.9,0-16.3-7.2-16.3-16.3c0-14.1-11.5-25.9-25.9-25.9S87.8,318,87.8,332.4
	c0,8.9-7.2,16.3-16.3,16.3H30.2c-8.9,0-16.3-7.2-16.3-16.3V164.8c0-8.9,7.4-16,16.3-16h41.9c8.9,0,16.3,7.2,16.3,16.3
	c0,14.1,11.5,25.9,25.9,25.9s25.9-11.5,25.9-25.9c0-8.9,7.2-16.3,16.3-16.3h41.9c8.1,0,14.8,6.2,16,14.1c2.6-2.2,5.5-4.1,8.4-6
	c-3.8-10.3-13.4-17.7-24.9-17.7H156c-14.1,0-25.9,11.5-25.9,25.9c0,8.9-7.2,16.3-16.3,16.3s-16.3-7.2-16.3-16.3
	c0.5-14.4-11.3-25.9-25.4-25.9H30.2c-14.1,0-25.9,11.5-25.9,25.9v167.6c0,14.1,11.5,25.9,25.9,25.9h41.9c14.1,0,25.9-11.5,25.9-25.9
	c0-8.9,7.2-16.3,16.3-16.3s16.3,7.2,16.3,16.3c0,14.1,11.5,25.9,25.9,25.9h41.9c11.3,0,21.1-7.4,24.4-17.5c-2.9-1.9-5.7-3.8-8.4-6
	C212.9,342.7,205.9,348.7,197.8,348.7z"/>
<path fill="#293641" d="M281.6,348.7c-21.6,0-41.7-6.9-58.2-18.7c-3.4-2.4-6.5-5-9.6-7.7c-19.9-18.2-32.3-44.5-32.3-73.5
	s12.7-55.3,32.6-73.8c3.1-2.9,6.2-5.3,9.6-7.7c16.3-11.7,36.4-18.7,58.2-18.7c31.4,0,59.6,14.6,77.8,37.4c1.9-2.6,3.8-5.3,6-7.9
	c-20.1-23.9-50.3-39-83.8-39c-21.8,0-42.4,6.5-59.4,17.5c-2.9,1.9-5.7,3.8-8.4,6c-25.4,20.1-41.7,51.2-41.7,86s16.3,65.9,41.7,86
	c2.6,2.2,5.5,4.1,8.4,6c17.2,11,37.6,17.5,59.4,17.5c33.5,0,63.7-15.3,83.8-39c-2.2-2.4-4.1-5-6-7.9
	C341.2,334.1,313.2,348.7,281.6,348.7z"/>
<path fill="#293641" d="M371.4,186.1c-2.2,2.6-4.1,5.5-6,8.1c10.3,15.6,16.3,34.5,16.3,54.4s-6,38.8-16.3,54.4
	c1.9,2.9,3.8,5.5,6,8.1c12.5-17.7,19.9-39.3,19.9-62.7S383.9,203.9,371.4,186.1z"/>
<path fill="#293641" d="M507.4,330c-16.3,11.7-36.4,18.7-58.2,18.7c-31.4,0-59.6-14.6-77.8-37.4c-2.2-2.6-4.1-5.5-6-8.1
	c-10.3-15.6-16.3-34.2-16.3-54.4s6-38.8,16.3-54.4c1.9-2.9,3.8-5.5,6-8.1c18.4-23,46.5-37.6,78.1-37.6c21.6,0,41.7,6.9,58.2,18.7
	V165c0-2.9,0.7-5.5,1.7-7.9c-17.2-11.3-37.8-17.7-59.9-17.7c-33.5,0-63.7,15.3-83.8,39c-2.2,2.4-4.1,5-6,7.9
	c-12.5,17.7-19.9,39.3-19.9,62.7s7.4,44.8,19.9,62.7c1.9,2.6,3.8,5.3,6,7.9c20.1,23.9,50.3,39,83.8,39c22,0,42.6-6.5,59.9-17.7
	c-1.2-2.4-1.7-5.3-1.7-7.9L507.4,330L507.4,330z"/>
<path fill="#293641" d="M558.9,248.9c0-34.7-16.3-65.9-41.7-86c-0.2,0.7-0.2,1.4-0.2,2.2v10.1c19.9,18.2,32.3,44.5,32.3,73.5
	S536.8,304,517,322.2v10.3c0,0.7,0,1.4,0.2,2.2C542.6,314.5,558.9,283.6,558.9,248.9z"/>
<path fill="#293641" d="M543.6,148.8c-13.4,0-24.7,6.2-26.3,14.1c-0.2,0.7-0.2,1.4-0.2,2.2v10.1v147v10.3c0,0.7,0,1.4,0.2,2.2
	c1.7,7.9,13.2,14.1,26.3,14.1h73.3c21.6,0,41.7-6.9,58.2-18.7v2.4c0,2.9,0.5,5.5,1.7,7.9c-17.2,11.3-37.6,17.7-59.6,17.7h-73.5
	c-16.5,0-29.9-7.4-34.5-17.7c-1.2-2.4-1.7-5.3-1.7-7.9V330V167.5v-2.4c0-2.9,0.7-5.5,1.7-7.9c4.5-10.5,18.2-18,34.5-18H617
	c22,0,42.4,6.5,59.6,17.7c-1,2.6-1.7,5.3-1.7,8.1v2.4c-16-11.7-36.2-18.7-57.7-18.7L543.6,148.8L543.6,148.8z"/>
<path fill="#293641" d="M726.5,248.9c0-34.7-16.3-65.9-41.7-86c0,0.7-0.2,1.4-0.2,2.2v10.1c19.9,18.2,32.3,44.5,32.3,73.5
	s-12.5,55.3-32.3,73.5v10.3c0,0.7,0,1.4,0.2,2.2C710.2,314.7,726.5,283.6,726.5,248.9z"/>
<path fill="#293641" d="M779.9,175.1v147c3.1,2.9,6.2,5.3,9.6,7.7V167.5C786.2,169.8,783,172.5,779.9,175.1z"/>
<path fill="#293641" d="M758.6,348.7h-52.4c-10.8,0-19.9-6.2-21.3-14.1c0-0.7-0.2-1.4-0.2-2.2v-10.3v-147v-10.3c0-0.7,0-1.4,0.2-2.2
	c1.4-7.9,10.3-14.1,21.3-14.1h52.4c10.8,0,19.9,6.2,21.3,14.1c2.6-2.2,5.3-4.1,8.1-6c-4.1-10.3-15.8-17.7-29.5-17.7h-52.4
	c-13.6,0-25.4,7.4-29.5,17.7c-1,2.6-1.7,5.3-1.7,8.1v2.4v162.6v2.4c0,2.9,0.5,5.5,1.7,7.9c4.1,10.3,15.8,17.7,29.5,17.7h52.4
	c13.6,0,25.4-7.4,29.5-17.7c-2.9-1.9-5.5-3.8-8.1-6C778.2,342.7,769.4,348.7,758.6,348.7z"/>
<path fill="#293641" d="M957.1,196.4V165c0-14.4-11.5-25.9-25.6-25.9h-83.8c-22,0-42.4,6.5-59.6,17.7c-2.9,1.9-5.5,3.8-8.1,6
	c-25.4,20.1-41.7,51.2-41.7,86s16.3,65.9,41.7,86c2.6,2.2,5.3,4.1,8.1,6c17.2,11.3,37.6,17.7,59.6,17.7h83.8
	c14.1,0,25.9-11.5,25.9-25.9V301c0-8.6-4.3-16.3-10.8-20.8c6.5-4.5,10.8-12.2,10.8-21.1V238c0-9.1-4.5-16.3-11-20.8
	C952.8,212.7,957.1,205,957.1,196.4z M947.5,196.4c0,8.9-7.2,16.3-16.3,16.3v9.6c7.7,0,16.3,6.7,16.3,16.3v21.1
	c0,9.1-7.2,16.3-16.3,16.3v9.6c8.9,0,16.3,7.2,16.3,16.3v31.4c0,8.9-7.2,16.3-16.3,16.3h-83.8c-21.6,0-41.7-6.9-58.2-18.7
	c-3.4-2.4-6.5-5-9.6-7.7c-19.9-18.2-32.3-44.5-32.3-73.5s12.5-55.3,32.3-73.5c3.1-2.9,6.2-5.3,9.6-7.7
	c16.5-12.7,36.6-19.6,58.4-19.6h83.8c8.9,0,16.3,7.2,16.3,16.3v31.4h-0.2V196.4z"/>
</svg>
