<?xml version="1.0" encoding="utf-8"?>
<!-- Generator: Adobe Illustrator 18.1.1, SVG Export Plug-In . SVG Version: 6.00 Build 0)  -->
<svg version="1.1" id="MY_NEW_LOGO" xmlns="http://www.w3.org/2000/svg" xmlns:xlink="http://www.w3.org/1999/xlink" x="0px"
	 y="0px" viewBox="0 0 81.9 30.7" enable-background="new 0 0 81.9 30.7" xml:space="preserve">
<g>
	<path d="M16.9,24.4h23.5c0,0.5-0.5,1.8-0.7,2.1H16.9V24.4z"/>
	<path d="M16.9,4.1h22.8c0.2,0.4,0.6,1.7,0.7,2.1H16.9V4.1z"/>
	<path d="M21.2,16.2h16.3c0.5,0.4,1.5,1.6,1.9,2.1H21.2V16.2z"/>
	<path d="M33.9,22.5h6.8c0-0.6-0.2-1.7-0.4-2.1h-6.4V22.5z"/>
	<path d="M21.2,14.3h16.3c0.5-0.4,1.5-1.6,1.9-2.1H21.2V14.3z"/>
	<path d="M33.9,8.1h6.8c0,0.5-0.2,1.7-0.4,2.1h-6.4V8.1z"/>
	<path d="M16.9,28.4h21.2c-1.9,1.6-3.5,2.1-6.5,2.1h-2.1H16.9V28.4z"/>
	<path d="M16.9,2.1h21.2C36.3,0.5,34.7,0,31.7,0h-2.1H16.9V2.1z"/>
	<rect x="0" y="0" width="14.8" height="2.1"/>
	<rect x="0" y="4.1" width="14.8" height="2.1"/>
	<rect x="0" y="24.4" width="14.8" height="2.1"/>
	<rect x="4.2" y="20.3" width="6.4" height="2.1"/>
	<rect x="4.2" y="16.2" width="6.4" height="2.1"/>
	<rect x="4.2" y="12.2" width="6.4" height="2.1"/>
	<rect x="4.2" y="8.1" width="6.4" height="2.1"/>
	<rect x="21.2" y="20.3" width="6.4" height="2.1"/>
	<rect x="21.2" y="8.1" width="6.4" height="2.1"/>
	<polygon points="56.4,22.5 62.3,22.5 63,20.3 55.6,20.3 	"/>
	<polygon points="55,18.4 63.7,18.4 64.4,16.2 54.2,16.2 	"/>
	<rect x="0" y="28.4" width="14.8" height="2.1"/>
	<polygon points="59.2,30.6 59.4,30.6 60.2,28.4 58.5,28.4 	"/>
	<rect x="46.6" y="20.3" width="6.4" height="2.1"/>
	<rect x="46.6" y="16.2" width="6.4" height="2.1"/>
	<rect x="42.4" y="28.4" width="10.6" height="2.1"/>
	<rect x="42.4" y="24.4" width="10.6" height="2.1"/>
	<polygon points="57.8,26.5 60.8,26.5 61.6,24.4 57,24.4 	"/>
	<rect x="65.7" y="20.3" width="6.4" height="2.1"/>
	<rect x="65.7" y="16.2" width="6.4" height="2.1"/>
	<rect x="65.7" y="28.4" width="10.6" height="2.1"/>
	<rect x="65.7" y="24.4" width="10.6" height="2.1"/>
	<polygon points="57.2,8.1 46.6,8.1 46.6,10.3 58,10.3 	"/>
	<polygon points="60,12.2 59.3,14.1 58.6,12.2 46.6,12.2 46.6,14.3 53,14.3 53,12.6 53.6,14.3 65.1,14.3 65.7,12.6 65.7,12.7 
		65.7,12.7 65.7,14.3 72,14.3 72,12.2 	"/>
	<polygon points="54.3,0 42.4,0 42.4,2.1 55.1,2.1 	"/>
	<polygon points="55.8,4.1 42.4,4.1 42.4,6.2 56.5,6.2 	"/>
	<polygon points="61.4,8.1 72,8.1 72,10.3 60.7,10.3 	"/>
	<polygon points="64.3,0 76.3,0 76.3,2.1 63.6,2.1 	"/>
	<polygon points="62.9,4.1 76.3,4.1 76.3,6.2 62.1,6.2 	"/>
</g>
<path d="M78.6,29c0-0.9,0.8-1.7,1.7-1.7c0.9,0,1.7,0.8,1.7,1.7c0,0.9-0.7,1.7-1.7,1.7C79.3,30.7,78.6,29.9,78.6,29z M81.7,29
	c0-0.8-0.6-1.5-1.4-1.5c-0.8,0-1.4,0.6-1.4,1.5c0,0.8,0.6,1.5,1.4,1.5C81.1,30.4,81.7,29.8,81.7,29z M81.1,29.9h-0.3l-0.5-0.9h-0.4
	v0.9h-0.2V28h0.8c0.5,0,0.7,0.2,0.7,0.5c0,0.4-0.3,0.5-0.6,0.5L81.1,29.9z M80.2,28.9c0.3,0,0.7,0,0.7-0.3c0-0.3-0.2-0.3-0.5-0.3
	h-0.5v0.7H80.2z"/>
<rect x="79.3" y="27.3" fill="none" width="2.6" height="3.4"/>
</svg>
