<?xml version="1.0" encoding="utf-8"?>
<!-- Generator: Adobe Illustrator 18.1.1, SVG Export Plug-In . SVG Version: 6.00 Build 0)  -->
<svg version="1.1" id="Layer_1" xmlns="http://www.w3.org/2000/svg" xmlns:xlink="http://www.w3.org/1999/xlink" x="0px" y="0px"
	 viewBox="-0.5 64.5 958.3 431" enable-background="new -0.5 64.5 958.3 431" xml:space="preserve">
<g>
	<path fill="#293641" d="M480,495.5c-10.9,0-19.1-2.7-30-5.5c-24.5-10.9-40.9-38.2-40.9-65.5v-289c0-21.8,8.2-40.9,24.5-54.5
		c13.6-10.9,30-16.4,46.4-16.4c35.5,0,70.9,27.3,70.9,70.9v289.1c0,19.1-8.2,38.2-21.8,51.8C515.5,490,499.1,495.5,480,495.5z
		 M480,83.6c-10.9,0-24.5,5.5-32.7,13.6c-10.9,10.9-19.1,24.5-19.1,38.2v289.1c0,19.1,10.9,38.2,30,46.4
		c19.1,8.2,40.9,5.5,57.3-10.9c10.9-10.9,16.4-21.8,16.4-35.5v-289C531.8,105.5,504.5,83.6,480,83.6z"/>
	<path fill="#293641" d="M73.6,495.5c-10.9,0-19.1-2.7-30-5.5C16.4,479.1,0,451.8,0,424.5V138.2c0-21.8,8.2-40.9,24.5-54.5
		c13.6-13.6,30-19.1,46.4-19.1c35.5,0,70.9,27.3,70.9,70.9v289.1c0,19.1-8.2,38.2-21.8,51.8C109.1,490,90,495.5,73.6,495.5z
		 M70.9,83.6c-10.9,0-24.5,5.5-32.7,13.6c-10.9,10.9-19.1,24.5-16.4,40.9v289.1c0,19.1,10.9,38.2,30,46.4s40.9,5.5,57.3-10.9
		c10.9-10.9,16.4-21.8,16.4-35.5v-289C122.7,105.5,98.2,83.6,70.9,83.6z"/>
	<path fill="#293641" d="M275.5,410.9c-19.1,0-38.2-8.2-49.1-21.8L21.8,187.3C5.5,173.6-2.7,151.8,0,132.7
		c2.7-40.9,32.7-68.2,70.9-68.2c19.1,0,38.2,8.2,51.8,21.8l204.5,201.8c16.4,16.4,24.5,40.9,19.1,65.5
		c-5.5,24.5-21.8,43.6-43.6,51.8C291.8,410.9,283.6,410.9,275.5,410.9z M70.9,86.4c-21.8,0-49.1,16.4-51.8,46.4
		c0,16.4,5.5,30,13.6,40.9l204.5,201.8c13.6,13.6,35.5,19.1,54.5,10.9c16.4-5.5,27.3-19.1,32.7-38.2c2.7-16.4-2.7-35.5-13.6-46.4
		L106.4,100C95.5,86.4,81.8,86.4,70.9,86.4z"/>
	<path fill="#293641" d="M275.5,410.9L275.5,410.9c-8.2,0-16.4-2.7-24.5-5.5c-21.8-8.2-40.9-27.3-43.6-51.8
		c-5.5-21.8,0-46.4,19.1-65.5L430.9,83.6c10.9-10.9,30-19.1,49.1-19.1c38.2,0,68.2,27.3,70.9,65.5c2.7,21.8-5.5,43.6-21.8,57.3
		L327.3,391.8C313.6,402.7,294.5,410.9,275.5,410.9z M480,86.4c-8.2,0-24.5,2.7-35.5,13.6L240,304.5c-13.6,13.6-16.4,30-13.6,46.4
		c2.7,16.4,16.4,30,32.7,38.2c19.1,8.2,40.9,2.7,54.5-10.9l201.8-204.5c10.9-10.9,16.4-24.5,13.6-40.9
		C529.1,102.7,501.8,86.4,480,86.4z"/>
</g>
<g>
	<path fill="#293641" d="M886.4,495.5c-10.9,0-19.1-2.7-30-5.5c-24.5-10.9-40.9-38.2-40.9-65.5v-289c0-21.8,8.2-40.9,24.5-54.5
		c13.6-10.9,30-16.4,46.4-16.4c35.5,0,70.9,27.3,70.9,70.9v289.1c0,19.1-8.2,38.2-21.8,51.8C924.5,490,905.5,495.5,886.4,495.5z
		 M886.4,83.6c-10.9,0-24.5,5.5-32.7,13.6c-10.9,10.9-19.1,24.5-19.1,38.2v289.1c0,19.1,10.9,38.2,30,46.4
		c19.1,8.2,40.9,5.5,57.3-10.9c10.9-10.9,16.4-21.8,16.4-35.5v-289C938.2,105.5,910.9,83.6,886.4,83.6z"/>
	<path fill="#293641" d="M480,495.5c-10.9,0-19.1-2.7-30-5.5c-24.5-10.9-40.9-38.2-40.9-65.5v-289c0-21.8,8.2-40.9,24.5-54.5
		c13.6-10.9,30-16.4,46.4-16.4c35.5,0,70.9,27.3,70.9,70.9v289.1c0,19.1-8.2,38.2-21.8,51.8C515.5,490,499.1,495.5,480,495.5z
		 M480,83.6c-10.9,0-24.5,5.5-32.7,13.6c-10.9,10.9-19.1,24.5-19.1,38.2v289.1c0,19.1,10.9,38.2,30,46.4
		c19.1,8.2,40.9,5.5,57.3-10.9c10.9-10.9,16.4-21.8,16.4-35.5v-289C531.8,105.5,504.5,83.6,480,83.6z"/>
	<path fill="#293641" d="M681.8,410.9c-19.1,0-38.2-8.2-49.1-21.8L428.2,187.3c-13.6-13.6-21.8-35.5-19.1-54.5
		c2.7-40.9,32.7-68.2,70.9-68.2c19.1,0,35.5,8.2,49.1,21.8l204.5,204.5c16.4,16.4,24.5,40.9,19.1,65.5
		c-5.5,24.5-21.8,43.6-43.6,51.8C700.9,410.9,692.7,410.9,681.8,410.9z M480,86.4c-21.8,0-49.1,16.4-51.8,46.4
		c0,16.4,5.5,30,13.6,40.9l204.5,201.8c13.6,13.6,35.5,19.1,54.5,10.9c16.4-5.5,27.3-19.1,32.7-38.2c2.7-16.4-2.7-35.5-13.6-46.4
		L515.5,97.3C501.8,86.4,488.2,86.4,480,86.4z"/>
	<path fill="#293641" d="M684.5,410.9L684.5,410.9c-8.2,0-16.4-2.7-24.5-5.5c-21.8-8.2-40.9-27.3-43.6-51.8
		c-5.5-24.5,2.7-49.1,19.1-65.5L840,83.6c10.9-10.9,27.3-19.1,46.4-19.1c38.2,0,68.2,27.3,70.9,65.5c2.7,21.8-5.5,43.6-21.8,57.3
		L733.6,391.8C720,402.7,703.6,410.9,684.5,410.9z M886.4,86.4c-8.2,0-24.5,2.7-35.5,13.6L646.4,304.5c-13.6,13.6-16.4,30-13.6,46.4
		c2.7,16.4,16.4,30,32.7,38.2c19.1,8.2,40.9,2.7,54.5-10.9l204.5-204.5c10.9-10.9,16.4-24.5,13.6-40.9
		C935.5,102.7,910.9,86.4,886.4,86.4z"/>
</g>
</svg>
