<?xml version="1.0" encoding="utf-8"?>
<!-- Generator: Adobe Illustrator 15.0.0, SVG Export Plug-In . SVG Version: 6.00 Build 0)  -->
<!DOCTYPE svg PUBLIC "-//W3C//DTD SVG 1.1//EN" "http://www.w3.org/Graphics/SVG/1.1/DTD/svg11.dtd">
<svg version="1.1" id="Layer_1" xmlns="http://www.w3.org/2000/svg" xmlns:xlink="http://www.w3.org/1999/xlink" x="0px" y="0px"
	 width="140px" height="80px" viewBox="0 0 140 80" enable-background="new 0 0 140 80" xml:space="preserve">
<g>
	<path fill="#106079" d="M31.66,17.466c0,7.811-6.407,14.002-14.146,14.002c-7.739,0-14.146-6.191-14.146-14.002
		c0-7.775,6.407-14.074,14.146-14.074C25.253,3.392,31.66,9.69,31.66,17.466z M6.392,17.43c0,6.119,4.967,11.23,11.123,11.23
		s11.123-5.111,11.123-11.23c0-6.155-4.896-11.23-11.123-11.23C11.287,6.199,6.392,11.274,6.392,17.43z"/>
	<path fill="#106079" d="M38.792,6.667v8.063h9.035v2.808h-9.035V31h-3.023V3.859h12.346v2.808H38.792z"/>
	<path fill="#106079" d="M55.999,6.667v8.063h9.035v2.808h-9.035V31h-3.023V3.859h12.346v2.808H55.999z"/>
	<path fill="#106079" d="M73.207,28.192h7.487V31H70.184V3.859h3.023V28.192z"/>
	<path fill="#106079" d="M86.779,31h-3.023V3.859h3.023V31z"/>
	<path fill="#106079" d="M92.467,2.708l21.166,22.173V3.859h3.023v28.364L95.491,10.087V31h-3.024V2.708z"/>
	<path fill="#106079" d="M122.312,3.859h14.074v2.808h-11.051v8.063h10.727v2.808h-10.727v10.654h11.051V31h-14.074V3.859z"/>
	<path fill="#106079" d="M7.759,49.867v8.063h9.035v2.808H7.759V74.2H4.736V47.06h12.346v2.808H7.759z"/>
	<path fill="#106079" d="M25.039,74.2h-3.023V47.06h3.023V74.2z"/>
	<path fill="#106079" d="M33.571,74.2h-3.023V47.06h3.923c5.147,0,9.935,1.368,9.935,7.487c0,4.175-2.627,7.127-6.803,7.487
		L46.242,74.2h-3.708l-8.207-11.914h-0.756V74.2z M33.571,59.622h0.936c3.419,0,6.875-0.648,6.875-4.859
		c0-4.464-3.275-4.896-6.911-4.896h-0.9V59.622z"/>
	<path fill="#106079" d="M62.37,52.351c-1.08-1.871-2.375-2.951-4.679-2.951c-2.412,0-4.5,1.728-4.5,4.211
		c0,2.34,2.412,3.42,4.248,4.248l1.8,0.792c3.527,1.548,6.515,3.312,6.515,7.631c0,4.751-3.815,8.387-8.531,8.387
		c-4.355,0-7.595-2.808-8.459-7.019l2.952-0.828c0.396,2.771,2.52,5.039,5.435,5.039s5.58-2.231,5.58-5.291
		c0-3.168-2.484-4.248-5.003-5.399l-1.656-0.72c-3.168-1.44-5.903-3.06-5.903-6.947c0-4.212,3.563-6.911,7.595-6.911
		c3.024,0,5.58,1.548,7.02,4.211L62.37,52.351z"/>
	<path fill="#106079" d="M77.382,74.2h-3.023V49.867h-6.551V47.06h16.198v2.808h-6.624V74.2z"/>
	<path fill="#106079" d="M92.466,72.616c0,1.116-0.9,2.052-2.016,2.052c-1.116,0-2.016-0.936-2.016-2.052
		c0-1.08,0.9-1.979,2.016-1.979C91.566,70.637,92.466,71.536,92.466,72.616z M88.974,47.06h2.952v21.634h-2.952V47.06z"/>
</g>
</svg>
