<?xml version="1.0" encoding="utf-8"?>
<!-- Generator: Adobe Illustrator 17.1.0, SVG Export Plug-In . SVG Version: 6.00 Build 0)  -->
<!DOCTYPE svg PUBLIC "-//W3C//DTD SVG 1.1//EN" "http://www.w3.org/Graphics/SVG/1.1/DTD/svg11.dtd">
<svg version="1.1" id="Layer_1" xmlns="http://www.w3.org/2000/svg" xmlns:xlink="http://www.w3.org/1999/xlink" x="0px" y="0px"
	 viewBox="0 0 411.8 305.8" enable-background="new 0 0 411.8 305.8" xml:space="preserve">
<path fill-rule="evenodd" clip-rule="evenodd" fill="#221E20" d="M34.8,47.9c0.3-1.7,1.5-2.3,3-2.8c10.3-3.2,20.5-6.4,30.8-9.6
	c8.2-2.6,16.4-5.1,24.7-7.7c1.9-0.6,3.9-1.2,5.8-1.8c0.4-0.1,0.9-0.2,1.3-0.3c1.1-0.1,1.6,0.2,1.8,1.3c0.3,1.5,0.4,3.1,0.6,4.7
	c0.4,4.6,0.9,9.2,1.3,13.8c0.4,4,0.7,8,1.1,12.1c0.4,4.5,0.8,9.1,1.3,13.6c0.4,3.9,0.7,7.9,1.1,11.8c0.4,4.1,0.8,8.1,1.1,12.2
	c0.3,3.6,0.6,7.1,0.9,10.7c0.1,0.8,0.2,1.7,0.3,2.5c0.2,1.9,1.2,3,3,3.6c1.8,0.6,3.6,1.1,5.5,1.7c17.3,5.3,34.6,10.6,51.8,15.8
	c6.3,1.9,12.5,3.8,18.8,5.7c2.2,0.7,4.5,0.7,6.7,0c12.5-3.8,24.9-7.5,37.4-11.3c10.3-3.1,20.5-6.3,30.8-9.4c2.6-0.8,5.2-1.6,7.8-2.4
	c1.9-0.6,2.8-1.9,3-3.8c0.5-5.4,1-10.9,1.5-16.3c0.5-5.6,1-11.2,1.6-16.8c0.5-5,0.9-10.1,1.4-15.1c0.5-5.5,1-11.1,1.6-16.6
	c0.5-5,0.9-9.9,1.4-14.9c0-0.3,0.1-0.6,0.1-0.9c0.3-1.2,1-1.7,2.1-1.4c2,0.5,4,1.1,6,1.7c14.3,4.4,28.6,8.8,42.9,13.2
	c4.4,1.4,8.9,2.7,13.3,4.1c2.7,0.8,3.1,1.5,2.9,4.3c-0.3,3.5-0.6,6.9-0.9,10.4c-0.3,3.6-0.6,7.1-1,10.7c-0.4,4.1-0.8,8.2-1.1,12.4
	c-0.4,4-0.7,8.1-1.1,12.1c-0.4,4.2-0.7,8.3-1.1,12.5c-0.4,4-0.7,7.9-1.1,11.9c-0.4,4.1-0.8,8.1-1.1,12.2c-0.4,3.9-0.7,7.8-1.1,11.8
	c-0.4,4.1-0.7,8.2-1.1,12.3c-0.1,1.5-0.3,3-0.4,4.5c-0.1,2.2-1.1,3.6-3.3,4.3c-2.7,0.8-5.4,1.7-8.1,2.5c-15,4.6-30,9.2-44.9,13.8
	c-17.1,5.2-34.1,10.4-51.2,15.7c-0.9,0.3-1.8,0.6-2.6,0.9c-1.4,0.5-2.2,1.5-2.2,3c0,0.8-0.1,1.7-0.1,2.5c0,21.2,0,42.5,0,63.7
	c0,0.1,0,0.2,0,0.4c0,2.2-0.6,3.1-2.8,3.8c-3.2,1-6.5,2.1-9.7,3.1c-6.3,1.9-12.5,3.9-18.8,5.8c-2.3,0.7-4.6,0.8-6.9,0.1
	c-9.6-2.9-19.2-5.9-28.7-8.9c-2.3-0.7-3-1.7-3-4.2c0-14.8,0-29.5,0-44.3c0-6.7,0-13.5,0-20.2c0-0.7-0.1-1.4-0.1-2.1
	c-0.1-1.4-0.8-2.3-2.1-2.7c-2.8-0.9-5.7-1.8-8.5-2.7c-32.2-9.8-64.3-19.7-96.5-29.5c-0.5-0.2-1-0.3-1.5-0.5c-2-0.7-3.1-2.1-3.2-4.2
	c-0.5-5.8-1-11.5-1.5-17.3c-0.5-5.6-1-11.2-1.6-16.7c-0.5-5.6-1-11.1-1.5-16.7c-0.6-6.1-1.1-12.2-1.7-18.3
	c-0.5-5.1-0.9-10.2-1.4-15.4c-0.5-5.2-0.9-10.4-1.4-15.6c-0.3-3.3-0.6-6.6-0.9-9.9c0-0.3-0.1-0.5-0.2-0.8
	C34.8,49.1,34.8,48.5,34.8,47.9z"/>
<g>
	<path fill="#221E20" d="M277.3,235.4l5.5-11.8c0.1-0.2,0.2-0.3,0.2-0.4c0.1-0.1,0.1-0.1,0.2-0.2c0.1,0,0.1-0.1,0.2-0.1
		c0.1,0,0.1,0,0.2-0.1h8.8c0.1,0,0.2,0,0.3,0.1c0.1,0.1,0.1,0.1,0.1,0.2c0,0.2-0.1,0.4-0.3,0.6L281.7,243v17.8
		c0,0.7-0.4,1.1-1.1,1.1h-6.9c-0.3,0-0.5-0.1-0.7-0.3c-0.2-0.2-0.3-0.5-0.3-0.8v-17.9L262,223.7c-0.2-0.2-0.3-0.4-0.3-0.6
		c0-0.1,0-0.2,0.1-0.2c0.1-0.1,0.1-0.1,0.3-0.1h8.8c0.1,0,0.2,0,0.3,0.1c0.1,0,0.1,0,0.2,0.1c0.1,0,0.1,0.1,0.2,0.2
		c0.1,0.1,0.1,0.2,0.3,0.4L277.3,235.4z"/>
	<path fill="#221E20" d="M306.4,224.2c0-0.3,0.1-0.6,0.3-0.8c0.2-0.2,0.5-0.3,0.9-0.3h7.7c0.3,0,0.6,0.1,0.8,0.3
		c0.2,0.2,0.4,0.5,0.4,0.8v28.5h14.4c0.3,0,0.6,0.1,0.8,0.3c0.2,0.2,0.3,0.5,0.3,0.9v6.9c0,0.3-0.1,0.6-0.3,0.8
		c-0.2,0.2-0.5,0.4-0.9,0.4h-23.4c-0.8,0-1.2-0.4-1.2-1.2V224.2z"/>
	<path fill="#221E20" d="M377.1,242.5c0,1.8-0.2,3.6-0.7,5.3c-0.5,1.7-1.1,3.2-2,4.7c-0.9,1.4-1.9,2.7-3.1,3.9c-1.2,1.2-2.6,2.2-4,3
		c-1.5,0.8-3.1,1.5-4.8,1.9c-1.7,0.4-3.5,0.7-5.3,0.7h-12.9c-0.3,0-0.6-0.1-0.8-0.2c-0.2-0.1-0.4-0.4-0.4-0.9v-36.5
		c0-0.4,0.1-0.7,0.3-0.9c0.2-0.2,0.5-0.3,0.9-0.3h12.9c1.8,0,3.6,0.2,5.3,0.7c1.7,0.5,3.3,1.1,4.8,1.9c1.5,0.8,2.8,1.8,4,3
		c1.2,1.2,2.3,2.5,3.1,3.9c0.9,1.4,1.5,3,2,4.7C376.8,238.9,377.1,240.7,377.1,242.5z M353.1,232.4v20.1h2.2c0.4,0,0.8,0,1.2,0
		c0.4,0,0.8-0.1,1.2-0.1c1.3-0.1,2.5-0.4,3.7-1c1.1-0.5,2.1-1.2,3-2.1c0.8-0.9,1.5-1.9,2-3c0.5-1.2,0.7-2.4,0.7-3.8
		c0-1.5-0.3-2.8-0.8-4c-0.5-1.2-1.3-2.3-2.2-3.2c-0.9-0.9-2-1.6-3.3-2.1c-1.3-0.5-2.6-0.7-4-0.7H353.1z"/>
</g>
</svg>
